<?xml version="1.0" encoding="utf-8"?>
<!-- Generator: Adobe Illustrator 28.3.0, SVG Export Plug-In . SVG Version: 6.00 Build 0)  -->
<svg version="1.1" id="Layer_1" xmlns="http://www.w3.org/2000/svg" xmlns:xlink="http://www.w3.org/1999/xlink" x="0px" y="0px"
	 viewBox="0 0 289.2 189.2" style="enable-background:new 0 0 289.2 189.2;" xml:space="preserve">
<style type="text/css">
	.st0{fill:#96D0ED;}
	.st1{fill:#BEE3F8;}
	.st2{fill:#056C64;}
	.st3{fill:#FFFFFF;}
</style>
<path class="st0" d="M170.5,95.4c2-3.6,4.8-6.9,8-9.5c6.9-5.7,15.7-8.4,24.2-10.9c1-0.3,2.1-0.6,3.2-0.5c1.7,0.2,3.2,1.4,4.5,2.5
	c5.8,4.5,12.8,7.4,20.1,8.3c2.3,0.3,4.5,0.4,6.7,1c4.4,1.3,8.1,4.5,11.4,7.7L170.5,95.4z"/>
<path class="st0" d="M9.1,42.1c6.5-1.7,10.8-8,13.8-14c3-6,5.8-12.7,11.3-16.6c1.4-1,3.4-1.8,4.8-0.8c0.5,0.4,0.9,1,1.3,1.5
	c6,9.8,14,18.2,21.9,26.5c0.9,1,2,2,3.3,2.2c1.2,0.1,2.3-0.5,3.4-1.1c4.4-2.6,9.2-5.4,14.3-4.5c5,0.9,8.6,5.2,11.6,9.3
	c2.2,2.9,4.5,5.9,6.7,8.8c2.5,3.3,5.2,6.8,8.9,8.7c2,1.1,4.1,1.7,6.3,2.3c4.4,1.2,8.8,2.4,13.3,3.6c1,0.3,2,0.6,2.9,1.1
	c1.1,0.7,1.8,1.8,2.5,2.8c4.6,7.1,8,15.1,9.2,23.5H6.7c0-0.9,0-1.7,0-2.6L9.1,42.1z"/>
<path class="st1" d="M4.7,96.3h261.2c-18,1.6-36.2,5.3-53.6,10.1c20.8,11.2,48.5-0.5,69.1,11c-5,3.7-11.4,5.1-17.5,6.4
	c-9,1.9-18,3.9-27,5.8c-6.2,1.3-12.7,2.8-17.9,6.5c-3.5,2.5-6.2,6-9.9,8.1c-2.6,1.5-5.5,2.2-8.4,2.9c-13.6,3.2-27.4,5.7-41.2,7.3
	c-2.9,0.4-6.7,1.6-6.5,4.5c0.1,1.8,1.7,3.1,3.3,4c4.2,2.5,8.9,4.4,13.7,5.4c3.9,0.8,9.1,2.4,9.1,6.4c0,2.5-2.3,4.4-4.7,5.1
	c-2.4,0.7-4.9,0.6-7.3,1c-5,0.8-10.1,3.8-12.5,8.2H0c0-1.7,0.1-3.5,0.1-5.2V97.4c1,0,1.9,0,2.9-0.2C2.8,96.5,4.4,97.1,4.7,96.3z"/>
<path class="st0" d="M274.7,96.1c0.1,5.8-5.2,11.2-11,11.3c-1.6,0-3.3-0.3-4.9-0.2c-3,0.3-5.5,2.1-8.4,3.1
	c-4.2,1.4-8.8,0.9-13.2,0.3c-7.9-1-15.8-2-23.7-3c-3.1-0.4,1.5-2.5,2.3-2.8c2-0.9,4.1-1.7,6.2-2.4c4-1.4,8.2-2.5,12.3-3.3
	c8.5-1.7,17.2-2.4,25.9-2.7C261.5,96.4,274.7,96,274.7,96.1z"/>
<path class="st0" d="M269.3,122.9c-13.6,3.3-27.4,5.8-41.3,7.6c-1.5,0.2-2.9,0.4-4.3,0.9c-6.3,2.3-8.5,10.4-14.4,13.6
	c-2.2,1.2-4.7,1.5-7.2,1.9c-13,1.9-26,3.8-38.9,5.7c-2.4,0.3-4.8,0.7-6.9,1.8c-2.1,1.1-3.8,3.2-3.9,5.6c2.1,2.4,5.6,3.2,8.8,3
	c3.2-0.2,6.3-1.3,9.5-1.9c6.6-1.3,13.4-0.9,20.1-1.4c6.2-0.5,12.3-1.8,18.1-3.9c2.4-0.9,4.9-2,6.6-3.9c0.9-1.1,1.6-2.4,2.4-3.5
	c2.4-3.2,6.2-5.2,10.1-6.3c3.9-1.1,7.9-1.3,11.9-1.9c12-1.6,23.6-5.5,35.1-9.3c1.3-0.4,2.6-0.9,3.6-1.9c0.8-0.8,1.2-1.8,1.5-2.8
	c0.8-2.2,3.1-8.8-0.9-7.4C276,120,273,122,269.3,122.9z"/>
<g>
	<g>
		<path class="st2" d="M8.7,95.9c34.7,0,69.5,0,104.2,0c34.6,0,69.1,0,103.7,0c9.7,0,19.5,0,29.2,0c9.7,0,19.5,0.3,29.2-0.1
			c0.8,0,0.8-1.2,0-1.2c-8.7-0.4-17.4-0.1-26.1-0.1c-8.7,0-17.4,0-26.1,0c-17.4,0-34.7,0-52.1,0c-34.6,0-69.1,0-103.7,0
			c-19.5,0-39,0-58.5,0C7.8,94.5,7.8,95.9,8.7,95.9L8.7,95.9z"/>
	</g>
</g>
<g>
	<g>
		<path class="st2" d="M271.7,94.9c-4,0.5-8,0.7-11.9,1.1c-3.9,0.4-7.7,0.8-11.6,1.4c-8,1.1-15.9,2.7-23.7,4.6
			c-4.4,1.1-8.9,2.2-13.1,3.8c-0.6,0.2-0.4,1.1,0.3,1c5-1.1,9.9-2.6,14.8-3.8c5-1.2,10-2.2,15-3.1c5.1-0.9,10.3-1.6,15.4-2.2
			c5-0.5,10-0.8,15-1.5C272.6,96.1,272.4,94.8,271.7,94.9L271.7,94.9z"/>
	</g>
</g>
<g>
	<g>
		<path class="st2" d="M209.2,107.3c12.3,3.7,25.3,5.6,38.2,5.1c0.8,0,0.8-1.3,0-1.3c-12.8,0.2-25.5-1.4-37.8-5.1
			C208.7,105.7,208.4,107,209.2,107.3L209.2,107.3z"/>
	</g>
</g>
<g>
	<g>
		<path class="st2" d="M250.7,112.5c0.8,0.1,1.6,0.2,2.3,0.4c0.4,0.1,0.8,0.1,1.2,0.2c0.2,0,0.4,0.1,0.6,0.1c0.2,0,0.4,0,0.6,0
			c0.3,0,0.5-0.2,0.6-0.4c0.1-0.2,0-0.6-0.3-0.7c-0.2-0.1-0.4-0.2-0.6-0.3c-0.2,0-0.4-0.1-0.5-0.1c-0.4-0.1-0.8-0.1-1.2-0.2
			c-0.8-0.1-1.6-0.2-2.3-0.4c-0.4-0.1-0.8,0.1-0.9,0.5C250.1,112,250.3,112.5,250.7,112.5L250.7,112.5z"/>
	</g>
</g>
<g>
	<g>
		<path class="st2" d="M259.9,114.1c3.4,0.5,6.9,1,10.3,1.5c3.4,0.5,6.7,1.1,10.1,1.4c0.8,0.1,1-1.2,0.2-1.4
			c-3.3-0.6-6.7-0.9-10.1-1.4c-3.4-0.5-6.7-0.9-10.1-1.4C259.4,112.7,259.1,114,259.9,114.1L259.9,114.1z"/>
	</g>
</g>
<g>
	<g>
		<path class="st2" d="M280,116.8c-0.1,0.4-0.3,0.7-0.6,1.2c0,0.1-0.1,0.1-0.1,0.1c-0.1,0.2,0.1-0.1,0,0.1c-0.1,0.1-0.2,0.2-0.2,0.3
			c-0.2,0.2-0.3,0.3-0.5,0.5c0,0-0.1,0.1-0.1,0.1c0.1-0.1,0,0-0.1,0c-0.1,0.1-0.2,0.1-0.3,0.2c-0.2,0.1-0.4,0.2-0.6,0.3
			c0,0-0.1,0.1,0,0c-0.1,0-0.1,0-0.2,0.1c-0.1,0.1-0.3,0.1-0.4,0.2c-0.2,0.1-0.4,0.2-0.6,0.3c-0.3,0.2-0.3,0.8,0.1,0.8
			c0.3,0,0.6,0.1,0.8,0c0.3,0,0.6-0.2,0.9-0.3c0.5-0.2,1-0.5,1.4-0.9c0.9-0.7,1.5-1.7,1.8-2.7c0.1-0.3-0.1-0.7-0.5-0.8
			C280.5,116.2,280.1,116.4,280,116.8L280,116.8z"/>
	</g>
</g>
<g>
	<g>
		<path class="st2" d="M275,121.1c-3.6,0.5-7.1,1.4-10.5,2.6c-1.6,0.6-3.2,1.2-4.8,1.7c-1.9,0.5-3.8,0.5-5.7,0.6
			c-7.2,0.2-14.8,1-21.5,3.6c-0.7,0.3-0.4,1.3,0.3,1.1c3.6-0.9,7.1-1.8,10.8-2.4c3.7-0.6,7.5-0.8,11.3-1c1.7-0.1,3.3-0.2,4.9-0.6
			c1.7-0.4,3.2-1.1,4.8-1.7c3.5-1.3,7-2.2,10.7-2.7C276.1,122.2,275.8,121,275,121.1L275,121.1z"/>
	</g>
</g>
<g>
	<g>
		<path class="st2" d="M229.5,130.6c-2.8,0.5-5.7,1.1-8.5,1.7c-1.6,0.3-4.2,1.4-3.3,3.5c0.2,0.5,0.9,0.2,0.9-0.2
			c0.1-1.6,2.9-1.9,4.1-2.1c2.4-0.5,4.8-1,7.1-1.5C230.7,131.7,230.3,130.5,229.5,130.6L229.5,130.6z"/>
	</g>
</g>
<g>
	<g>
		<path class="st2" d="M215.2,138.2c-0.5,1.1-1.1,2.3-1.8,3.2c-0.4,0.5-0.8,0.9-1.3,1.4c-0.2,0.2-0.5,0.4-0.7,0.6
			c-0.3,0.2-0.6,0.4-0.7,0.8c-0.1,0.3,0.1,0.6,0.4,0.7c0.7,0.1,1.4-0.6,1.9-1c0.5-0.4,1-0.9,1.4-1.5c0.9-1.1,1.6-2.3,2-3.7
			c0.1-0.3-0.1-0.6-0.4-0.7C215.8,137.9,215.4,137.9,215.2,138.2L215.2,138.2z"/>
	</g>
</g>
<g>
	<g>
		<path class="st2" d="M208.4,145.2c-8.1,1.3-16.1,2.5-24.2,3.8c-3.9,0.6-7.9,1.2-11.8,1.9c-1.9,0.3-3.9,0.6-5.8,0.9
			c-1,0.2-1.9,0.3-2.9,0.5c-1.1,0.2-2.3,0.2-3.4,0.7c-0.6,0.3-0.5,1.1,0.2,1.2c1.9,0.1,4.1-0.5,6-0.8c1.9-0.3,3.9-0.6,5.8-0.9
			c4-0.6,8-1.3,12.1-1.9c8.1-1.3,16.3-2.6,24.4-3.9C209.6,146.4,209.3,145.1,208.4,145.2L208.4,145.2z"/>
	</g>
</g>
<g>
	<g>
		<path class="st2" d="M154.6,154c-0.7,0.4-1.2,0.9-1.7,1.6c-0.2,0.3-0.4,0.6-0.5,1c-0.1,0.2-0.1,0.3-0.1,0.5c0,0.1-0.1,0.3-0.1,0.4
			c0,0.2,0.1,0.3,0.1,0.4c0.1,0.2,0.5,0.4,0.7,0.2c0.1-0.1,0.2-0.2,0.3-0.3c0.1-0.1,0.1-0.2,0.1-0.3c0,0,0-0.1,0-0.1
			c0-0.1-0.1,0.1,0,0c0-0.1,0.1-0.1,0.1-0.2c0.1-0.3,0.3-0.5,0.5-0.8c0,0,0-0.1,0.1-0.1c0.1-0.1,0,0,0,0c0.1-0.1,0.1-0.1,0.1-0.2
			c0.1-0.1,0.2-0.2,0.3-0.3c0.1-0.1,0.1-0.1,0.2-0.2c0,0,0,0,0,0c0,0,0,0,0,0c0,0,0,0,0,0c0,0,0,0,0,0c0.1-0.1,0.3-0.2,0.4-0.3
			c0.3-0.2,0.5-0.7,0.3-1C155.3,153.9,154.9,153.8,154.6,154L154.6,154z"/>
	</g>
</g>
<g>
	<g>
		<path class="st2" d="M153.1,155.8c-0.3,0.4-0.7,0.7-1,1.1c-0.2,0.2-0.3,0.3-0.5,0.5c-0.2,0.2-0.3,0.4-0.5,0.5
			c-0.4,0.2-0.5,0.8-0.1,1.1c0.7,0.7,1.4,1.3,2.3,1.8c0.4,0.2,0.8,0.5,1.2,0.6c0.5,0.2,1.1,0.6,1.6,0.4c0.3-0.1,0.5-0.5,0.3-0.8
			c-0.2-0.4-0.8-0.6-1.2-0.8c-0.4-0.2-0.8-0.4-1.1-0.6c-0.7-0.5-1.4-1-2-1.6c0,0.3,0.1,0.6,0.1,0.8c0.1-0.2,0.3-0.4,0.5-0.5
			c0.2-0.2,0.3-0.3,0.5-0.5c0.3-0.4,0.7-0.7,1-1.1C154.6,156.1,153.7,155.2,153.1,155.8L153.1,155.8z"/>
	</g>
</g>
<g>
	<g>
		<path class="st2" d="M156.8,164.2c7.5,2.3,14.7,5.3,21.7,8.9c0.8,0.4,1.6-0.8,0.7-1.3c-7.1-3.7-14.4-6.7-22-9.1
			C156.3,162.5,155.9,163.9,156.8,164.2L156.8,164.2z"/>
	</g>
</g>
<g>
	<g>
		<path class="st2" d="M274.5,96c-0.4,1.1-0.7,2.3-1,3.4c-0.3,1.1-0.7,2.3-0.9,3.5c-0.2,0.9,1.1,1.3,1.4,0.4
			c0.3-1.1,0.6-2.3,0.9-3.5c0.3-1.1,0.6-2.3,0.9-3.4C276,95.6,274.8,95.2,274.5,96L274.5,96z"/>
	</g>
</g>
<g>
	<g>
		<path class="st2" d="M272.7,104c-0.1,0-0.1,0-0.2,0c-0.1,0-0.2,0-0.3,0c0,0-0.1,0-0.1,0.1c-0.1,0-0.1,0.1-0.2,0.2
			c0,0-0.1,0.1-0.1,0.1c0,0.1-0.1,0.1-0.1,0.2c0,0.1,0,0.1,0,0.2c0,0,0,0.1,0.1,0.1c0,0.1,0.1,0.1,0.2,0.2c0.1,0.1,0.1,0.1,0.2,0.1
			c0,0,0.1,0,0.1,0c0,0,0.1,0,0.1,0c0,0,0,0,0,0c0,0,0,0,0,0c0,0,0.1,0,0.1,0c0.1,0,0.1,0,0.2,0c0.1,0,0.2,0,0.2-0.1
			c0.1,0,0.1-0.1,0.2-0.1c0.1-0.1,0.1-0.1,0.1-0.2c0-0.1,0.1-0.2,0.1-0.2c0-0.1,0-0.1,0-0.2c0-0.1-0.1-0.2-0.2-0.3
			c0,0-0.1-0.1-0.1-0.1C272.9,104,272.8,104,272.7,104L272.7,104z"/>
	</g>
</g>
<g>
	<g>
		<path class="st2" d="M271.5,104.3c-1.9,0.6-3.9,1.1-5.8,1.8c-0.3,0.1-0.5,0.3-0.5,0.6c0,0.2,0.1,0.3,0.2,0.5
			c0.1,0.2,0.4,0.2,0.6,0.2c1.9-0.5,3.8-1.2,5.8-1.8C272.6,105.3,272.3,104.1,271.5,104.3L271.5,104.3z"/>
	</g>
</g>
<g>
	<g>
		<path class="st2" d="M264.3,106.8c-3.8-0.2-7.5,0.9-11.3,0.9c-1.7,0-2.8,0.3-4.2,1.3c-1.7,1.2-3.8,0.3-5.7,0.9
			c-0.5,0.2-0.6,0.9,0,1.1c1,0.2,2,0.1,3,0c0.8,0,1.6,0,2.4-0.3c0.7-0.3,1.1-0.7,1.7-1.1c0.8-0.5,1.8-0.5,2.7-0.5
			c3.8,0,7.5-1.2,11.3-1.1C265,107.9,265,106.8,264.3,106.8L264.3,106.8z"/>
	</g>
</g>
<g>
	<g>
		<path class="st2" d="M281.5,117c-1,0.5-1,1.6-1,2.6c-0.1,1.3-0.5,2.6-0.9,3.8c-0.4,1.2-0.8,2.4-1.1,3.6c-0.1,0.6-0.3,1.2-0.3,1.8
			c-0.1,0.6-0.2,1.4,0.1,1.9c0.3,0.4,0.8,0.4,1,0c0.3-0.5,0.2-1,0.3-1.6c0.1-0.6,0.2-1.1,0.3-1.7c0.3-1.1,0.6-2.1,1-3.2
			c0.3-1.1,0.7-2.1,0.9-3.2c0.1-0.6,0.2-1.1,0.2-1.7c0-0.4,0-0.9,0.3-1.1C282.8,117.7,282.2,116.6,281.5,117L281.5,117z"/>
	</g>
</g>
<g>
	<g>
		<path class="st2" d="M276.4,120.9c-0.2,1.4-0.4,2.8-0.7,4.2c-0.1,0.7-0.3,1.4-0.5,2.1c-0.1,0.3-0.2,0.7-0.3,1
			c-0.1,0.4-0.2,0.7,0,1.1c0.2,0.3,0.5,0.4,0.8,0.2c0.4-0.2,0.4-0.5,0.5-0.9c0.1-0.3,0.2-0.7,0.3-1c0.2-0.7,0.3-1.4,0.5-2.1
			c0.3-1.4,0.5-2.8,0.7-4.3C277.8,120.3,276.5,120.1,276.4,120.9L276.4,120.9z"/>
	</g>
</g>
<g>
	<g>
		<path class="st2" d="M276.9,129.7c-1.2,0.4-2.5,0.7-3.7,1c-0.3,0.1-0.5,0.5-0.4,0.8c0.1,0.3,0.4,0.5,0.8,0.4
			c1.3-0.2,2.5-0.6,3.8-1c0.3-0.1,0.6-0.5,0.5-0.8C277.6,129.8,277.3,129.6,276.9,129.7L276.9,129.7z"/>
	</g>
</g>
<g>
	<g>
		<path class="st2" d="M267.5,132.4c-5.1,1.5-10.3,2.9-15.4,4.4c-2.5,0.7-5.1,1.5-7.6,2.2c-2.4,0.7-5.1,1.3-7.4,2.4
			c-0.4,0.2-0.2,0.9,0.2,0.9c2.4-0.2,4.9-1.2,7.3-1.9c2.6-0.8,5.2-1.5,7.8-2.3c5.1-1.5,10.3-3.1,15.4-4.6
			C268.6,133.3,268.3,132.2,267.5,132.4L267.5,132.4z"/>
	</g>
</g>
<g>
	<g>
		<path class="st2" d="M234,142.3C234,142.3,234,142.2,234,142.3C234,142.2,234,142.3,234,142.3L234,142.3z"/>
	</g>
</g>
<g>
	<g>
		<path class="st2" d="M230.1,141.9c-1.6-0.2-3.3,0-4.9,0.4c-0.8,0.2-1.5,0.5-2.3,0.9c-0.3,0.2-0.7,0.3-1,0.4
			c-0.4,0.1-0.8,0-1.2,0.3c-0.3,0.2-0.4,0.7-0.1,0.9c0.6,0.6,1.6,0.2,2.3,0c0.8-0.3,1.5-0.7,2.3-1c1.6-0.5,3.2-0.7,4.9-0.5
			c0.4,0,0.7-0.3,0.7-0.7C230.8,142.2,230.5,141.9,230.1,141.9L230.1,141.9z"/>
	</g>
</g>
<g>
	<g>
		<path class="st2" d="M219.3,146.3c-1.3,1.3-1.5,3.3-2.8,4.5c-0.8,0.7-1.6,1.4-2.6,1.9c-0.5,0.3-1.1,0.6-1.6,1
			c-0.5,0.3-1.1,0.6-1.4,1.1c-0.3,0.5,0.2,0.9,0.6,0.8c0.6-0.1,1.1-0.5,1.6-0.9c0.5-0.3,1-0.7,1.5-1.1c0.5-0.3,0.9-0.7,1.4-1
			c0.5-0.3,0.9-0.5,1.3-0.9c0.7-0.6,1.1-1.5,1.5-2.3c0.4-0.8,0.7-1.7,1.3-2.3C220.8,146.7,219.9,145.7,219.3,146.3L219.3,146.3z"/>
	</g>
</g>
<g>
	<g>
		<path class="st2" d="M209.2,156.4c-6.3,0.5-12.6,1.5-18.9,2.1c-3.1,0.3-6.2,0.6-9.4,1c-1.6,0.2-3.1,0.3-4.7,0.5
			c-1.5,0.2-3.2,0.1-4.6,0.5c-0.6,0.2-0.4,1,0.1,1.1c1.5,0.2,3.2-0.2,4.7-0.3c1.6-0.1,3.1-0.3,4.7-0.4c3.2-0.3,6.4-0.6,9.6-1
			c6.2-0.7,12.5-1.2,18.6-2.3C210.1,157.6,209.9,156.4,209.2,156.4L209.2,156.4z"/>
	</g>
</g>
<g>
	<g>
		<path class="st2" d="M169.4,161.5c-0.1,0-0.3,0.1-0.4,0.1c0,0-0.1,0-0.1,0.1c-0.1,0-0.1,0.1-0.1,0.1c0,0-0.1,0.1-0.1,0.1
			c0,0.1,0,0.1,0,0.2c0,0,0,0.1,0,0.1c0,0,0,0.1,0.1,0.1c0,0.1,0.1,0.1,0.1,0.1c0,0,0.1,0.1,0.2,0.1c0.1,0,0.3,0.1,0.4,0.1
			c0.1,0,0.2,0,0.3,0c0.1,0,0.2-0.1,0.3-0.2c0,0,0.1-0.1,0.1-0.1c0.1-0.1,0.1-0.2,0.1-0.3c0-0.1,0-0.2-0.1-0.2
			c0-0.1-0.1-0.1-0.1-0.2C169.9,161.5,169.6,161.5,169.4,161.5L169.4,161.5z"/>
	</g>
</g>
<g>
	<g>
		<path class="st2" d="M164.8,161.9c-0.7,0.2-1.4,0.4-2.1,0.6c-0.4,0.1-0.7,0.1-1.1,0.2c-0.2,0-0.2,0-0.4,0.1
			c-0.3,0-0.5,0.1-0.7,0.3c-0.3,0.3-0.2,0.7,0.1,0.9c0.4,0.3,0.9,0.1,1.3,0.1c0.4-0.1,0.7-0.1,1.1-0.2c0.7-0.2,1.4-0.4,2.1-0.6
			c0.3-0.1,0.6-0.5,0.5-0.9C165.6,162,165.2,161.7,164.8,161.9L164.8,161.9z"/>
	</g>
</g>
<g>
	<g>
		<path class="st2" d="M231.8,131.4c0.3,1.4,0.1,2.9,0.1,4.3c0,0.7,0,1.5,0,2.2c0,0.7-0.1,1.5,0.3,2.1c0.2,0.3,0.6,0.3,0.8,0
			c0.4-0.6,0.3-1.5,0.3-2.3c0-0.7,0-1.5,0-2.2c0-1.5,0.1-3-0.2-4.5C233,130.1,231.6,130.5,231.8,131.4L231.8,131.4z"/>
	</g>
</g>
<g>
	<g>
		<path class="st2" d="M218.9,136.4c-0.2,1.9-0.4,3.8-0.6,5.7c-0.1,1-0.1,1.9-0.2,2.9c-0.1,0.9-0.2,1.9,0.1,2.8
			c0.1,0.3,0.7,0.5,0.9,0.1c0.4-0.8,0.3-1.8,0.4-2.7c0-1,0.1-2,0.2-3c0.1-1.9,0.3-3.9,0.5-5.8C220.2,135.6,219,135.6,218.9,136.4
			L218.9,136.4z"/>
	</g>
</g>
<g>
	<g>
		<path class="st2" d="M211.6,147.2c0.2,0.7,0.3,1.4,0.2,2.2c0,0.1,0,0.3-0.1,0.5c0,0.2-0.1,0.4-0.1,0.5c-0.1,0.2-0.1,0.3-0.2,0.5
			c0,0.1-0.1,0.1-0.1,0.3c0,0.1,0,0.3,0,0.4c0,0.4,0.5,0.8,0.9,0.5c0.1-0.1,0.2-0.1,0.3-0.2c0.1-0.1,0.2-0.3,0.2-0.4
			c0.1-0.2,0.1-0.4,0.2-0.6c0.1-0.4,0.2-0.9,0.3-1.4c0.1-0.9,0-1.8-0.2-2.6C212.6,146,211.3,146.4,211.6,147.2L211.6,147.2z"/>
	</g>
</g>
<g>
	<g>
		<path class="st2" d="M221.9,106.6c0,0.4,0,0.9,0,1.3c0,0.2,0,0.4,0,0.6c0,0.1,0,0.3,0.1,0.4c0,0,0.1,0.1,0,0
			c0,0.1,0.1,0.2,0.1,0.3c0.1,0.4,0.8,0.4,0.9,0c0-0.1,0.1-0.2,0.1-0.3c0,0,0,0,0,0c0,0,0-0.1,0-0.1c0.1-0.1,0.1-0.2,0.1-0.4
			c0-0.2,0-0.4,0-0.6c0-0.4,0-0.9,0-1.3c0-0.3-0.3-0.7-0.7-0.7C222.2,105.9,221.9,106.2,221.9,106.6L221.9,106.6z"/>
	</g>
</g>
<g>
	<g>
		<path class="st2" d="M265.3,110.9c1.1,0,2.2,0,3.2,0c0.5,0,1.1,0,1.6,0c0.5,0,1.1-0.1,1.6-0.2c0.5-0.1,0.5-0.9,0-0.9
			c-0.5-0.1-1.1-0.2-1.6-0.2c-0.5,0-1.1,0-1.6,0c-1.1,0-2.2,0-3.2,0C264.4,109.5,264.4,110.9,265.3,110.9L265.3,110.9z"/>
	</g>
</g>
<g>
	<g>
		<path class="st2" d="M265.9,107.5c2.1,0,4.2,0,6.3,0c0.9,0,0.9-1.4,0-1.4c-2.1,0-4.2,0-6.3,0C264.9,106,264.9,107.5,265.9,107.5
			L265.9,107.5z"/>
	</g>
</g>
<g>
	<g>
		<path class="st2" d="M220.6,152.7c0.9,0,1.8,0,2.6,0c0.4,0,0.9,0,1.3,0c0.5,0,0.9-0.1,1.4-0.1c0.5-0.1,0.5-1,0-1.1
			c-0.5-0.1-0.9-0.1-1.4-0.1c-0.4,0-0.9,0-1.3,0c-0.9,0-1.8,0-2.6,0c-0.4,0-0.7,0.3-0.7,0.7C219.9,152.4,220.2,152.7,220.6,152.7
			L220.6,152.7z"/>
	</g>
</g>
<g>
	<g>
		<path class="st2" d="M212.8,170c0.3,0,0.6,0,0.9,0c0.1,0,0.3,0,0.4,0c0.1,0,0.2,0,0.3-0.1c0.1,0,0.1-0.1,0.2-0.1
			c0.1,0,0.2-0.1,0.3-0.2c0.1-0.1,0.1-0.2,0.1-0.3c0-0.1,0-0.2-0.1-0.3c-0.1-0.1-0.2-0.2-0.3-0.3c-0.1,0-0.1-0.1-0.2-0.1
			c-0.1,0-0.2,0-0.3-0.1c-0.1,0-0.3,0-0.4,0c-0.3,0-0.6,0-0.9,0c-0.4,0-0.7,0.3-0.7,0.7C212.1,169.7,212.4,170,212.8,170L212.8,170z
			"/>
	</g>
</g>
<g>
	<g>
		<path class="st2" d="M249.1,151.8c0.6,0,1.2-0.1,1.7-0.1c0.2,0,0.3-0.1,0.4-0.2c0.1-0.1,0.2-0.3,0.2-0.4c0-0.3-0.3-0.6-0.6-0.6
			c-0.6,0-1.2-0.1-1.7-0.1c-0.2,0-0.4,0.1-0.5,0.2c-0.1,0.1-0.2,0.3-0.2,0.5c0,0.2,0.1,0.4,0.2,0.5
			C248.8,151.8,249,151.9,249.1,151.8L249.1,151.8z"/>
	</g>
</g>
<g>
	<g>
		<path class="st2" d="M145.8,93.4c-3.1-6.5-6-13.1-9.2-19.4c-0.4-0.8-1.5-0.1-1.2,0.7c2.9,6.6,6.1,13,9.2,19.4
			C145,94.9,146.2,94.2,145.8,93.4L145.8,93.4z"/>
	</g>
</g>
<g>
	<g>
		<path class="st2" d="M134.8,71c-0.2-0.2-0.3-0.5-0.5-0.7c-0.1-0.1-0.2-0.2-0.3-0.4c-0.1-0.2-0.2-0.3-0.4-0.5
			c-0.1-0.1-0.3-0.2-0.5-0.2c-0.1,0-0.3,0.1-0.4,0.1c-0.3,0.2-0.3,0.6-0.2,0.9c0.3,0.5,0.7,1,1,1.5c0.1,0.1,0.2,0.3,0.4,0.3
			c0.2,0,0.4,0,0.5-0.1c0.1-0.1,0.3-0.2,0.3-0.4C134.9,71.4,134.9,71.2,134.8,71L134.8,71z"/>
	</g>
</g>
<g>
	<g>
		<path class="st2" d="M133.1,69.2c-4.5-1.7-9.1-3.4-13.7-5.1c-2.2-0.8-4.5-1.7-6.7-2.5c-1.1-0.4-2.2-0.8-3.2-1.2
			c-1.1-0.4-2.2-1-3.4-1.1c-0.6-0.1-0.7,0.8-0.3,1.1c1,0.7,2.2,1,3.4,1.4c1.1,0.4,2.2,0.8,3.2,1.2c2.2,0.8,4.5,1.7,6.7,2.5
			c4.6,1.7,9.1,3.4,13.7,5.1C133.6,70.8,133.9,69.5,133.1,69.2L133.1,69.2z"/>
	</g>
</g>
<g>
	<g>
		<path class="st2" d="M101.4,55.5c-3.4-7.6-8.4-14.5-14.7-20c-0.5-0.5-1.3,0.3-0.8,0.8c6,5.6,10.9,12.4,14.3,19.9
			C100.5,57,101.7,56.3,101.4,55.5L101.4,55.5z"/>
	</g>
</g>
<g>
	<g>
		<path class="st2" d="M102.1,59c0.1,0.1,0.2,0.2,0.3,0.3c0,0,0,0,0,0c0,0,0,0,0,0c0,0,0.1,0.1,0.1,0.1c0,0,0.1,0,0.1,0
			c0.1,0,0.1,0,0.2,0.1c0.1,0,0.1,0,0.2,0.1c0.1,0,0.2,0,0.3,0c0.1,0,0.2-0.1,0.3-0.1c0.1-0.1,0.1-0.2,0.1-0.3c0-0.1,0-0.2,0-0.3
			c0,0,0-0.1-0.1-0.1c0,0,0,0,0-0.1c-0.1-0.2,0-0.1-0.1-0.2c0,0,0-0.1-0.1-0.1c0,0,0,0,0,0c-0.1-0.1-0.2-0.2-0.3-0.3
			c-0.1-0.1-0.1-0.1-0.2-0.1c-0.1,0-0.2-0.1-0.3-0.1c-0.1,0-0.2,0-0.3,0.1c-0.1,0-0.2,0.1-0.2,0.1c0,0-0.1,0.1-0.1,0.1
			c-0.1,0.1-0.1,0.2-0.1,0.4c0,0.1,0,0.1,0,0.2C101.9,58.8,102,58.9,102.1,59L102.1,59z"/>
	</g>
</g>
<g>
	<g>
		<path class="st2" d="M84.2,35.3c-1.4-0.2-2.8-0.4-4.3-0.5c-0.7-0.1-1.4-0.2-2.1-0.3c-0.3,0-0.7-0.1-1-0.1c-0.4,0-0.7-0.1-1.1,0.1
			c-0.3,0.2-0.4,0.6-0.1,0.9c0.3,0.3,0.6,0.3,1,0.4c0.4,0.1,0.8,0.1,1.1,0.1c0.7,0.1,1.4,0.2,2.1,0.2c1.4,0.2,2.9,0.3,4.3,0.5
			c0.3,0,0.6-0.3,0.6-0.6C84.8,35.6,84.5,35.4,84.2,35.3L84.2,35.3z"/>
	</g>
</g>
<g>
	<g>
		<path class="st2" d="M73.3,36.6c-1.1,0.4-2.2,0.8-3.3,1.3c-0.5,0.2-1.1,0.4-1.6,0.6c-0.5,0.2-1.4,0.4-1.6,1
			c-0.1,0.2,0,0.5,0.3,0.6c0.5,0.3,1.2-0.1,1.7-0.3c0.6-0.2,1.1-0.4,1.7-0.6c1.1-0.4,2.2-0.8,3.3-1.2c0.3-0.1,0.6-0.5,0.5-0.8
			C74,36.7,73.6,36.5,73.3,36.6L73.3,36.6z"/>
	</g>
</g>
<g>
	<g>
		<path class="st2" d="M64.3,39.7c-1.3-1.7-2.8-3.4-4.3-5c-0.7-0.8-1.5-1.5-2.3-2.2c-0.4-0.4-0.9-0.7-1.3-1.1
			c-0.5-0.4-0.8-0.7-1.4-0.7c-0.2,0-0.5,0.2-0.4,0.4c0.4,1,1.3,1.6,2.1,2.3c0.8,0.7,1.6,1.5,2.3,2.2c1.5,1.5,2.9,3.1,4.2,4.8
			c0.2,0.3,0.6,0.5,0.9,0.2C64.4,40.5,64.6,40,64.3,39.7L64.3,39.7z"/>
	</g>
</g>
<g>
	<g>
		<path class="st2" d="M52,26.2c-4-4.9-8-9.8-12.1-14.6c-0.5-0.6-1.3,0.3-0.9,0.9c3.9,5,7.9,9.8,11.9,14.7
			C51.6,27.9,52.6,26.9,52,26.2L52,26.2z"/>
	</g>
</g>
<g>
	<g>
		<path class="st2" d="M37.1,9.8c-3.4,0.2-6.5,2.4-7.5,5.7c-0.1,0.3,0.1,0.7,0.5,0.8c0.4,0.1,0.7-0.1,0.8-0.5c1-2.6,3.5-4.5,6.2-4.7
			C37.9,11,37.9,9.7,37.1,9.8L37.1,9.8z"/>
	</g>
</g>
<g>
	<g>
		<path class="st2" d="M27.8,17.7c-2.3,4.7-4.9,9.3-7.7,13.8c-2.3,3.6-4.8,7.8-9.4,8.7c-0.9,0.2-0.5,1.5,0.4,1.3
			c4.4-0.6,7.3-4.7,9.5-8.2c3.1-4.8,5.8-9.8,8.3-14.9C29.3,17.6,28.2,17,27.8,17.7L27.8,17.7z"/>
	</g>
</g>
<g>
	<g>
		<path class="st2" d="M29.4,20.6c1.1,1.1,2,2.4,2.8,3.8c0.4,0.7,0.7,1.4,0.9,2.1c0.2,0.4,0.3,0.8,0.4,1.1c0.1,0.4,0.2,0.8,0.5,1.1
			c0.3,0.3,0.7,0.1,0.9-0.2c0.1-0.4,0-0.8-0.1-1.2c-0.1-0.4-0.2-0.8-0.4-1.2c-0.3-0.8-0.6-1.6-1-2.3c-0.8-1.5-1.8-2.8-3-4
			C29.8,19.1,28.8,20,29.4,20.6L29.4,20.6z"/>
	</g>
</g>
<g>
	<g>
		<path class="st2" d="M35.5,31.6c0.3,0.9,0.6,1.8,1.1,2.7c0.2,0.4,0.5,0.8,0.7,1.2c0.3,0.4,0.6,1,1.2,1.1c0.3,0.1,0.7-0.1,0.6-0.5
			c0-0.1,0-0.2,0-0.4c-0.1-0.2-0.2-0.3-0.3-0.4c-0.1-0.1-0.3-0.3-0.4-0.5c-0.3-0.4-0.5-0.7-0.7-1.1c-0.4-0.8-0.7-1.6-1-2.4
			c-0.1-0.3-0.4-0.5-0.8-0.4C35.6,30.9,35.4,31.2,35.5,31.6L35.5,31.6z"/>
	</g>
</g>
<g>
	<g>
		<path class="st2" d="M37.3,30.2c2.5-6.3-3.1-12.8-0.7-19.1c0.3-0.7-0.9-1.2-1.3-0.5c-2.9,6.3,3.1,12.9,0.6,19.3
			C35.7,30.6,37,31,37.3,30.2L37.3,30.2z"/>
	</g>
</g>
<g>
	<g>
		<path class="st2" d="M39.6,40c3,4.6,6.1,9.4,7.9,14.6c0.9,2.5,1.5,5.2,1.7,7.9c0.1,2.3-0.4,5.7,1,7.7c0.3,0.4,1,0.3,1-0.3
			c-0.2-1.4-0.6-2.7-0.6-4.2c0-1.4,0-2.7-0.1-4.1c-0.2-2.7-0.9-5.3-1.8-7.8c-1.9-5.2-4.9-9.9-7.9-14.6C40.4,38.5,39.1,39.2,39.6,40
			L39.6,40z"/>
	</g>
</g>
<g>
	<g>
		<path class="st2" d="M54.2,65.9c0.2-0.6,0.3-1.2,0.5-1.8c0.1-0.3,0.2-0.6,0.2-0.9c0.1-0.4,0.1-0.7,0.2-1.1c0-0.6-0.9-0.8-1.1-0.3
			c-0.2,0.3-0.3,0.6-0.4,1c-0.1,0.3-0.2,0.6-0.3,0.9c-0.2,0.6-0.4,1.2-0.5,1.8c-0.1,0.4,0.1,0.8,0.5,0.9
			C53.6,66.5,54,66.3,54.2,65.9L54.2,65.9z"/>
	</g>
</g>
<g>
	<g>
		<path class="st2" d="M63.1,41.3c-0.5,0.7-1,1.4-1.6,2.1c-0.3,0.3-0.5,0.7-0.8,1c-0.1,0.2-0.3,0.3-0.4,0.5
			c-0.1,0.2-0.2,0.4-0.2,0.7c-0.1,0.4,0.3,0.7,0.7,0.5c0.2-0.1,0.4-0.2,0.6-0.4c0.2-0.2,0.3-0.4,0.4-0.6c0.3-0.4,0.5-0.7,0.8-1.1
			c0.5-0.7,1.1-1.4,1.6-2.1c0.2-0.3,0.1-0.8-0.2-0.9C63.7,40.9,63.4,41,63.1,41.3L63.1,41.3z"/>
	</g>
</g>
<g>
	<g>
		<path class="st2" d="M74.7,40.7c-4.9,2.9-10,6.2-14,10.3c-1.8,1.9-3.3,4.2-4.6,6.5c-1.5,2.7-3,5.5-4.4,8.2
			c-0.4,0.7,0.7,1.3,1.1,0.6c2.7-4.8,4.8-10.5,8.7-14.5c3.9-4,8.9-7.3,13.7-10.1C76,41.4,75.4,40.3,74.7,40.7L74.7,40.7z"/>
	</g>
</g>
<g>
	<g>
		<path class="st2" d="M51.4,68.3C51.4,68.3,51.4,68.2,51.4,68.3C51.4,68.2,51.4,68.3,51.4,68.3L51.4,68.3z"/>
	</g>
</g>
<g>
	<g>
		<path class="st2" d="M50.8,68.1c-0.1,0.2-0.1,0.4-0.2,0.5c-0.1,0.2-0.1,0.4-0.2,0.5c-0.1,0.2,0.1,0.4,0.3,0.5c0.1,0,0.2,0.1,0.3,0
			c0,0,0.1,0,0.1,0c0.1,0,0.1-0.1,0.2-0.2c0.1-0.2,0.2-0.3,0.3-0.5c0.1-0.2,0.2-0.3,0.3-0.5c0.1-0.1,0.1-0.3,0.1-0.5
			c0-0.1-0.1-0.2-0.2-0.3c-0.1-0.1-0.1-0.1-0.2-0.1c-0.2-0.1-0.3-0.1-0.5,0C50.9,67.7,50.8,67.9,50.8,68.1L50.8,68.1z"/>
	</g>
</g>
<g>
	<g>
		<path class="st2" d="M49,73.9c0.1,2.4,0.5,4.7,1.3,7c0.4,1.1,0.8,2.2,1.4,3.2c0.5,1.1,1.1,2.1,1.9,3c0.5,0.5,1.2-0.1,0.9-0.7
			c-0.5-1-1.1-1.9-1.6-2.9c-0.5-1-1-2-1.3-3.1c-0.7-2.1-1.1-4.3-1.3-6.5C50.3,73,49,73,49,73.9L49,73.9z"/>
	</g>
</g>
<g>
	<g>
		<path class="st2" d="M58.4,92.4c0.6,0.2,1.2,0.5,1.8,0.7c0.3,0.1,0.6,0.2,0.9,0.4c0.2,0.1,0.4,0.1,0.6,0.2c0.2,0,0.3,0,0.5,0
			c0.4,0,0.6-0.5,0.3-0.8c-0.1-0.1-0.2-0.2-0.3-0.3c-0.2-0.1-0.3-0.2-0.5-0.3c-0.3-0.1-0.6-0.3-0.9-0.4c-0.7-0.3-1.3-0.6-2-0.8
			c-0.3-0.1-0.8,0.2-0.9,0.5C57.8,92,58,92.3,58.4,92.4L58.4,92.4z"/>
	</g>
</g>
<g>
	<g>
		<path class="st2" d="M97.4,61.8c-0.7,0.9-1.2,2-1.5,3.1c-0.1,0.4-0.2,0.9,0.1,1.2c0.2,0.2,0.4,0.2,0.6,0.2
			c0.3-0.1,0.4-0.4,0.5-0.6c0.1-0.3,0.2-0.5,0.3-0.8c0-0.1,0.1-0.3,0.1-0.4c0,0,0.1-0.2,0-0.1c0-0.1,0.1-0.2,0.1-0.2
			c0.3-0.6,0.6-1.1,1-1.6c0.2-0.3,0.1-0.8-0.3-1C98,61.3,97.6,61.4,97.4,61.8L97.4,61.8z"/>
	</g>
</g>
<g>
	<g>
		<path class="st2" d="M14.6,41c1.1,1,2.1,1.9,3.2,2.9c0.5,0.5,1,0.9,1.5,1.4c0.3,0.2,0.5,0.5,0.8,0.7c0.3,0.3,0.6,0.4,1,0.6
			c0.4,0.2,0.7-0.4,0.5-0.7c-0.2-0.3-0.3-0.6-0.6-0.9c-0.3-0.2-0.5-0.5-0.8-0.7c-0.5-0.5-1-1-1.6-1.5c-1-1-2.1-1.9-3.1-2.9
			C15,39.4,14,40.4,14.6,41L14.6,41z"/>
	</g>
</g>
<g>
	<g>
		<path class="st2" d="M27.5,54.5c0.8,0.4,1.7,0.9,2.4,1.4c0.8,0.5,1.4,1.2,2,1.9c0.6,0.7,1.2,1.4,1.7,2.2c0.3,0.4,0.5,0.7,0.7,1.1
			c0.3,0.4,0.5,0.9,0.8,1.2c0.4,0.4,1,0,0.9-0.5c-0.1-0.5-0.4-0.9-0.6-1.4c-0.3-0.4-0.5-0.8-0.8-1.2c-0.6-0.8-1.2-1.6-2-2.2
			c-0.7-0.7-1.5-1.2-2.3-1.9c-0.7-0.6-1.5-1.2-2.4-1.7C27.4,53,26.8,54.2,27.5,54.5L27.5,54.5z"/>
	</g>
</g>
<g>
	<g>
		<path class="st2" d="M35.5,61.4c-2.2-1.7-4.6-3.2-7.2-4.4c-1.2-0.6-2.5-1.1-3.7-1.5c-0.7-0.2-1.3-0.5-2-0.6
			c-0.7-0.2-1.3-0.4-2-0.2c-0.3,0.1-0.5,0.6-0.2,0.8c0.5,0.4,1,0.5,1.6,0.7c0.7,0.2,1.3,0.4,2,0.6c1.3,0.5,2.6,1,3.9,1.6
			c2.5,1.2,4.8,2.6,7,4.3C35.5,63.1,36.2,61.9,35.5,61.4L35.5,61.4z"/>
	</g>
</g>
<g>
	<g>
		<path class="st2" d="M172.2,94.7c0.5-1.5,1.2-3,2-4.5c0.4-0.7,0.8-1.4,1.3-2.1c0.2-0.3,0.4-0.6,0.7-1c0.3-0.4,0.6-0.7,0.4-1.2
			c-0.1-0.2-0.3-0.4-0.5-0.4c-0.5,0-0.7,0.3-1,0.7c-0.3,0.4-0.5,0.7-0.8,1.1c-0.5,0.7-0.9,1.4-1.4,2.2c-0.8,1.5-1.6,3.1-2.1,4.8
			C170.5,95.2,171.9,95.6,172.2,94.7L172.2,94.7z"/>
	</g>
</g>
<g>
	<g>
		<path class="st2" d="M178,86.6c3.9-2.7,8.4-4,12.9-5.4c2.3-0.7,4.5-1.5,6.8-2.4c1.1-0.5,2.3-1,3.4-1.5c1.1-0.5,2.3-0.9,3.3-1.6
			c0.5-0.4-0.1-1.1-0.6-1c-1.1,0.2-2.2,0.8-3.2,1.3c-1.3,0.6-2.6,1.1-3.9,1.7c-2.3,0.9-4.6,1.7-6.9,2.4c-4.3,1.3-8.7,2.7-12.4,5.4
			C176.6,85.9,177.3,87.1,178,86.6L178,86.6z"/>
	</g>
</g>
<g>
	<g>
		<path class="st2" d="M206.4,74.6C206.4,74.6,206.4,74.6,206.4,74.6C206.4,74.6,206.4,74.6,206.4,74.6L206.4,74.6z"/>
	</g>
</g>
<g>
	<g>
		<path class="st2" d="M206.6,75.4c2.6,2,5.3,3.8,8.2,5.3c1.5,0.8,3,1.5,4.5,2.1c0.8,0.3,1.5,0.7,2.3,1c0.7,0.3,1.4,0.7,2.2,0.8
			c0.5,0,0.8-0.7,0.4-1c-0.5-0.5-1.4-0.7-2.1-1c-0.8-0.3-1.5-0.7-2.3-1c-1.4-0.6-2.8-1.3-4.2-2c-2.9-1.5-5.6-3.1-8.1-5.1
			C206.8,74,205.9,74.9,206.6,75.4L206.6,75.4z"/>
	</g>
</g>
<g>
	<g>
		<path class="st2" d="M227.1,86.2c1.7,0,3.4,0.1,5.1,0.3c0.8,0.1,1.7,0.2,2.5,0.3c0.8,0.1,1.7,0.4,2.5,0.3c0.5-0.1,0.5-0.8,0.1-1.1
			c-0.7-0.5-1.8-0.5-2.6-0.6c-0.8-0.1-1.7-0.2-2.5-0.3c-1.7-0.1-3.5-0.2-5.2-0.2C226.3,85,226.3,86.2,227.1,86.2L227.1,86.2z"/>
	</g>
</g>
<g>
	<g>
		<path class="st2" d="M241.1,89.8c1.1,1.1,2.6,1.6,4,2.2c0.6,0.3,1.3,0.5,1.9,0.9c0.6,0.4,1,0.9,1.5,1.3c0.4,0.4,1.2,0,1-0.6
			c-0.2-0.8-0.9-1.3-1.5-1.8c-0.6-0.4-1.3-0.7-2-1c-1.3-0.6-2.8-1-3.8-2C241.5,88.2,240.5,89.1,241.1,89.8L241.1,89.8z"/>
	</g>
</g>
<g>
	<g>
		<path class="st2" d="M205.1,75.4c0.8,1.6,1.8,3.1,2.8,4.5c0.5,0.7,1.1,1.4,1.6,2.1c0.6,0.7,1.2,1.4,1.9,1.9
			c0.5,0.3,1.1-0.3,0.8-0.8c-0.5-0.7-1.1-1.3-1.6-2c-0.6-0.7-1.1-1.3-1.6-2c-1-1.4-1.9-2.8-2.8-4.4C205.8,74,204.7,74.7,205.1,75.4
			L205.1,75.4z"/>
	</g>
</g>
<g>
	<g>
		<path class="st2" d="M215.7,85.8c2.7,0.8,5.2,2.4,7.2,4.3c0.4,0.4,1,0.2,1.1-0.3c0.2-0.6,0.4-1.1,0.7-1.7c0.3-0.6,0.6-1.1,0.7-1.7
			c0.1-0.6-0.5-1-1-0.6c-0.5,0.5-0.7,1.1-1,1.7c-0.3,0.6-0.5,1.2-0.7,1.9c0.4-0.1,0.8-0.2,1.1-0.3c-2.2-2.1-4.9-3.6-7.9-4.5
			C215.3,84.5,215,85.6,215.7,85.8L215.7,85.8z"/>
	</g>
</g>
<g>
	<g>
		<path class="st2" d="M208,85c0,0.1,0,0.3,0,0.4c0,0.1,0,0.3,0,0.4c0,0,0,0.1,0,0.1c0,0.1,0,0.1,0.1,0.2c0.1,0.1,0.1,0.1,0.3,0.2
			c0.1,0,0.2,0,0.3,0c0.1,0,0.1,0,0.2-0.1c0.1,0,0.1-0.1,0.1-0.1c0.1-0.1,0.2-0.2,0.2-0.3c0.1-0.1,0.1-0.2,0.2-0.3
			c0.1-0.2,0.1-0.5,0-0.7c-0.1-0.2-0.2-0.3-0.4-0.3c-0.1,0-0.2,0-0.3,0c-0.1,0-0.2,0-0.3,0.1c-0.1,0.1-0.2,0.1-0.2,0.2
			C208.1,84.8,208,84.9,208,85L208,85z"/>
	</g>
</g>
<g>
	<g>
		<path class="st2" d="M226.5,91.2c0.1,0,0.1,0,0.2,0C226.6,91.2,226.5,91.2,226.5,91.2c0.1,0,0.2,0,0.3,0c-0.1,0-0.1,0-0.2,0
			c0.1,0,0.2,0.1,0.4,0.1c-0.1,0-0.1,0-0.2-0.1c0.1,0.1,0.2,0.1,0.3,0.2c0,0-0.1-0.1-0.1-0.1c0.1,0.1,0.2,0.2,0.3,0.3
			c0,0-0.1-0.1-0.1-0.1c0,0,0,0,0,0.1c0.1,0.1,0.2,0.3,0.4,0.3c0.2,0,0.4,0,0.5-0.1c0.1-0.1,0.3-0.2,0.3-0.4c0-0.1,0-0.1,0-0.2
			c0-0.1,0-0.2-0.1-0.3c-0.2-0.4-0.6-0.7-1-0.9c-0.4-0.2-0.9-0.2-1.3-0.1c-0.2,0-0.3,0.2-0.4,0.3c-0.1,0.2-0.1,0.4-0.1,0.5
			C225.7,91.1,226.1,91.3,226.5,91.2L226.5,91.2z"/>
	</g>
</g>
<g>
	<path class="st3" d="M132.8,43.6c-0.3,0.3-0.4,0.7-0.3,1.1c0.4,0,0.9,0,1.3,0c0.6-0.6,0.4-1.9-0.5-2.2c-0.9-0.3-1.9,0.5-1.8,1.4"/>
	<g>
		<path class="st3" d="M132.4,43.1c-0.5,0.5-0.6,1.2-0.4,1.8c0.1,0.3,0.4,0.5,0.7,0.5c0.4,0,0.7,0,1.1,0c0.1,0,0.1,0,0.2,0
			c0.2,0,0.4-0.1,0.6-0.2c0.1-0.1,0.2-0.2,0.3-0.4c0.3-0.5,0.3-1.1,0.1-1.7c-0.2-0.6-0.6-1.1-1.2-1.3c-0.6-0.2-1.3-0.1-1.8,0.2
			c-0.3,0.2-0.6,0.5-0.7,0.8c-0.1,0.2-0.2,0.3-0.2,0.5c0,0.2-0.1,0.3,0,0.5c0,0.2,0.1,0.3,0.2,0.4c0.2,0.2,0.6,0.2,0.8,0
			c-0.3,0.2-0.4,0.2-0.2,0.1c0.1,0,0.1-0.1,0.2-0.1c0,0,0,0,0,0c0.2-0.2,0.2-0.3,0.2-0.6c0,0.1,0,0.1,0,0.2c0-0.1,0-0.2,0.1-0.3
			c0,0.1,0,0.1-0.1,0.2c0-0.1,0.1-0.2,0.2-0.3c0,0-0.1,0.1-0.1,0.1c0.1-0.1,0.2-0.2,0.3-0.3c0,0-0.1,0.1-0.1,0.1
			c0.1-0.1,0.2-0.2,0.4-0.2c-0.1,0-0.1,0-0.2,0.1c0.1,0,0.2-0.1,0.3-0.1c-0.1,0-0.1,0-0.2,0c0.1,0,0.2,0,0.3,0c-0.1,0-0.1,0-0.2,0
			c0.1,0,0.2,0,0.3,0.1c-0.1,0-0.1,0-0.2-0.1c0.1,0,0.2,0.1,0.2,0.1c0,0-0.1-0.1-0.1-0.1c0.1,0.1,0.2,0.1,0.2,0.2
			c0,0-0.1-0.1-0.1-0.1c0.1,0.1,0.1,0.2,0.2,0.3c0-0.1,0-0.1-0.1-0.2c0.1,0.1,0.1,0.3,0.1,0.4c0-0.1,0-0.1,0-0.2c0,0.1,0,0.3,0,0.4
			c0-0.1,0-0.1,0-0.2c0,0.1,0,0.2-0.1,0.3c0-0.1,0-0.1,0.1-0.2c0,0.1-0.1,0.2-0.2,0.3c0,0,0.1-0.1,0.1-0.1c0,0-0.1,0.1-0.1,0.1
			c0.2-0.1,0.3-0.1,0.5-0.2c-0.4,0-0.9,0-1.3,0c0.2,0.2,0.5,0.3,0.7,0.5c0-0.1,0-0.1,0-0.2c0,0.1,0,0.1,0,0.2c0-0.1,0-0.2,0-0.3
			c0,0.1,0,0.1,0,0.2c0-0.1,0-0.2,0.1-0.3c0,0.1,0,0.1-0.1,0.2c0-0.1,0.1-0.1,0.1-0.2c0-0.1,0.1-0.1,0,0c0,0,0-0.1,0.1-0.1
			c0.3-0.3,0.3-0.7,0-1C133.1,42.9,132.6,42.9,132.4,43.1L132.4,43.1z"/>
	</g>
</g>
<g>
	<path class="st3" d="M162.4,62.5c0.7,0.3,1.7-0.1,1.8-0.8c0.2-0.7-1.1-1.4-1.4-0.7"/>
	<g>
		<path class="st3" d="M162.2,63.2c0.9,0.3,2,0,2.5-0.8c0.3-0.5,0.3-1,0-1.5c-0.2-0.4-0.6-0.7-1.1-0.8c-0.2-0.1-0.5-0.1-0.8,0
			c-0.2,0.1-0.3,0.1-0.5,0.3c-0.2,0.2-0.4,0.5-0.3,0.8c0.1,0.1,0.1,0.3,0.2,0.3c0.1,0.1,0.3,0.1,0.4,0.1c0.2,0,0.4-0.1,0.5-0.2
			c0,0,0,0,0.1-0.1c0,0-0.1,0.1-0.1,0.1c0,0,0.1,0,0.1-0.1c-0.1,0-0.1,0-0.2,0.1c0,0,0.1,0,0.1,0c-0.1,0-0.1,0-0.2,0
			c0.1,0,0.1,0,0.2,0c-0.1,0-0.1,0-0.2,0c0.1,0,0.2,0,0.2,0.1c-0.1,0-0.1,0-0.2-0.1c0.1,0,0.2,0.1,0.3,0.1c0,0-0.1-0.1-0.1-0.1
			c0.1,0.1,0.1,0.1,0.2,0.2c0,0-0.1-0.1-0.1-0.1c0,0.1,0.1,0.1,0.1,0.2c0-0.1,0-0.1-0.1-0.2c0,0.1,0,0.1,0,0.2c0-0.1,0-0.1,0-0.2
			c0,0.1,0,0.1,0,0.2c0-0.1,0-0.1,0-0.2c0,0.1,0,0.1-0.1,0.2c0-0.1,0-0.1,0.1-0.2c0,0.1-0.1,0.2-0.1,0.2c0,0,0.1-0.1,0.1-0.1
			c-0.1,0.1-0.1,0.1-0.2,0.2c0,0,0.1-0.1,0.1-0.1c-0.1,0.1-0.2,0.1-0.3,0.2c0.1,0,0.1,0,0.2-0.1c-0.1,0.1-0.3,0.1-0.4,0.1
			c0.1,0,0.1,0,0.2,0c-0.2,0-0.3,0-0.5,0c0.1,0,0.1,0,0.2,0c-0.1,0-0.2,0-0.3-0.1c-0.2-0.1-0.4,0-0.5,0.1c-0.1,0.1-0.3,0.3-0.3,0.4
			C161.6,62.7,161.9,63.1,162.2,63.2L162.2,63.2z"/>
	</g>
</g>
<g>
	<g>
		<path class="st2" d="M235,103.7c-3.1,1.4-6.4,2.4-9.8,3c-0.2,0-0.1,0.4,0.1,0.4c3.4-0.6,6.7-1.6,9.9-3
			C235.4,103.9,235.2,103.6,235,103.7L235,103.7z"/>
	</g>
</g>
<g>
	<g>
		<path class="st2" d="M230.4,108.1C230.4,108.1,230.4,108.1,230.4,108.1C230.4,108.1,230.4,108.1,230.4,108.1L230.4,108.1z"/>
	</g>
</g>
<g>
	<g>
		<path class="st2" d="M234.1,110.2c-0.3,0.1-0.6,0.2-0.9,0.2c-0.3,0.1-0.6,0.2-0.9,0.3c-0.2,0.1-0.1,0.3,0.1,0.3
			c0.3-0.1,0.6-0.1,1-0.2c0.3-0.1,0.6-0.2,0.9-0.2C234.5,110.6,234.3,110.2,234.1,110.2L234.1,110.2z"/>
	</g>
</g>
<g>
	<g>
		<path class="st2" d="M217.9,139.7c-0.8,1-1.7,2-2.6,3c-0.5,0.5-0.9,0.9-1.4,1.4c-0.5,0.5-1,0.9-1.4,1.4c-0.1,0.1,0.1,0.3,0.2,0.2
			c0.5-0.3,1-0.8,1.4-1.3c0.5-0.5,1-1,1.4-1.4c0.9-1,1.8-2,2.6-3C218.4,139.8,218.1,139.5,217.9,139.7L217.9,139.7z"/>
	</g>
</g>
<g>
	<g>
		<path class="st2" d="M217,143.8c-0.6,0.5-1.1,1.1-1.7,1.6c-0.3,0.3-0.5,0.5-0.8,0.8c-0.3,0.3-0.6,0.5-0.8,0.9
			c-0.1,0.1,0.1,0.3,0.2,0.2c0.3-0.2,0.6-0.5,0.8-0.8c0.3-0.3,0.6-0.5,0.8-0.8c0.6-0.5,1.1-1.1,1.7-1.6
			C217.5,143.9,217.2,143.6,217,143.8L217,143.8z"/>
	</g>
</g>
<g>
	<g>
		<path class="st2" d="M216.5,147.2c-0.6,0.4-1.2,0.9-1.7,1.4c-0.3,0.2-0.5,0.5-0.8,0.7c-0.1,0.1-0.3,0.2-0.4,0.4
			c-0.1,0.1-0.3,0.3-0.3,0.4c0,0.1,0.1,0.2,0.2,0.2c0.2,0,0.3-0.2,0.4-0.3c0.1-0.1,0.3-0.2,0.4-0.4c0.3-0.3,0.5-0.5,0.8-0.7
			c0.5-0.5,1.1-0.9,1.7-1.4c0.1-0.1,0.1-0.2,0.1-0.3C216.7,147.2,216.5,147.1,216.5,147.2L216.5,147.2z"/>
	</g>
</g>
<g>
	<g>
		<path class="st2" d="M215.9,150.2c-0.3,0.2-0.5,0.4-0.8,0.7c-0.1,0-0.1,0.1,0,0.2c0,0.1,0.1,0.1,0.2,0c0.3-0.2,0.6-0.4,0.9-0.6
			c0.1-0.1,0.1-0.2,0.1-0.3c0,0-0.1-0.1-0.1-0.1C216,150.1,216,150.1,215.9,150.2L215.9,150.2z"/>
	</g>
</g>
<g>
	<g>
		<path class="st2" d="M225.4,133.6c-0.9,0.1-1.8,0.3-2.7,0.4c-0.5,0.1-0.9,0.2-1.4,0.3c-0.4,0.1-0.9,0.1-1.2,0.4
			c-0.1,0.1,0,0.2,0.1,0.2c0.4,0.1,0.9-0.1,1.3-0.2c0.4-0.1,0.8-0.2,1.3-0.3c0.9-0.2,1.8-0.3,2.7-0.4
			C225.7,133.9,225.7,133.5,225.4,133.6L225.4,133.6z"/>
	</g>
</g>
<g>
	<g>
		<path class="st2" d="M223.6,136.1c-0.5,0-1.1,0.1-1.6,0.2c-0.3,0.1-0.5,0.1-0.8,0.2c-0.3,0.1-0.5,0.2-0.7,0.3
			c-0.2,0.1-0.1,0.4,0.1,0.3c0.3,0,0.5-0.1,0.7-0.2c0.2-0.1,0.5-0.1,0.7-0.2c0.5-0.1,1-0.2,1.5-0.2
			C223.8,136.5,223.8,136.1,223.6,136.1L223.6,136.1z"/>
	</g>
</g>
<g>
	<g>
		<path class="st2" d="M223.8,138.3c-0.4,0-0.8,0.1-1.1,0.2c-0.2,0.1-0.4,0.1-0.5,0.2c-0.2,0.1-0.3,0.2-0.5,0.3
			c-0.1,0.1,0,0.2,0.1,0.2c0.2,0,0.3-0.1,0.5-0.2c0.2-0.1,0.3-0.1,0.5-0.2c0.3-0.1,0.7-0.1,1-0.2
			C224.1,138.8,224.1,138.3,223.8,138.3L223.8,138.3z"/>
	</g>
</g>
<g>
	<g>
		<path class="st2" d="M223.7,140.8c-0.2,0-0.4,0-0.6,0.1c0,0-0.1,0-0.1,0c0,0,0,0.1,0,0.1c0,0,0,0.1,0,0.1c0,0,0.1,0,0.1,0
			c0.2,0,0.4,0,0.6,0.1c0.1,0,0.1,0,0.2-0.1c0,0,0.1-0.1,0.1-0.2c0-0.1,0-0.1-0.1-0.2C223.8,140.8,223.7,140.8,223.7,140.8
			L223.7,140.8z"/>
	</g>
</g>
<g>
	<g>
		<path class="st2" d="M231,103c-0.7,0.8-1.7,1.2-2.7,1.4c-0.6,0.1-1.1,0.2-1.7,0.4c-0.5,0.1-1.1,0.2-1.5,0.5
			c-0.1,0.1,0,0.3,0.1,0.3c0.3,0,0.5-0.1,0.8-0.2c0.3-0.1,0.6-0.1,0.8-0.2c0.6-0.1,1.2-0.2,1.7-0.4c1-0.3,2-0.7,2.7-1.4
			C231.4,103.1,231.1,102.8,231,103L231,103z"/>
	</g>
</g>
<g>
	<g>
		<path class="st2" d="M228.8,107.4c-0.7,0-1.4,0-2,0.1c-0.3,0-0.7,0.1-1,0.2c-0.2,0-0.3,0.1-0.5,0.1c-0.2,0-0.3,0.1-0.4,0.2
			c-0.1,0.1,0,0.3,0.1,0.3c0.2,0,0.3,0,0.5-0.1c0.2,0,0.3-0.1,0.5-0.1c0.3-0.1,0.6-0.1,0.9-0.2c0.7-0.1,1.3-0.1,2-0.1
			C229.1,107.8,229.1,107.4,228.8,107.4L228.8,107.4z"/>
	</g>
</g>
<g>
	<g>
		<path class="st2" d="M228.6,109.3C228.6,109.3,228.6,109.3,228.6,109.3C228.6,109.3,228.6,109.3,228.6,109.3L228.6,109.3z"/>
	</g>
</g>
<g>
	<g>
		<path class="st2" d="M238.8,131c-0.7,0.4-1.5,0.6-2.3,0.7c-0.2,0-0.2,0.4,0.1,0.4c0.9-0.1,1.7-0.4,2.4-0.7
			c0.1-0.1,0.1-0.2,0.1-0.3C239,130.9,238.9,130.9,238.8,131L238.8,131z"/>
	</g>
</g>
<g>
	<g>
		<path class="st2" d="M170.5,153.7c-2.6-0.2-4.9,1.1-7.4,1.6c-1.4,0.3-2.8,0.3-4.2,0.6c-1.2,0.3-2.7,0.6-3.8,1.4
			c-0.1,0.1-0.1,0.3,0.1,0.3c1.3-0.3,2.5-0.9,3.8-1.2c1.3-0.3,2.7-0.4,4.1-0.6c2.5-0.4,4.9-1.9,7.5-1.6
			C170.8,154.1,170.8,153.7,170.5,153.7L170.5,153.7z"/>
	</g>
</g>
<g>
	<g>
		<path class="st2" d="M165.8,156.8c-1.5-0.3-3,0.1-4.4,0.5c-0.8,0.2-1.5,0.5-2.3,0.7c-0.4,0.1-0.8,0.2-1.2,0.2
			c-0.4,0.1-0.9,0.1-1.3,0.2c-0.2,0.1-0.1,0.3,0,0.3c0.7,0.1,1.6-0.1,2.3-0.3c0.7-0.2,1.4-0.4,2.1-0.6c1.5-0.5,3-1,4.6-0.7
			C166,157.3,166.1,156.9,165.8,156.8L165.8,156.8z"/>
	</g>
</g>
<g>
	<g>
		<path class="st2" d="M165.2,158.7c-1.1,0.3-2.3,0.5-3.4,0.8c-0.6,0.1-1.1,0.3-1.7,0.4c-0.5,0.1-1,0.2-1.4,0.5
			c-0.2,0.2,0,0.5,0.2,0.4c0.4-0.3,1-0.3,1.4-0.4c0.6-0.1,1.1-0.3,1.7-0.4c1.1-0.3,2.2-0.5,3.3-0.8
			C165.6,159.1,165.5,158.7,165.2,158.7L165.2,158.7z"/>
	</g>
</g>
<g>
	<g>
		<path class="st2" d="M164.6,160.6c-0.8,0.3-1.7,0.5-2.5,0.6c-0.4,0.1-0.8,0.1-1.2,0.2c-0.2,0-0.5,0.1-0.7,0.1
			c-0.2,0-0.4,0-0.6,0.1c-0.1,0.1-0.1,0.3,0,0.3c0.2,0.1,0.4,0,0.6,0c0.2,0,0.4-0.1,0.6-0.1c0.4-0.1,0.9-0.1,1.3-0.2
			c0.9-0.2,1.7-0.4,2.6-0.6C165,160.9,164.9,160.5,164.6,160.6L164.6,160.6z"/>
	</g>
</g>
<g>
	<g>
		<path class="st2" d="M173.4,91c0,0.5-0.1,1-0.1,1.6c0,0.5,0,1,0,1.6c0,0.1,0.1,0.2,0.1,0.2c0,0,0.1,0,0.1,0c0.1,0,0.1-0.1,0.1-0.2
			c0-0.5,0-1,0-1.6c0-0.5,0-1,0.1-1.6C173.9,90.8,173.4,90.8,173.4,91L173.4,91z"/>
	</g>
</g>
<g>
	<g>
		<path class="st2" d="M175.3,90.5c-0.1,0.8-0.2,1.7-0.2,2.5c0,0.3-0.1,0.6,0,0.9c0.1,0.2,0.3,0.5,0.6,0.4c0.2,0,0.2-0.2,0-0.3
			c-0.1-0.1-0.1-0.1-0.2-0.2c0-0.1-0.1-0.2-0.1-0.3c0-0.3,0-0.6,0.1-0.9c0.1-0.7,0.1-1.4,0.2-2.1C175.7,90.3,175.3,90.3,175.3,90.5
			L175.3,90.5z"/>
	</g>
</g>
<g>
	<g>
		<path class="st2" d="M177.5,91.9c0.1,0.4,0.1,0.9,0.1,1.3c0,0.2,0,0.4-0.1,0.7c0,0.2-0.2,0.5,0,0.6c0,0,0.1,0.1,0.1,0
			c0.2-0.1,0.2-0.4,0.3-0.6c0-0.2,0.1-0.5,0.1-0.7c0-0.5,0-1-0.1-1.4C177.8,91.6,177.4,91.7,177.5,91.9L177.5,91.9z"/>
	</g>
</g>
<g>
	<g>
		<path class="st2" d="M179.6,93.2c0,0.2,0.1,0.3,0.1,0.5c0,0,0,0,0,0C179.7,93.6,179.7,93.4,179.6,93.2
			C179.6,93.2,179.6,93.2,179.6,93.2L179.6,93.2z"/>
	</g>
</g>
<g>
	<g>
		<path class="st2" d="M182.8,93.5C182.8,93.5,182.8,93.5,182.8,93.5C182.8,93.5,182.8,93.5,182.8,93.5L182.8,93.5z"/>
	</g>
</g>
<g>
	<g>
		<path class="st2" d="M187.4,93.5C187.4,93.5,187.4,93.5,187.4,93.5C187.3,93.5,187.3,93.5,187.4,93.5L187.4,93.5z"/>
	</g>
</g>
<g>
	<g>
		<path class="st2" d="M14.4,46.3c0,0.6-0.1,1.3-0.1,1.9c0,0.6-0.1,1.3-0.1,1.9c0,0.2,0.3,0.2,0.3,0c0.1-0.6,0.1-1.3,0.2-2
			c0-0.7,0.1-1.3,0.1-2C14.8,46,14.4,46,14.4,46.3L14.4,46.3z"/>
	</g>
</g>
<g>
	<g>
		<path class="st2" d="M17.4,46c-0.1,1.2-0.1,2.3-0.2,3.5c0,0.6,0,1.1-0.1,1.7c0,0.3,0,0.6,0,0.9c0,0.3-0.1,0.5,0.1,0.7
			c0,0.1,0.2,0.1,0.2,0c0.1-0.2,0.1-0.5,0.1-0.7c0-0.3,0-0.5,0-0.8c0-0.6,0-1.2,0.1-1.8c0-1.2,0.1-2.3,0.1-3.5
			C17.9,45.8,17.5,45.8,17.4,46L17.4,46z"/>
	</g>
</g>
<g>
	<g>
		<path class="st2" d="M21.5,52.1C21.5,52.1,21.5,52.1,21.5,52.1C21.5,52.1,21.5,52.1,21.5,52.1L21.5,52.1z"/>
	</g>
</g>
<g>
	<g>
		<path class="st2" d="M25,54.1c0.1,0.2,0.2,0.4,0.2,0.6c0,0,0,0.1,0.1,0.1c0,0,0.1,0,0.1,0c0.1,0,0.1-0.1,0.1-0.2
			c-0.1-0.2-0.1-0.4-0.2-0.7c0-0.1-0.1-0.2-0.2-0.1C25,53.9,24.9,54,25,54.1L25,54.1z"/>
	</g>
</g>
<g>
	<g>
		<path class="st2" d="M28.1,57c0.2,0.1,0.3,0.2,0.5,0.4c0,0,0,0,0,0c0,0,0,0,0.1,0c0,0,0.1,0,0.1,0c0,0,0,0,0-0.1c0,0,0-0.1,0-0.1
			c-0.1-0.2-0.2-0.3-0.4-0.5c0,0,0-0.1-0.1-0.1c0,0-0.1,0-0.1,0c-0.1,0-0.1,0-0.2,0.1c0,0-0.1,0.1-0.1,0.2C28,56.9,28,56.9,28.1,57
			C28,57,28.1,57,28.1,57L28.1,57z"/>
	</g>
</g>
<g>
	<g>
		<path class="st2" d="M17.6,38.5c0,0.9,0,1.8,0,2.6c0,0.4,0,0.9,0,1.3c0,0.2,0,0.4,0,0.6c0,0.2,0,0.4,0,0.7c0.1,0.2,0.3,0.2,0.3,0
			c0.1-0.2,0-0.4,0-0.7c0-0.2,0-0.4,0-0.6c0-0.4,0-0.9,0-1.3c0-0.9,0-1.8,0-2.6C18,38.2,17.6,38.2,17.6,38.5L17.6,38.5z"/>
	</g>
</g>
<g>
	<g>
		<path class="st2" d="M20.7,35.6c-0.2,1.2-0.3,2.4-0.4,3.6c0,0.6-0.1,1.2-0.1,1.8c0,0.6-0.1,1.2,0,1.8c0,0.2,0.3,0.2,0.3,0
			c0.1-0.5,0-1.2,0-1.7c0-0.6,0-1.2,0.1-1.8c0.1-1.2,0.2-2.4,0.4-3.6C21.1,35.5,20.7,35.3,20.7,35.6L20.7,35.6z"/>
	</g>
</g>
<g>
	<g>
		<path class="st2" d="M23,35.2c0,0.8,0,1.6,0,2.4c0,0.2,0.3,0.2,0.3,0c0-0.8,0-1.6,0-2.4C23.4,35,23,35,23,35.2L23,35.2z"/>
	</g>
</g>
<g>
	<g>
		<path class="st2" d="M25.8,36.2c0.2,1.3,0.2,2.5,0.2,3.8c0,0.2,0.3,0.2,0.3,0c0.1-1.3,0-2.7-0.2-3.9
			C26.2,35.8,25.8,35.9,25.8,36.2L25.8,36.2z"/>
	</g>
</g>
<g>
	<g>
		<path class="st2" d="M93.9,56.3c0.1,0.7,0.2,1.5,0.1,2.3c0,0.4-0.1,0.8-0.2,1.1c-0.1,0.4-0.3,0.7-0.4,1.1c0,0.1,0.2,0.3,0.3,0.2
			c0.2-0.3,0.4-0.7,0.5-1.1c0.1-0.4,0.2-0.8,0.2-1.2c0.1-0.8,0.1-1.6-0.1-2.4C94.2,55.9,93.9,56,93.9,56.3L93.9,56.3z"/>
	</g>
</g>
<g>
	<g>
		<path class="st2" d="M92.4,62C92.4,62,92.4,62,92.4,62C92.4,62,92.4,62,92.4,62L92.4,62z"/>
	</g>
</g>
<g>
	<g>
		<path class="st2" d="M114,91.9c0,0.4,0,0.7,0,1.1c0,0.2,0,0.4,0,0.5c0,0.2,0,0.5,0.2,0.5c0.2,0,0.2-0.3,0.2-0.5c0-0.2,0-0.4,0-0.5
			c0-0.4,0-0.7,0-1.1C114.5,91.6,114,91.6,114,91.9L114,91.9z"/>
	</g>
</g>
<g>
	<g>
		<path class="st2" d="M116.6,91.7C116.6,91.7,116.7,91.7,116.6,91.7C116.7,91.7,116.7,91.7,116.6,91.7
			C116.7,91.7,116.7,91.7,116.6,91.7c0.1,0.1,0.1,0.1,0.1,0.1c0,0,0,0,0,0c0,0,0,0,0,0.1c0,0,0,0.1,0,0.1c0,0,0,0,0,0c0,0,0,0,0,0
			c0,0,0,0,0,0.1c0,0,0,0.1,0,0.1c0,0.1,0,0.2,0,0.3c0.1,0.3,0.4,0.6,0.7,0.6c0.1,0,0.2,0,0.3-0.1c0.1-0.1,0.1-0.2,0.1-0.3
			c0-0.1-0.2-0.1-0.2-0.1c0,0,0,0,0,0c0,0,0,0,0,0c0,0,0,0,0,0c0,0,0,0,0,0c0,0,0,0-0.1,0c0,0,0,0,0,0c0,0,0,0,0,0c0,0,0,0,0,0
			c0,0-0.1,0,0,0c0,0,0,0,0,0c0,0,0,0,0,0c0,0,0,0,0,0c0,0,0,0,0,0c0,0,0,0,0,0c0,0-0.1,0-0.1,0c0,0,0,0,0,0c0,0,0,0,0,0
			c0,0,0,0,0,0c0,0,0,0,0,0c0,0,0,0,0,0c0,0,0-0.1,0-0.1c0,0,0,0,0,0c0,0,0,0,0,0c0,0,0,0,0,0c0,0,0,0,0-0.1c0,0,0,0,0,0
			c0,0,0-0.1,0,0c0,0,0,0,0,0c0,0,0,0,0-0.1c0,0,0-0.1,0-0.1c0-0.1,0-0.2,0-0.3c0-0.2-0.1-0.4-0.3-0.5c-0.1-0.1-0.2,0-0.3,0.1
			C116.5,91.5,116.5,91.6,116.6,91.7L116.6,91.7z"/>
	</g>
</g>
<g>
	<g>
		<path class="st2" d="M120.3,87.1c0,0.6-0.1,1.2-0.1,1.9c0,0.3,0,0.6-0.1,0.9c0,0.1,0,0.3,0,0.4c0,0.2,0,0.3,0,0.5
			c0.1,0.1,0.2,0.2,0.3,0c0.1-0.1,0.1-0.3,0.1-0.4c0-0.1,0-0.3,0-0.4c0-0.3,0-0.6,0.1-1c0-0.6,0.1-1.3,0.1-1.9
			C120.8,86.9,120.4,86.9,120.3,87.1L120.3,87.1z"/>
	</g>
</g>
<g>
	<g>
		<path class="st2" d="M122.9,85.2c0,0.3,0,0.6,0,0.9c0,0.1,0.1,0.2,0.2,0.2c0.1,0,0.2-0.1,0.2-0.2c0-0.3,0-0.6,0-0.9
			c0-0.1-0.1-0.2-0.2-0.2C123,85,122.9,85.1,122.9,85.2L122.9,85.2z"/>
	</g>
</g>
<g>
	<g>
		<path class="st2" d="M127,91.2C127,91.2,127,91.2,127,91.2C127,91.2,127,91.2,127,91.2L127,91.2z"/>
	</g>
</g>
<g>
	<g>
		<path class="st2" d="M131.6,91.8c0.2,0.1,0.3,0.3,0.5,0.4c0,0,0.1,0.1,0.1,0.1c0,0,0.1,0,0.1-0.1c0,0,0.1-0.1,0.1-0.1
			c0,0,0-0.1-0.1-0.1c-0.1-0.2-0.3-0.3-0.4-0.5c0,0-0.1-0.1-0.2-0.1c-0.1,0-0.1,0-0.2,0.1c0,0-0.1,0.1-0.1,0.2
			C131.5,91.7,131.6,91.8,131.6,91.8L131.6,91.8z"/>
	</g>
</g>
<g>
	<g>
		<path class="st2" d="M136.7,90.4C136.7,90.4,136.7,90.4,136.7,90.4C136.7,90.4,136.7,90.4,136.7,90.4L136.7,90.4z"/>
	</g>
</g>
<g>
	<g>
		<path class="st2" d="M139.4,89.9c0.1,0.1,0.2,0.2,0.3,0.3c0.1,0.1,0.1,0.1,0.2,0.2c0,0,0.1,0.1,0.1,0.1c0,0,0.1,0,0.1,0.1
			c0.1,0,0.2,0,0.2,0c0.1-0.1,0.1-0.1,0-0.2c0,0,0-0.1-0.1-0.1c0,0-0.1-0.1-0.1-0.1c-0.1-0.1-0.1-0.1-0.2-0.2
			c-0.1-0.1-0.2-0.2-0.3-0.3c-0.1-0.1-0.2-0.1-0.3,0C139.3,89.7,139.3,89.8,139.4,89.9L139.4,89.9z"/>
	</g>
</g>
</svg>
