<?xml version="1.0" encoding="utf-8"?>
<!-- Generator: Adobe Illustrator 28.3.0, SVG Export Plug-In . SVG Version: 6.00 Build 0)  -->
<svg version="1.1" id="Layer_1" xmlns="http://www.w3.org/2000/svg" xmlns:xlink="http://www.w3.org/1999/xlink" x="0px" y="0px"
	 viewBox="0 0 289.2 58.3" style="enable-background:new 0 0 289.2 58.3;" xml:space="preserve">
<style type="text/css">
	.st0{fill:#96D0ED;}
	.st1{fill:#BEE3F8;}
	.st2{fill:#056C64;}
	.st3{fill:#FFFFFF;}
</style>
<path class="st0" d="M250.4,19.6c0.2,1.5,0,2.9-0.3,4.3c0.7-0.1,1.3,0.5,1.4,1.2c0.2,0.7,0,1.3-0.2,2c-0.9,3.9-1.8,7.7-2.8,11.5
	c-0.4,1.6-0.8,3.2-1.7,4.6c-0.7,1.2-1.7,2.2-2.6,3.2c-1.9,2-3.8,4-5.6,6.1c-1.4,1.5-2.8,3-4.6,3.7c-2.6,1-5.8,0.4-8.2,1.9h-96.5
	c-4.1-1.2-8.3-1.4-12.6-1.7c-7.6-0.5-15.2-2.2-22.2-5.2c-1.1-0.5-2.2-1-3-1.9c-0.7-0.8-1.1-1.9-1.6-2.9c-1.3-3.1-3.2-5.9-4.5-8.9
	c-1.3-3.1-2.1-6.6-1-9.7c8.4-2.5,16.8-5.1,25.2-7.6c0.4-0.1,0.7-0.2,1-0.5c0.3-0.4,0.2-0.9,0.2-1.3c-0.5-3.3-0.9-6.7-1.4-10
	c19.8,0.5,39.6,1.3,59.3,3c19.8,1.7,39.6,4.3,59.3,7.4c7.7,1.2,15.4-0.1,23.2,0.1C250.7,19.1,250.6,19.4,250.4,19.6z"/>
<path class="st1" d="M140.2,3.6c16.8-1.1,33.7,0.3,50.5,1.7c9.2,0.8,18.3,1.6,27.5,2.4c4.7,0.4,9.4,0.8,13.8,2.4
	c2.4,0.8,4.7,2,6.9,3.1c3.8,1.9,7.6,3.8,11.4,5.8c-5,0.1-10,1.1-14.6,3c5.6,0.1,11.1,0.4,16.2,3.1c-2.3,3.3-4.3,6.1-7.9,8.1
	c-1.6,0.9-3.3,1.4-5,1.9c-11.3,3.2-23.1,4.3-34.8,3.9c-5.1-0.2-10.4-0.6-15.4,0.4c-2.7,0.5-5.4,1.5-8.1,1.7c-3,0.2-5.9-0.4-8.8-1.1
	c-5.1-1.1-10.2-2.3-15.3-3.4c-5.3-1.2-11-2.3-16.1-0.5c-1.7,0.6-3.3,1.6-5.1,2c-2.5,0.6-5.1,0-7.7-0.6c-14.3-3.2-28.6-6.4-42.9-9.6
	c15.7-5.3,31.7-9.8,47.9-13.5c-4.3-1.1-8.6-2.3-12.9-3.4c-2.2-0.6-14.5-1.7-10-4.2c3.2-1.8,13.7-1.4,17.3-1.9
	C131.4,4.4,135.8,3.9,140.2,3.6z"/>
<g>
	<g>
		<path class="st2" d="M146.9,2.5c-2.5,0-5,0.1-7.5,0.3c-1.2,0.1-2.3,0.2-3.5,0.4c-1.2,0.2-2.5,0.3-3.6,0.9
			c-0.4,0.2-0.2,0.8,0.2,0.8c1.1,0.1,2.3-0.2,3.5-0.3c1.2-0.2,2.4-0.3,3.7-0.4c2.4-0.2,4.8-0.3,7.2-0.3
			C147.8,3.9,147.8,2.5,146.9,2.5L146.9,2.5z"/>
	</g>
</g>
<g>
	<g>
		<path class="st2" d="M129.9,4.6c-0.8-0.2-1.6-0.3-2.5-0.4c-0.4,0-0.8,0-1.2,0c-0.4,0-1.1,0-1.4,0.5c-0.1,0.2-0.1,0.5,0.1,0.7
			c0.4,0.3,0.9,0.2,1.3,0.2c0.4,0,0.7,0,1.1,0c0.8,0,1.4,0.1,2.1,0.3c0.3,0.1,0.7-0.1,0.8-0.5C130.5,5,130.3,4.7,129.9,4.6
			L129.9,4.6z"/>
	</g>
</g>
<g>
	<g>
		<path class="st2" d="M122.3,5.2c-2.9,0.3-5.8,0.6-8.8,0.9c-1.4,0.2-2.9,0.3-4.3,0.5c-0.9,0.1-2,0.4-1.9,1.5c0.1,0.8,1.2,0.8,1.2,0
			c-0.1,0.1-0.1,0.1,0.1,0c0.1,0,0.2-0.1,0.2-0.1c0.3-0.1,0.6-0.1,0.9-0.1c0.6-0.1,1.1-0.1,1.7-0.2c1.2-0.2,2.4-0.3,3.6-0.4
			c2.4-0.3,4.8-0.5,7.2-0.8C123.2,6.4,123.2,5.1,122.3,5.2L122.3,5.2z"/>
	</g>
</g>
<g>
	<g>
		<path class="st2" d="M108.3,9.2c7.6,2,15.1,4,22.7,5.8c0.9,0.2,1.2-1.1,0.4-1.4c-7.5-2-15.1-3.9-22.7-5.8
			C107.8,7.7,107.5,9,108.3,9.2L108.3,9.2z"/>
	</g>
</g>
<g>
	<g>
		<path class="st2" d="M134.5,15.2c-1.5-0.1-3-0.1-4.5,0c-0.7,0-1.5,0.1-2.2,0.1c-0.4,0-0.8,0.1-1.1,0.1c-0.4,0-0.7,0.1-0.9,0.5
			c-0.1,0.2-0.1,0.4,0.1,0.6c0.2,0.3,0.6,0.3,1,0.3c0.4,0,0.8-0.1,1.1-0.1c0.7-0.1,1.4-0.1,2.1-0.1c1.5-0.1,2.9,0,4.4,0
			C135.3,16.6,135.3,15.3,134.5,15.2L134.5,15.2z"/>
	</g>
</g>
<g>
	<g>
		<path class="st2" d="M124.6,15.8c-6.7,2.3-13.4,4.2-20.3,5.9c-6.8,1.7-13.8,3-20.4,5.5c-0.7,0.3-0.4,1.3,0.3,1.1
			c6.8-1.8,13.6-3.6,20.4-5.2c6.8-1.7,13.6-3.6,20.2-6C125.7,16.8,125.4,15.5,124.6,15.8L124.6,15.8z"/>
	</g>
</g>
<g>
	<g>
		<path class="st2" d="M84.1,28.6c14,3.9,28.2,7.1,42.5,9.4c0.9,0.1,1.3-1.2,0.4-1.4c-14.3-2.4-28.6-5.4-42.6-9.2
			C83.6,27.2,83.3,28.4,84.1,28.6L84.1,28.6z"/>
	</g>
</g>
<g>
	<g>
		<path class="st2" d="M130.2,39.2c1.5-0.4,2.9,0.5,4.4,0.3c1.5-0.2,2.5-1.6,3.8-2.3c1.4-0.7,3-0.9,4.6-0.9c0.8,0,1.6,0,2.4,0.1
			c0.8,0.1,1.6,0.2,2.4,0.1c0.5-0.1,0.6-0.9,0.1-1.1c-1.4-0.6-3.3-0.6-4.7-0.6c-1.6,0-3.2,0.2-4.7,0.8c-0.7,0.3-1.3,0.6-1.9,1
			c-0.6,0.5-1.2,1.2-2,1.4c-0.8,0.2-1.7-0.1-2.5-0.2c-0.8-0.1-1.5-0.2-2.3,0C129,38.1,129.4,39.4,130.2,39.2L130.2,39.2z"/>
	</g>
</g>
<g>
	<g>
		<path class="st2" d="M155,38.1c4.4,0.7,8.7,1.4,13.1,2.2c4.4,0.8,8.7,1.8,13,2.5c0.8,0.1,1.2-1.1,0.4-1.3c-4.3-1.1-8.7-1.8-13-2.6
			c-4.4-0.8-8.7-1.4-13.1-2.1C154.6,36.8,154.2,38,155,38.1L155,38.1z"/>
	</g>
</g>
<g>
	<g>
		<path class="st2" d="M183.7,41.9c3.2-1.6,6.9-1.8,10.4-1.8c3.9-0.1,7.8-0.1,11.7-0.2c3.9-0.1,7.9-0.1,11.8-0.2
			c3.8-0.1,7.7,0,11.5-0.5c0.9-0.1,0.9-1.5,0-1.4c-8,0.7-16.2,0.5-24.3,0.6c-4,0.1-8,0.1-12,0.2c-3.4,0.1-6.8,0.5-9.9,2
			C182.2,41.1,182.9,42.3,183.7,41.9L183.7,41.9z"/>
	</g>
</g>
<g>
	<g>
		<path class="st2" d="M232.8,38c3.3-2.4,7.6-1.3,11.3-2.6c2-0.7,3.2-2.3,4.5-3.9c0.8-0.9,1.5-1.9,2.3-2.8c0.7-0.9,1.6-1.7,2-2.7
			c0.2-0.5-0.5-1-0.9-0.7c-0.9,0.6-1.5,1.6-2.1,2.4c-0.7,0.9-1.5,1.9-2.2,2.8c-0.6,0.8-1.3,1.7-2,2.4c-0.8,0.8-1.8,1.2-2.8,1.4
			c-3.5,0.8-7.5,0.2-10.6,2.5C231.4,37.4,232.1,38.5,232.8,38L232.8,38z"/>
	</g>
</g>
<g>
	<g>
		<path class="st2" d="M251.8,24.1c-5.8-1.5-11.7-2.6-17.7-3.4c-0.7-0.1-0.9,0.8-0.5,1.2c0.3,0.3,0.5,0.5,0.8,0.6
			c0.4,0.2,0.8-0.3,0.7-0.7c-0.1-0.4-0.3-0.6-0.5-0.9c-0.2,0.4-0.3,0.8-0.5,1.2c5.8,0.8,11.6,1.9,17.4,3.2
			C252.3,25.5,252.6,24.3,251.8,24.1L251.8,24.1z"/>
	</g>
</g>
<g>
	<g>
		<path class="st2" d="M235.1,22c2.4-0.2,4.9-0.5,7.3-0.9c2.8-0.4,5.6-0.6,8.4-1.2c0.8-0.2,0.6-1.4-0.2-1.4
			c-2.7,0.2-5.5,0.7-8.2,1.1c-2.4,0.3-4.8,0.7-7.2,0.9C234.2,20.7,234.2,22.1,235.1,22L235.1,22z"/>
	</g>
</g>
<g>
	<g>
		<path class="st2" d="M251.4,18.4c-1.3-1.3-2.9-2-4.6-2.7c-0.9-0.4-1.8-0.7-2.8-1c-1-0.4-2-0.8-3-1c-0.7-0.2-1.2,0.9-0.5,1.2
			c0.9,0.4,1.8,0.7,2.7,1c0.9,0.3,1.8,0.7,2.7,1c1.6,0.6,3.2,1.3,4.5,2.4C251.1,19.8,252,19,251.4,18.4L251.4,18.4z"/>
	</g>
</g>
<g>
	<g>
		<path class="st2" d="M239,12.7c-0.2,0-0.5,0-0.7,0c-0.1,0-0.2,0-0.4,0c-0.2,0-0.4,0-0.6,0.1c-0.2,0.1-0.3,0.3-0.3,0.6
			c0,0.2,0.1,0.4,0.3,0.6c0.2,0.1,0.4,0.1,0.6,0.1c0.1,0,0.2,0,0.4,0c0.2,0,0.5,0,0.7,0c0.2,0,0.3-0.1,0.5-0.2
			c0.1-0.1,0.2-0.3,0.2-0.5C239.7,13,239.4,12.7,239,12.7L239,12.7z"/>
	</g>
</g>
<g>
	<g>
		<path class="st2" d="M237.1,11.9c-0.4-0.6-0.8-1-1.4-1.4c-0.2-0.2-0.5-0.3-0.7-0.4c-0.2-0.1-0.3-0.2-0.5-0.2
			c-0.2-0.1-0.4-0.2-0.6-0.1c-0.3,0-0.5,0.1-0.6,0.4c-0.1,0.2-0.1,0.6,0.1,0.8c0.1,0.1,0.3,0.2,0.4,0.2c0.1,0,0.1,0,0.2,0.1
			c0.1,0,0.1,0,0.2,0.1c0.1,0.1-0.1-0.1,0,0c0,0,0.1,0,0.1,0c0.2,0.1,0.5,0.3,0.7,0.4c0,0,0,0,0.1,0.1c0,0,0.1,0.1,0,0
			c-0.1-0.1,0,0,0,0c0,0,0,0,0.1,0.1c0.1,0.1,0.2,0.2,0.3,0.3c0.1,0.1,0.2,0.2,0.3,0.3c0,0,0,0.1,0.1,0.1c0.1,0.1-0.1-0.1,0,0
			c0,0.1,0.1,0.1,0.1,0.2c0.2,0.3,0.6,0.5,1,0.3C237.2,12.7,237.4,12.3,237.1,11.9L237.1,11.9z"/>
	</g>
</g>
<g>
	<g>
		<path class="st2" d="M232.3,9.2c-4.7-0.5-9.3-1.1-14-1.6c-0.9-0.1-0.9,1.3,0,1.4c4.7,0.5,9.3,1.1,14,1.6
			C233.2,10.7,233.1,9.3,232.3,9.2L232.3,9.2z"/>
	</g>
</g>
<g>
	<g>
		<path class="st2" d="M108.1,8.3c0.7,1.9,1,3.8,1.2,5.8c0.1,1,0.2,2,0.3,3c0.1,0.9,0,2.1,0.6,2.8c0.2,0.3,0.7,0.2,0.9-0.1
			c0.2-0.5,0.1-0.9,0.1-1.4c-0.1-0.5-0.1-1-0.2-1.5c-0.1-1-0.2-2.1-0.4-3.1c-0.3-2-0.6-4-1.3-5.9C109.2,7.1,107.8,7.5,108.1,8.3
			L108.1,8.3z"/>
	</g>
</g>
<g>
	<g>
		<path class="st2" d="M83.5,28.5c0.4,2.2,0.7,4.5,1.1,6.7c0.2,1.1,0.4,2.2,0.6,3.4c0.1,0.5,0.2,1,0.3,1.6c0.1,0.5,0.1,1.2,0.5,1.6
			c0.3,0.4,0.9,0.4,1-0.1c0.2-0.5,0-1.1-0.1-1.6c-0.1-0.5-0.2-1-0.3-1.6c-0.2-1.2-0.4-2.3-0.6-3.5c-0.4-2.3-0.8-4.6-1.2-6.8
			C84.7,27.3,83.4,27.6,83.5,28.5L83.5,28.5z"/>
	</g>
</g>
<g>
	<g>
		<path class="st2" d="M86.6,43c0.8,0.8,1.7,1.4,2.5,2.3c0.3,0.3,0.6,0.7,0.8,1.2c0.2,0.4,0.3,0.9,0.2,1.3c-0.1,0.4,0.1,0.7,0.5,0.8
			c0.4,0.1,0.8-0.1,0.8-0.5c0.3-1.3-0.2-2.6-1-3.6c-0.8-1-1.9-1.6-2.8-2.5C86.9,41.5,86,42.3,86.6,43L86.6,43z"/>
	</g>
</g>
<g>
	<g>
		<path class="st2" d="M128.9,39.1c0.4,1,0.7,2,1,3.1c0.1,0.5,0.3,1,0.4,1.5c0.1,0.3,0.1,0.5,0.2,0.8c0,0.1,0,0.2,0.1,0.3
			c0.1,0.2,0.2,0.3,0.3,0.5c0.1,0.2,0.4,0.3,0.6,0.2c0.2-0.1,0.3-0.3,0.4-0.5c0-0.1,0-0.2,0-0.2c0,0.1-0.1,0.2-0.1,0.3
			c0.1-0.2,0.2-0.4,0.2-0.7c0-0.1,0-0.2-0.1-0.3c-0.1-0.3-0.1-0.5-0.2-0.8c-0.1-0.5-0.2-1-0.4-1.5c-0.3-1-0.6-2.1-1-3.1
			c-0.1-0.3-0.5-0.6-0.8-0.5C129,38.4,128.7,38.8,128.9,39.1L128.9,39.1z"/>
	</g>
</g>
<g>
	<g>
		<path class="st2" d="M140.2,36.8c0.3,0.7,0.3,1.5,0.1,2.3c-0.2,0.8-0.8,1.4-1.4,1.9c-0.6,0.6-1.1,1.2-1.5,1.9
			c-0.2,0.3-0.4,0.7-0.5,1.1c-0.1,0.5-0.1,0.9,0.3,1.2c0.1,0.1,0.4,0.1,0.6,0c0.4-0.3,0.3-0.7,0.5-1.1c0.1-0.4,0.3-0.7,0.5-1
			c0.5-0.7,1.1-1.2,1.7-1.8c1.1-1.4,1.6-3.1,1-4.8c-0.1-0.3-0.4-0.6-0.8-0.5C140.4,36.1,140.1,36.5,140.2,36.8L140.2,36.8z"/>
	</g>
</g>
<g>
	<g>
		<path class="st2" d="M250.3,18.6c-0.2,0.7-0.4,1.5-0.5,2.2c-0.1,0.4-0.2,0.7-0.3,1.1c-0.1,0.4-0.2,0.7-0.3,1.1
			c-0.1,0.4,0.1,0.8,0.5,0.8c0.4,0.1,0.7-0.1,0.8-0.5c0.1-0.4,0.2-0.7,0.3-1.1c0.1-0.4,0.2-0.7,0.3-1.1c0.2-0.7,0.3-1.5,0.5-2.2
			c0.1-0.3-0.1-0.8-0.5-0.8C250.8,18.1,250.4,18.3,250.3,18.6L250.3,18.6z"/>
	</g>
</g>
<g>
	<g>
		<path class="st2" d="M250.9,25.5c-0.9,3-1.7,6-2.4,9c-0.6,2.9-0.9,6-2.1,8.7c-0.4,0.8,0.8,1.5,1.2,0.7c1.4-2.6,1.6-5.8,2.2-8.7
			c0.7-3.1,1.4-6.3,2.3-9.4C252.3,25,251.1,24.7,250.9,25.5L250.9,25.5z"/>
	</g>
</g>
<g>
	<g>
		<path class="st2" d="M245.7,44.4c-0.5,0.4-0.9,0.8-1.3,1.2c-0.2,0.3-0.4,0.5-0.6,0.8c-0.1,0.2-0.2,0.3-0.3,0.5c0,0.2,0,0.4,0,0.6
			c0,0.2,0.3,0.4,0.5,0.3c0.2-0.1,0.3-0.2,0.5-0.3c0.1-0.1,0.2-0.3,0.3-0.4c0.1-0.1,0.2-0.2,0.3-0.4c0-0.1,0.1-0.1,0.1-0.2
			c0,0.1-0.1,0.1,0,0c0,0,0-0.1,0.1-0.1c0.4-0.4,0.8-0.9,1.2-1.2c0.1-0.1,0.2-0.3,0.2-0.5c0-0.2-0.1-0.4-0.2-0.5
			c-0.1-0.1-0.3-0.2-0.5-0.2C246,44.2,245.8,44.3,245.7,44.4L245.7,44.4z"/>
	</g>
</g>
<g>
	<g>
		<path class="st2" d="M243.7,35.8c-0.1,0.9-0.2,1.8-0.4,2.6c-0.1,0.4-0.2,0.9-0.3,1.3c-0.1,0.4-0.4,1-0.3,1.4
			c0.1,0.3,0.5,0.5,0.8,0.3c0.4-0.3,0.5-1,0.7-1.4c0.1-0.4,0.3-0.9,0.4-1.3c0.3-1,0.4-1.9,0.5-2.9c0-0.4-0.3-0.7-0.7-0.7
			C243.9,35.1,243.7,35.4,243.7,35.8L243.7,35.8z"/>
	</g>
</g>
<g>
	<g>
		<path class="st2" d="M241.9,42.9c0,1.5-0.6,2.9-1.2,4.2c-0.6,1.4-1.3,3-1.1,4.5c0.1,0.3,0.4,0.5,0.7,0.5c0.3-0.1,0.5-0.3,0.6-0.7
			c0-0.3,0-0.7,0.1-1c0.1-0.4,0.2-0.7,0.3-1.1c0.2-0.7,0.5-1.4,0.8-2.1c0.6-1.4,1.2-2.8,1.2-4.4C243.2,42.1,241.8,42.1,241.9,42.9
			L241.9,42.9z"/>
	</g>
</g>
<g>
	<g>
		<path class="st2" d="M243,47.3c-0.2,0.2-0.3,0.3-0.5,0.5c-0.1,0.1-0.2,0.3-0.3,0.5c-0.1,0.2-0.2,0.4-0.2,0.6
			c0,0.2,0.1,0.4,0.2,0.6c0.1,0.1,0.2,0.1,0.4,0.1c0.1,0,0.2,0,0.3-0.1c0.1,0,0.1-0.1,0.2-0.2c0.1-0.1,0.2-0.2,0.2-0.4
			c0,0.1,0,0.1-0.1,0.2c0.1-0.2,0.2-0.4,0.3-0.6c0,0-0.1,0.1-0.1,0.1c0.1-0.1,0.2-0.3,0.4-0.4c0.1-0.1,0.2-0.3,0.2-0.5
			c0-0.2-0.1-0.4-0.2-0.5c-0.1-0.1-0.3-0.2-0.5-0.2c-0.1,0-0.1,0-0.2,0C243.1,47.2,243,47.2,243,47.3L243,47.3z"/>
	</g>
</g>
<g>
	<g>
		<path class="st2" d="M6.4,10.7c26.9,0.2,53.8,0.1,80.7,0c7.4,0,14.9,0.2,22.3-0.1c0.9,0,0.9-1.3,0-1.4c-6.6-0.2-13.3-0.1-19.9-0.1
			c-6.7,0-13.5,0-20.2,0c-13.5,0-27,0-40.6,0c-7.4,0-14.9,0-22.3,0C5.6,9.3,5.6,10.6,6.4,10.7L6.4,10.7z"/>
	</g>
</g>
<g>
	<g>
		<path class="st2" d="M234.1,10.4c9.5,0.1,19,0.1,28.6,0c5,0,10.1,0.3,15.1-0.1c0.9-0.1,0.9-1.3,0-1.4c-4.6-0.3-9.4-0.1-14-0.1
			c-2,0-4,0-6,0c-2.8,0-5.7,0-8.5,0c-5,0-10.1,0-15.1,0C233.2,9.1,233.2,10.4,234.1,10.4L234.1,10.4z"/>
	</g>
</g>
<g>
	<g>
		<path class="st2" d="M90.4,49.1c0.1,0.2,0.2,0.3,0.2,0.5c0-0.1,0-0.1-0.1-0.2c0.1,0.3,0.2,0.5,0.3,0.8c0,0.1,0.1,0.3,0.1,0.4
			c0,0.1,0,0.1,0.1,0.2c0.1,0.2,0.2,0.4,0.4,0.5c0.2,0.1,0.5,0.1,0.7-0.1c0.2-0.2,0.3-0.4,0.2-0.6c0-0.1,0-0.3-0.1-0.4
			c0-0.2-0.1-0.4-0.2-0.5c-0.1-0.4-0.3-0.8-0.5-1.2c-0.2-0.3-0.6-0.4-0.9-0.2C90.3,48.4,90.3,48.8,90.4,49.1L90.4,49.1z"/>
	</g>
</g>
<g>
	<g>
		<path class="st2" d="M91.3,51.7c0.7,0.4,1.3,0.4,2.1,0.4c0.7,0,1.4,0,2.1,0.1c0.7,0.1,1.3,0.4,1.9,0.8c0.6,0.4,1.2,0.9,1.9,1.2
			c0.7,0.3,1.1-0.8,0.5-1.2c-0.6-0.4-1.2-0.9-1.8-1.2c-0.6-0.4-1.3-0.6-2-0.8c-0.7-0.2-1.4-0.2-2.2-0.2c-0.6,0-1.4,0.2-2-0.1
			C91.2,50.4,90.7,51.4,91.3,51.7L91.3,51.7z"/>
	</g>
</g>
<g>
	<g>
		<path class="st2" d="M100.9,54.4c3.9,0.8,7.8,1.5,11.7,2.1c1.8,0.2,3.6,0.4,5.4,0.6c1.9,0.1,4,0.4,5.9-0.1c0.5-0.1,0.5-0.9,0-1
			c-1.7-0.4-3.6-0.2-5.4-0.3c-2-0.1-4-0.3-5.9-0.6c-3.8-0.5-7.5-1.2-11.3-2C100.5,53,100.1,54.3,100.9,54.4L100.9,54.4z"/>
	</g>
</g>
<g>
	<g>
		<path class="st2" d="M125.4,56.4C125.4,56.4,125.4,56.4,125.4,56.4C125.4,56.4,125.4,56.4,125.4,56.4L125.4,56.4z"/>
	</g>
</g>
<g>
	<g>
		<path class="st2" d="M126.9,57.3c0.1,0,0.2,0,0.3,0c0.1,0,0.3,0,0.4,0c0.1,0,0.1,0,0.2-0.1c0.1,0,0.1-0.1,0.2-0.2
			c0,0,0.1-0.1,0.1-0.1c0-0.1,0.1-0.2,0.1-0.2c0-0.1,0-0.1,0-0.2c0-0.1,0-0.1-0.1-0.2c0-0.1-0.1-0.1-0.2-0.2
			c-0.1-0.1-0.1-0.1-0.2-0.1c-0.1,0-0.3,0-0.4,0c-0.1,0-0.2,0-0.3,0c-0.1,0-0.2,0-0.3,0.1c-0.1,0-0.2,0.1-0.2,0.1
			c-0.1,0.1-0.1,0.1-0.1,0.2c0,0.1-0.1,0.2-0.1,0.3c0,0.1,0,0.1,0,0.2c0,0.1,0.1,0.2,0.2,0.3c0,0,0.1,0.1,0.1,0.1
			C126.7,57.3,126.8,57.3,126.9,57.3L126.9,57.3z"/>
	</g>
</g>
<g>
	<g>
		<path class="st2" d="M130.6,47.1c0.3,0.7,0.6,1.5,0.7,2.3c0.2,0.8,0.2,1.6,0.2,2.3c0,0.3,0.3,0.6,0.6,0.6c0.4,0,0.6-0.3,0.6-0.6
			c0.1-0.9,0-1.8-0.2-2.7c-0.2-0.9-0.5-1.7-0.9-2.6c-0.1-0.3-0.6-0.4-0.9-0.2C130.6,46.4,130.5,46.7,130.6,47.1L130.6,47.1z"/>
	</g>
</g>
<g>
	<g>
		<path class="st2" d="M137.7,47.7C137.7,47.7,137.7,47.7,137.7,47.7c-0.1,0-0.1,0-0.2,0c0,0-0.2,0-0.2,0c0,0,0,0,0,0c0,0,0,0,0,0
			c0,0,0,0,0,0c-0.1,0-0.1,0-0.2,0.1c-0.1,0-0.2,0.1-0.2,0.2c-0.1,0.1-0.1,0.1-0.1,0.2c0,0.1,0,0.1,0,0.2c0,0.1,0,0.2,0.1,0.3
			c0,0.1,0.1,0.2,0.1,0.2c0,0,0.1,0.1,0.1,0.1c0.1,0.1,0.2,0.1,0.3,0.1c0.1,0,0.2,0,0.3,0c0.1,0,0.1,0,0.2-0.1
			c0.1-0.1,0.2-0.1,0.3-0.3c0-0.1,0-0.1,0.1-0.2c0-0.1,0-0.2,0-0.3c0-0.1,0-0.2-0.1-0.3c0,0-0.1-0.1-0.1-0.1
			C137.9,47.8,137.8,47.7,137.7,47.7L137.7,47.7z"/>
	</g>
</g>
<g>
	<g>
		<path class="st2" d="M238.9,52.3c-0.7,0.9-1.8,1.6-2.9,2c-0.6,0.3-1.3,0.5-2,0.6c-0.4,0.1-0.7,0.2-1.1,0.2
			c-0.4,0.1-0.8,0.1-1.1,0.4c-0.2,0.3-0.2,0.7,0.1,0.9c0.4,0.3,0.9,0.1,1.3,0c0.4-0.1,0.8-0.2,1.2-0.3c0.8-0.2,1.5-0.5,2.2-0.8
			c1.3-0.6,2.5-1.3,3.3-2.5c0.2-0.3,0-0.8-0.2-0.9C239.4,51.9,239.1,52,238.9,52.3L238.9,52.3z"/>
	</g>
</g>
<g>
	<g>
		<path class="st2" d="M228.6,56.8C228.6,56.8,228.5,56.9,228.6,56.8c-0.1,0.1-0.1,0.1-0.2,0.1c0.1-0.1,0,0-0.1,0
			c-0.1,0-0.1,0-0.2,0c0.2,0,0,0-0.1,0c-0.1,0-0.1,0-0.2,0c-0.1,0-0.3,0-0.4,0c-0.3,0-0.7,0-1-0.1c-0.4,0-0.7-0.1-1.1-0.1
			c-0.3,0-0.6,0.2-0.7,0.6c0,0.3,0.2,0.7,0.5,0.7c0.4,0.1,0.9,0.1,1.3,0.1c0.4,0,0.8,0,1.1,0.1c0.7,0,1.4-0.1,1.9-0.6
			c0.2-0.3,0.3-0.7,0-0.9C229.3,56.5,228.9,56.5,228.6,56.8L228.6,56.8z"/>
	</g>
</g>
<g>
	<g>
		<path class="st2" d="M241.8,49.5c-0.3,0.3-0.6,0.5-0.9,0.8c-0.2,0.1-0.3,0.3-0.5,0.4c-0.2,0.1-0.3,0.3-0.4,0.5c0,0.1,0,0.2,0,0.4
			c0,0.2,0.1,0.4,0.4,0.5c0.1,0,0.2,0,0.3,0c0.2,0,0.4-0.1,0.5-0.2c0,0,0.1-0.1,0.1-0.1c0.2-0.1,0.3-0.3,0.5-0.4
			c0.3-0.3,0.6-0.5,0.9-0.8c0.1-0.1,0.2-0.3,0.2-0.5c0-0.2-0.1-0.4-0.2-0.5c-0.1-0.1-0.3-0.2-0.5-0.2
			C242.1,49.3,241.9,49.4,241.8,49.5L241.8,49.5z"/>
	</g>
</g>
<g>
	<g>
		<path class="st2" d="M182,42.3c-0.1,1.9,0,3.9,0.3,5.8c0.2,1,0.2,1.8,0,2.8c-0.2,0.8-0.7,1.8-0.3,2.6c0.1,0.3,0.6,0.4,0.8,0.1
			c0.3-0.4,0.3-0.8,0.4-1.2c0.1-0.5,0.3-0.9,0.4-1.4c0.2-0.9,0.2-1.8,0.1-2.7c-0.3-2-0.5-3.9-0.4-5.9
			C183.4,41.4,182.1,41.4,182,42.3L182,42.3z"/>
	</g>
</g>
<g>
	<g>
		<path class="st2" d="M184.8,41.8c-0.7,2.5-1.3,4.9-1.9,7.4c-0.3,1.2-0.6,2.3-0.9,3.5c-0.2,1-0.8,2.4-0.5,3.4
			c0.1,0.4,0.7,0.5,0.9,0.1c0.3-0.5,0.4-1.1,0.5-1.7c0.1-0.6,0.3-1.2,0.4-1.8c0.3-1.1,0.6-2.3,0.9-3.4c0.6-2.4,1.3-4.8,1.9-7.2
			C186.2,41.4,185,41,184.8,41.8L184.8,41.8z"/>
	</g>
</g>
<g>
	<g>
		<path class="st2" d="M183.6,56.7c0,0.1,0.1,0.2,0.1,0.3c0,0,0,0.1,0.1,0.1c0,0.1,0.1,0.1,0.1,0.2c0,0,0.1,0.1,0.1,0.1
			c0.1,0,0.1,0.1,0.2,0c0,0,0.1,0,0.1,0c0,0,0.1,0,0.1-0.1c0.1,0,0.1-0.1,0.2-0.1c0-0.1,0.1-0.1,0.1-0.2c0-0.1,0.1-0.2,0.1-0.3
			c0-0.1,0-0.2,0-0.4c0-0.1-0.1-0.2-0.2-0.3c0,0-0.1-0.1-0.1-0.1c-0.1-0.1-0.2-0.1-0.3-0.1c-0.1,0-0.2,0-0.3,0.1
			c-0.1,0-0.2,0.1-0.2,0.1c-0.1,0.1-0.1,0.2-0.2,0.3C183.6,56.5,183.6,56.6,183.6,56.7L183.6,56.7z"/>
	</g>
</g>
<g>
	<g>
		<path class="st2" d="M129.4,58.5c0.1,0,0.2,0,0.3,0c0.1,0,0.1,0,0.2,0c0,0,0.1,0,0.1,0c0,0,0.1,0,0.1,0c0.1,0,0.2,0,0.3-0.1
			c0.1,0,0.1-0.1,0.1-0.1c0.1-0.1,0.1-0.1,0.1-0.2c0-0.1,0.1-0.2,0.1-0.3c0-0.1,0-0.1,0-0.2c0-0.1-0.1-0.2-0.2-0.3
			c0,0-0.1-0.1-0.1-0.1c-0.1,0-0.1,0-0.2-0.1c-0.1,0-0.1,0-0.2,0c0,0-0.1,0-0.1,0c-0.1,0-0.1,0-0.2,0c-0.1,0-0.2,0-0.3,0
			c-0.1,0-0.2,0-0.3,0.1c-0.1,0-0.2,0.1-0.2,0.1c-0.1,0.1-0.1,0.1-0.1,0.2c0,0.1-0.1,0.2-0.1,0.3c0,0.1,0,0.1,0,0.2
			c0,0.1,0.1,0.2,0.2,0.3C129.1,58.4,129.3,58.5,129.4,58.5L129.4,58.5z"/>
	</g>
</g>
<g>
	<g>
		<path class="st2" d="M116.4,54.9c-6.2,0-12.4,0-18.6,0c-3.1,0-6.1,0-9.2,0c-1.5,0-3,0-4.5,0c-1.5,0-3.1-0.2-4.6,0.2
			c-0.5,0.1-0.5,1,0,1.1c1.4,0.3,2.9,0.1,4.4,0.2c1.5,0,3,0,4.5,0c3.1,0,6.3,0,9.4,0c6.2,0,12.4,0,18.6,0
			C117.3,56.3,117.3,54.9,116.4,54.9L116.4,54.9z"/>
	</g>
</g>
<g>
	<g>
		<path class="st2" d="M93.4,50.3c-0.9,0-1.7,0-2.6,0c-0.4,0-0.8,0-1.3,0c-0.5,0-1-0.1-1.4,0.2c-0.4,0.2-0.4,0.7,0,0.9
			c0.3,0.2,0.5,0.2,0.8,0.2c0.2,0,0.4,0,0.6,0c0.4,0,0.9,0,1.3,0c0.9,0,1.7,0,2.6,0C94.3,51.6,94.3,50.3,93.4,50.3L93.4,50.3z"/>
	</g>
</g>
<g>
	<g>
		<path class="st2" d="M89.4,48.3c-1.6,0-3.3,0-4.9,0c-0.8,0-1.6,0-2.5,0c-0.8,0-1.7-0.2-2.4,0.1c-0.6,0.2-0.6,0.9,0,1.1
			c0.7,0.3,1.7,0.1,2.4,0.1c0.8,0,1.6,0,2.5,0c1.6,0,3.3,0,4.9,0C90.3,49.6,90.3,48.3,89.4,48.3L89.4,48.3z"/>
	</g>
</g>
<g>
	<g>
		<path class="st2" d="M82.1,42.6c-0.2,0-0.3,0-0.5,0c-0.1,0-0.2,0-0.3,0c-0.1,0-0.2,0-0.3,0.1c0,0,0,0,0,0c0,0-0.1,0-0.1,0.1
			c-0.2,0.1-0.3,0.3-0.3,0.5c0,0.2,0.1,0.4,0.3,0.5c0.1,0.1,0.2,0.1,0.3,0.2c0.1,0,0.3,0,0.4,0c0.2,0,0.3,0,0.5,0
			c0.2,0,0.4-0.1,0.5-0.2c0.1-0.1,0.1-0.1,0.1-0.2c0-0.1,0.1-0.2,0.1-0.3c0-0.2-0.1-0.4-0.2-0.5C82.5,42.7,82.3,42.6,82.1,42.6
			L82.1,42.6z"/>
	</g>
</g>
<g>
	<g>
		<path class="st2" d="M82.4,33.9c-1.4,0-2.7,0-4.1,0c-1.3,0-2.7-0.1-4.1,0.2c-0.5,0.1-0.5,1,0,1.1c1.3,0.3,2.7,0.2,4.1,0.2
			c1.4,0,2.7,0,4.1,0C83.3,35.3,83.3,33.9,82.4,33.9L82.4,33.9z"/>
	</g>
</g>
<g>
	<g>
		<path class="st2" d="M109.8,18.6c-0.7,0-1.4,0-2,0c-0.3,0-0.7,0-1,0c-0.2,0-0.4,0-0.6,0c-0.2,0-0.3,0.1-0.5,0.2
			c-0.5,0.2-0.5,0.8,0,0.9c0.2,0.1,0.3,0.1,0.5,0.2c0.2,0.1,0.4,0,0.6,0c0.3,0,0.7,0,1,0c0.7,0,1.4,0,2,0c0.4,0,0.7-0.3,0.7-0.7
			C110.5,18.9,110.2,18.6,109.8,18.6L109.8,18.6z"/>
	</g>
</g>
<g>
	<g>
		<path class="st2" d="M98.1,16.7c0.9,0,0.9-1.4,0-1.4C97.2,15.2,97.2,16.7,98.1,16.7L98.1,16.7z"/>
	</g>
</g>
<g>
	<g>
		<path class="st2" d="M250.1,24c1.2,0,2.5,0,3.7,0c1.2,0,2.5,0.1,3.7-0.2c0.5-0.1,0.5-1,0-1.1c-1.2-0.3-2.5-0.2-3.7-0.2
			c-1.2,0-2.5,0-3.7,0C249.2,22.6,249.2,24,250.1,24L250.1,24z"/>
	</g>
</g>
<g>
	<g>
		<path class="st2" d="M244.4,48.4c0.8,0,1.6,0,2.4,0c0.4,0,0.8,0,1.2,0c0.4,0,0.8-0.1,1.3-0.1c0.6-0.1,0.6-1,0-1.1
			c-0.4-0.1-0.8-0.1-1.3-0.1c-0.4,0-0.8,0-1.2,0c-0.8,0-1.6,0-2.4,0c-0.4,0-0.7,0.3-0.7,0.7C243.7,48,244,48.4,244.4,48.4
			L244.4,48.4z"/>
	</g>
</g>
<g>
	<g>
		<path class="st2" d="M245.4,50.7c0.7,0,1.3,0,2,0c0.4,0,0.7-0.3,0.7-0.7c0-0.4-0.3-0.7-0.7-0.7c-0.7,0-1.3,0-2,0
			c-0.4,0-0.7,0.3-0.7,0.7C244.7,50.3,245,50.7,245.4,50.7L245.4,50.7z"/>
	</g>
</g>
<g>
	<g>
		<path class="st2" d="M252.1,43c1.6,0,3.1,0,4.7,0c0.8,0,1.5,0,2.3,0c0.8,0,1.6-0.1,2.4-0.2c0.6-0.1,0.6-0.9,0-1
			c-0.8-0.1-1.6-0.2-2.4-0.2c-0.8,0-1.5,0-2.3,0c-1.6,0-3.1,0-4.7,0C251.2,41.6,251.2,43,252.1,43L252.1,43z"/>
	</g>
</g>
<g>
	<g>
		<path class="st2" d="M238.8,57c0.5,0,1,0,1.5,0c0.2,0,0.5,0,0.8,0c0.1,0,0.2,0,0.4,0c0.2,0,0.3-0.1,0.5-0.1c0.6-0.2,0.6-1,0-1.1
			c-0.1,0-0.3-0.1-0.4-0.1c-0.1,0-0.3,0-0.5,0c-0.2,0-0.5,0-0.8,0c-0.5,0-1,0-1.5,0c-0.4,0-0.7,0.3-0.7,0.7
			C238.1,56.7,238.4,57,238.8,57L238.8,57z"/>
	</g>
</g>
<g>
	<g>
		<path class="st2" d="M96.1,12.3c-1.6,0-3.2,0-4.8,0c-0.8,0-1.6,0-2.4,0c-0.8,0-1.5,0.1-2.3,0.2c-0.4,0.1-0.4,0.8,0,0.9
			c0.8,0.1,1.5,0.2,2.3,0.2c0.8,0,1.6,0,2.4,0c1.6,0,3.2,0,4.8,0C97,13.6,97,12.3,96.1,12.3L96.1,12.3z"/>
	</g>
</g>
<g>
	<g>
		<path class="st2" d="M11.4,13.7c0.7,0,1.5,0,2.2,0c0.4,0,0.7,0,1.1,0c0.4,0,0.8-0.1,1.2-0.1c0.6-0.1,0.6-1,0-1.1
			c-0.4-0.1-0.8-0.1-1.2-0.1c-0.4,0-0.7,0-1.1,0c-0.7,0-1.5,0-2.2,0c-0.4,0-0.7,0.3-0.7,0.7C10.7,13.4,11,13.7,11.4,13.7L11.4,13.7z
			"/>
	</g>
</g>
<g>
	<g>
		<path class="st2" d="M21.8,17.3c2.7,0,5.4,0,8.2,0c1.4,0,2.7,0,4.1,0c1.3,0,2.7,0.1,3.9-0.1c0.5-0.1,0.5-0.9,0-1
			C36.7,15.9,35.3,16,34,16c-1.4,0-2.7,0-4.1,0c-2.7,0-5.4,0-8.2,0C20.9,16,20.9,17.3,21.8,17.3L21.8,17.3z"/>
	</g>
</g>
<g>
	<g>
		<path class="st2" d="M20.3,23.9c0.9,0,0.9-1.4,0-1.4C19.3,22.4,19.3,23.9,20.3,23.9L20.3,23.9z"/>
	</g>
</g>
<g>
	<g>
		<path class="st2" d="M47.3,44.3c0.9,0,0.9-1.4,0-1.4C46.4,42.9,46.4,44.3,47.3,44.3L47.3,44.3z"/>
	</g>
</g>
<g>
	<g>
		<path class="st2" d="M255.3,12.8c0.9,0,0.9-1.4,0-1.4C254.4,11.4,254.4,12.8,255.3,12.8L255.3,12.8z"/>
	</g>
</g>
<g>
	<path class="st3" d="M252.1-0.7c-0.4,0.5-0.2,1.4,0.4,1.7c0.6,0.3,1.4,0.1,1.7-0.5c0.3-0.6,0-1.4-0.6-1.6c-0.4-0.2-1,0-1,0.4"/>
	<g>
		<path class="st3" d="M251.6-1c-0.4,0.6-0.4,1.4,0,2c0.2,0.3,0.5,0.6,0.8,0.7c0.4,0.2,0.8,0.2,1.1,0.1c0.7-0.1,1.3-0.7,1.5-1.4
			c0.1-0.8-0.2-1.6-0.8-2c-0.7-0.5-2-0.3-2.2,0.7c-0.1,0.4,0.1,0.8,0.5,0.9c0.4,0.1,0.7-0.1,0.9-0.5c0,0,0,0,0-0.1
			c0,0.1,0,0.1-0.1,0.2c0,0,0-0.1,0.1-0.1c0,0-0.1,0.1-0.1,0.1c0,0,0.1-0.1,0.1-0.1c0,0-0.1,0.1-0.1,0.1c0.1,0,0.1-0.1,0.2-0.1
			c-0.1,0-0.1,0-0.2,0.1c0.1,0,0.1,0,0.2-0.1c-0.1,0-0.1,0-0.2,0c0.1,0,0.2,0,0.2,0c-0.1,0-0.1,0-0.2,0c0.1,0,0.2,0,0.2,0.1
			c-0.1,0-0.1,0-0.2-0.1c0.1,0,0.2,0.1,0.2,0.1c0,0-0.1-0.1-0.1-0.1c0.1,0.1,0.1,0.1,0.2,0.2c0,0-0.1-0.1-0.1-0.1
			c0.1,0.1,0.1,0.2,0.2,0.3c0-0.1,0-0.1-0.1-0.2c0,0.1,0.1,0.2,0.1,0.3c0-0.1,0-0.1,0-0.2c0,0.1,0,0.2,0,0.3c0-0.1,0-0.1,0-0.2
			c0,0.1,0,0.2-0.1,0.3c0-0.1,0-0.1,0.1-0.2c0,0.1-0.1,0.2-0.1,0.2c0,0,0.1-0.1,0.1-0.1c-0.1,0.1-0.1,0.1-0.2,0.2
			c0,0,0.1-0.1,0.1-0.1c-0.1,0.1-0.2,0.1-0.3,0.2c0.1,0,0.1,0,0.2-0.1c-0.1,0-0.2,0.1-0.3,0.1c0.1,0,0.1,0,0.2,0c-0.1,0-0.2,0-0.3,0
			c0.1,0,0.1,0,0.2,0c-0.1,0-0.2,0-0.3-0.1c0.1,0,0.1,0,0.2,0.1c-0.1,0-0.2-0.1-0.2-0.1c0,0,0.1,0.1,0.1,0.1
			c-0.1-0.1-0.2-0.1-0.2-0.2c0,0,0.1,0.1,0.1,0.1c-0.1-0.1-0.1-0.2-0.2-0.3c0,0.1,0,0.1,0.1,0.2c0-0.1-0.1-0.2-0.1-0.3
			c0,0.1,0,0.1,0,0.2c0-0.1,0-0.2,0-0.4c0,0.1,0,0.1,0,0.2c0-0.1,0-0.2,0.1-0.3c0,0.1,0,0.1-0.1,0.2c0-0.1,0.1-0.1,0.1-0.2
			c0.2-0.3,0.1-0.7-0.2-0.9C252.1-1.4,251.8-1.3,251.6-1L251.6-1z"/>
	</g>
</g>
<g>
	<path class="st3" d="M123.5-12.6c0.1,0.4,0.6,0.6,0.9,0.5c0.4-0.1,0.5-0.7,0.3-1c-0.2-0.3-0.8-0.2-0.9,0.2"/>
	<g>
		<path class="st3" d="M122.8-12.4c0.1,0.5,0.5,0.8,1,1c0,0,0.1,0,0.1,0c0.1,0,0.2,0,0.3,0c0.1,0,0.2,0,0.3,0c0,0,0.1,0,0.1,0
			c0.1,0,0.2-0.1,0.3-0.1c0.1-0.1,0.2-0.2,0.3-0.3c0.1-0.2,0.2-0.3,0.3-0.5c0-0.1,0-0.2,0-0.4c0-0.1,0-0.2-0.1-0.3
			c-0.1-0.2-0.1-0.3-0.3-0.4c0,0,0,0-0.1-0.1c-0.1-0.1-0.1-0.1-0.2-0.2c-0.1,0-0.1-0.1-0.2-0.1c0,0-0.1,0-0.1,0c-0.1,0-0.2,0-0.3,0
			c-0.3,0-0.7,0.1-0.9,0.5c-0.1,0.1-0.1,0.2-0.1,0.3c0,0.1,0,0.2,0,0.4c0,0.1,0,0.1,0.1,0.2c0,0.1,0.2,0.2,0.3,0.2
			c0.1,0,0.3,0,0.4,0c0,0,0,0,0,0c0,0-0.1,0-0.1,0.1c0.1,0,0.1-0.1,0.2-0.1c0,0-0.1,0-0.1,0.1c0,0,0.1,0,0.1,0c-0.1,0-0.1,0-0.2,0
			c0,0,0,0,0.1,0c0.1,0,0.2,0,0.4-0.1c0,0,0,0,0,0c-0.1,0-0.1,0-0.2,0.1c0.1,0,0.1,0,0.2,0c-0.1,0-0.1,0-0.2,0c0.1,0,0.1,0,0.2,0
			c-0.1,0-0.1,0-0.2,0c0,0,0.1,0,0.1,0c-0.1,0-0.1,0-0.2-0.1c0,0,0.1,0,0.1,0.1c0,0-0.1-0.1-0.1-0.1c0,0,0.1,0.1,0.1,0.1
			c0,0-0.1-0.1-0.1-0.1c0,0,0,0.1,0.1,0.1c0-0.1,0-0.1-0.1-0.2c0,0,0,0.1,0,0.1c0-0.1,0-0.1,0-0.2c0,0.1,0,0.1,0,0.2
			c0-0.1,0-0.1,0-0.2c0,0.1,0,0.1,0,0.2c0-0.1,0-0.1,0.1-0.2c0,0.1-0.1,0.1-0.1,0.1c0,0,0.1-0.1,0.1-0.1c0,0-0.1,0.1-0.1,0.1
			c0,0,0.1-0.1,0.1-0.1c0,0-0.1,0.1-0.1,0.1c0.1,0,0.1,0,0.2-0.1c0,0-0.1,0-0.1,0c0.1,0,0.1,0,0.2,0c-0.1,0-0.1,0-0.2,0
			c0.1,0,0.1,0,0.2,0c-0.1,0-0.1,0-0.2-0.1c0.1,0,0.1,0,0.2,0.1c-0.1,0-0.1-0.1-0.2-0.1c0,0,0.1,0.1,0.1,0.1c0,0-0.1-0.1-0.1-0.1
			c0,0,0.1,0.1,0.1,0.1c0-0.1-0.1-0.1-0.1-0.2c0,0.1,0,0.1,0.1,0.2c0,0,0,0,0,0c-0.1-0.2-0.1-0.3-0.3-0.4c-0.1-0.1-0.3-0.1-0.5-0.1
			c-0.2,0.1-0.3,0.1-0.4,0.3C122.8-12.7,122.8-12.6,122.8-12.4L122.8-12.4z"/>
	</g>
</g>
<g>
	<path class="st3" d="M40.6-9c-0.4,0.5-0.1,1.3,0.5,1.5c0.6,0.2,1.2-0.2,1.4-0.8c0.1-0.4,0-0.9-0.3-1.2c-0.4-0.2-1-0.1-1.1,0.3"/>
	<g>
		<path class="st3" d="M40.2-9.5c-0.2,0.3-0.4,0.6-0.4,1c0,0.3,0.1,0.6,0.2,0.9c0.1,0.3,0.4,0.5,0.7,0.6c0.4,0.2,0.7,0.2,1.1,0.1
			c0.7-0.1,1.2-0.7,1.4-1.4c0.2-0.7-0.1-1.6-0.7-1.9c-0.3-0.2-0.8-0.2-1.2-0.1c-0.4,0.1-0.8,0.5-0.9,0.9c-0.1,0.3,0.1,0.7,0.4,0.8
			c0.1,0.1,0.3,0.1,0.4,0c0.2-0.1,0.3-0.2,0.4-0.3c0-0.1,0.1-0.1,0.1-0.2c0,0-0.1,0.1-0.1,0.1c0,0,0.1-0.1,0.1-0.1
			c0,0-0.1,0.1-0.1,0.1c0,0,0.1-0.1,0.2-0.1c-0.1,0-0.1,0-0.2,0.1c0.1,0,0.1-0.1,0.2-0.1c-0.1,0-0.1,0-0.2,0c0.1,0,0.1,0,0.2,0
			c-0.1,0-0.1,0-0.2,0c0.1,0,0.1,0,0.2,0.1c-0.1,0-0.1,0-0.2-0.1c0.1,0,0.1,0.1,0.1,0.1c0,0-0.1-0.1-0.1-0.1c0.1,0,0.1,0.1,0.1,0.2
			c0,0-0.1-0.1-0.1-0.1c0,0.1,0.1,0.1,0.1,0.2c0-0.1,0-0.1-0.1-0.2c0,0.1,0.1,0.2,0.1,0.3c0-0.1,0-0.1,0-0.2c0,0.1,0,0.2,0,0.3
			c0-0.1,0-0.1,0-0.2c0,0.1,0,0.2-0.1,0.3c0-0.1,0-0.1,0.1-0.2c0,0.1-0.1,0.2-0.2,0.3c0,0,0.1-0.1,0.1-0.1c-0.1,0.1-0.1,0.2-0.2,0.2
			c0,0,0.1-0.1,0.1-0.1c-0.1,0.1-0.2,0.1-0.3,0.2c0.1,0,0.1,0,0.2-0.1c-0.1,0-0.2,0.1-0.3,0.1c0.1,0,0.1,0,0.2,0c-0.1,0-0.2,0-0.3,0
			c0.1,0,0.1,0,0.2,0c-0.1,0-0.1,0-0.2-0.1c0.1,0,0.1,0,0.2,0.1c-0.1,0-0.1-0.1-0.2-0.1c0,0,0.1,0.1,0.1,0.1
			c-0.1-0.1-0.1-0.1-0.2-0.2c0,0,0.1,0.1,0.1,0.1c-0.1-0.1-0.1-0.1-0.1-0.2c0,0.1,0,0.1,0.1,0.2c0-0.1-0.1-0.2-0.1-0.3
			c0,0.1,0,0.1,0,0.2c0-0.1,0-0.2,0-0.3c0,0.1,0,0.1,0,0.2c0-0.1,0-0.1,0.1-0.2c0,0.1,0,0.1-0.1,0.2c0-0.1,0.1-0.1,0.1-0.2
			c0,0-0.1,0.1-0.1,0.1c0,0,0,0,0,0c0.1-0.1,0.2-0.3,0.2-0.5c0-0.2-0.1-0.4-0.2-0.5C40.9-9.7,40.4-9.7,40.2-9.5L40.2-9.5z"/>
	</g>
</g>
<g>
	<path class="st3" d="M82.5-2.6"/>
	<g>
		<path class="st3" d="M82.5-2.6C82.5-2.6,82.5-2.6,82.5-2.6C82.5-2.6,82.5-2.6,82.5-2.6L82.5-2.6z"/>
	</g>
</g>
<g>
	<g>
		<path class="st2" d="M196.4,21.8c-0.1,0.7-0.1,1.3-0.1,2c0,0.1,0.1,0.2,0.2,0.2c0.1,0,0.1,0,0.2,0c0.1,0,0.1-0.1,0.1-0.2
			c-0.1-0.6,0-1.3,0.1-1.9c0-0.1,0-0.2-0.2-0.3C196.6,21.6,196.4,21.7,196.4,21.8L196.4,21.8z"/>
	</g>
</g>
<g>
	<g>
		<path class="st2" d="M206.2,19.6c0,0.1,0,0.1,0.1,0.2c0,0,0,0,0,0c0,0,0,0,0,0c0,0,0,0.1,0,0.1c0,0,0,0,0,0c0,0,0,0,0.1,0.1
			c0,0,0.1,0,0.1,0c0.1,0,0.1-0.1,0.1-0.2c0-0.1,0-0.1,0-0.2c0-0.1,0-0.1-0.1-0.2c0-0.1,0-0.1-0.1-0.1c0,0-0.1,0-0.2,0
			c-0.1,0-0.1,0-0.1,0.1C206.2,19.5,206.1,19.5,206.2,19.6L206.2,19.6z"/>
	</g>
</g>
<g>
	<g>
		<path class="st2" d="M164.8,19.9c0,0.2,0,0.4-0.1,0.6c0,0.1,0,0.2,0,0.3c0,0,0,0.1,0,0.1c0,0.1,0,0.1,0,0.2c0,0.1,0.1,0.2,0.2,0.2
			c0.1,0,0.2,0,0.2-0.1c0-0.1,0-0.1,0-0.2c0,0,0-0.1,0-0.1c0-0.1,0-0.2,0-0.3c0-0.2,0-0.4,0.1-0.6c0-0.1-0.1-0.2-0.2-0.2
			C164.9,19.7,164.9,19.8,164.8,19.9L164.8,19.9z"/>
	</g>
</g>
<g>
	<g>
		<path class="st2" d="M165.8,19.9c0,0.2,0,0.5,0,0.7c0,0.1,0,0.2,0,0.3c0,0.1,0,0.3,0,0.4c0,0.2,0.3,0.2,0.4,0c0-0.1,0-0.3,0-0.4
			c0-0.1,0-0.2,0-0.3c0-0.2,0-0.5,0-0.7c0-0.1-0.1-0.2-0.2-0.2C165.9,19.7,165.8,19.8,165.8,19.9L165.8,19.9z"/>
	</g>
</g>
<g>
	<g>
		<path class="st2" d="M167.2,20.1c0,0.3,0,0.6,0.1,0.8c0,0.3,0,0.6,0.1,0.9c0,0.1,0.1,0.2,0.2,0.1c0.1,0,0.2-0.1,0.2-0.2
			c0-0.3,0-0.5-0.1-0.8c0-0.3,0-0.5-0.1-0.8c0-0.1-0.1-0.2-0.2-0.2C167.3,19.9,167.2,20,167.2,20.1L167.2,20.1z"/>
	</g>
</g>
<g>
	<g>
		<path class="st2" d="M170.8,21.6c0,0.3,0,0.6,0.1,1c0,0.2,0,0.3,0,0.5c0,0.2,0,0.3,0.1,0.5c0.1,0.1,0.3,0.1,0.3,0
			c0.1-0.2,0-0.3,0-0.5c0-0.2,0-0.3,0-0.5c0-0.3,0-0.6-0.1-1c0-0.1-0.1-0.2-0.2-0.2C170.9,21.4,170.8,21.5,170.8,21.6L170.8,21.6z"
			/>
	</g>
</g>
<g>
	<g>
		<path class="st2" d="M172.6,22.4c0,0.3,0.1,0.7,0.1,1c0,0.2,0,0.3,0,0.5c0,0.2,0,0.4,0.1,0.6c0.1,0.2,0.3,0.1,0.4,0
			c0-0.2,0-0.4,0-0.5c0-0.2,0-0.3,0-0.5c0-0.3-0.1-0.7-0.1-1c0-0.1-0.1-0.2-0.2-0.2C172.7,22.2,172.5,22.3,172.6,22.4L172.6,22.4z"
			/>
	</g>
</g>
<g>
	<g>
		<path class="st2" d="M173.9,22.7c0.1,0.5,0.2,0.9,0.2,1.4c0,0.2,0,0.5,0,0.7c0,0.1,0,0.2,0,0.4c0,0.1,0,0.2,0,0.4
			c0.1,0.1,0.2,0.1,0.3,0c0.2-0.2,0.1-0.5,0.1-0.7c0-0.3,0-0.5,0-0.8c0-0.5-0.1-1-0.2-1.5C174.3,22.3,173.9,22.4,173.9,22.7
			L173.9,22.7z"/>
	</g>
</g>
<g>
	<g>
		<path class="st2" d="M175.3,23.4c0.1,0.6,0.1,1.2,0.1,1.8c0,0.3,0,0.6,0,0.9c0,0.1,0,0.3,0,0.4c0,0.2,0,0.3,0,0.5
			c0,0.2,0.2,0.2,0.3,0c0.1-0.2,0.1-0.3,0.1-0.5c0-0.2,0-0.3,0.1-0.5c0-0.3,0-0.6,0-0.9c0-0.6,0-1.3-0.1-1.9
			C175.7,23.1,175.3,23.2,175.3,23.4L175.3,23.4z"/>
	</g>
</g>
<g>
	<g>
		<path class="st2" d="M176.1,26.1C176.2,26.1,176.2,26.1,176.1,26.1C176.1,26.1,176.1,26.1,176.1,26.1L176.1,26.1z"/>
	</g>
</g>
<g>
	<g>
		<path class="st2" d="M218.1-3.6c0,0.2,0,0.4,0,0.6c0,0.1,0,0.2,0,0.3c0,0.1,0,0.2,0,0.3c0,0.2,0.3,0.2,0.3,0c0-0.1,0-0.2,0-0.3
			c0-0.1,0-0.2,0-0.3c0-0.2,0-0.4,0-0.6c0-0.1-0.1-0.2-0.2-0.2C218.2-3.8,218.1-3.7,218.1-3.6L218.1-3.6z"/>
	</g>
</g>
<g>
	<g>
		<path class="st2" d="M163,19.4c0,0.2,0.1,0.4,0,0.6c0,0.1,0,0.2-0.1,0.3c0,0.1,0,0.1,0,0.2c0,0.1,0,0.1,0,0.2
			c0,0.1,0.1,0.1,0.1,0.1c0.1,0,0.1,0,0.2,0c0.1-0.1,0.1-0.2,0.2-0.4c0-0.1,0.1-0.3,0.1-0.4c0-0.3,0-0.5,0-0.8
			c0-0.1-0.2-0.2-0.3-0.2C163.1,19.1,163,19.2,163,19.4L163,19.4z"/>
	</g>
</g>
<g>
	<g>
		<path class="st2" d="M161.2,19.3c0,0.4,0,0.8,0,1.2c0,0.4,0,0.8,0,1.2c0,0.3,0.4,0.3,0.4,0c0-0.4,0-0.8,0-1.2c0-0.4,0-0.8,0-1.2
			C161.7,19,161.2,19,161.2,19.3L161.2,19.3z"/>
	</g>
</g>
<g>
	<g>
		<path class="st2" d="M159.8,18.1c0,0.7-0.1,1.4-0.1,2c0,0.3,0,0.7,0,1c0,0.3-0.1,0.7,0,1c0.1,0.2,0.3,0.2,0.4,0
			c0.1-0.2,0-0.4,0.1-0.5c0-0.2,0-0.3,0-0.5c0-0.3,0-0.7,0-1c0-0.7,0.1-1.4,0.1-2C160.3,17.9,159.9,17.9,159.8,18.1L159.8,18.1z"/>
	</g>
</g>
<g>
	<g>
		<path class="st2" d="M155.2,18.1c0,0.4-0.1,0.8-0.2,1.1c0,0.2-0.1,0.4-0.1,0.6c0,0.2-0.1,0.4-0.1,0.6c0,0.2,0.3,0.3,0.4,0.1
			c0.2-0.4,0.2-0.8,0.3-1.2c0.1-0.4,0.1-0.8,0.2-1.2c0-0.1-0.1-0.2-0.2-0.2C155.3,17.9,155.2,18,155.2,18.1L155.2,18.1z"/>
	</g>
</g>
<g>
	<g>
		<path class="st2" d="M150,17.6C150.1,17.6,150.1,17.6,150,17.6C150.1,17.7,150.1,17.6,150,17.6C150.1,17.7,150.1,17.7,150,17.6
			c0,0.1,0,0.1,0,0.1c0,0,0,0,0,0c0,0,0,0,0,0c0,0,0,0,0,0.1c0,0,0,0,0,0c0,0,0,0,0,0c0,0,0,0.1,0,0.1c0,0,0,0,0,0c0-0.1,0,0,0,0
			c0,0,0,0,0,0.1c0,0,0,0,0,0.1c0,0,0,0,0,0c0,0,0,0,0,0c0,0,0,0,0,0c0,0,0,0,0,0c0,0,0,0,0,0c0,0-0.1,0-0.1,0.1c0,0,0,0.1-0.1,0.1
			c-0.1,0.1,0,0.2,0.1,0.3c0,0,0.1,0,0.1,0c0,0,0.1,0,0.1,0c0.1,0,0.1-0.1,0.1-0.1c0.1-0.1,0.1-0.2,0.2-0.3c0.1-0.2,0.1-0.5-0.1-0.7
			c-0.1-0.1-0.2-0.1-0.3-0.1C150,17.4,150,17.5,150,17.6L150,17.6z"/>
	</g>
</g>
<g>
	<g>
		<path class="st2" d="M156.7,22.1c0,0.1,0,0.2,0,0.3c0,0,0,0,0,0.1c0,0,0,0,0,0.1c0,0,0.1,0.1,0.1,0.1c0,0,0.1,0,0.1-0.1
			c0,0,0,0,0,0c0,0,0-0.1,0-0.1c0-0.1,0-0.2,0-0.3c0,0,0-0.1,0-0.1c0,0,0-0.1,0-0.1c0,0-0.1-0.1-0.2-0.1c-0.1,0-0.1,0-0.2,0.1
			C156.7,22,156.7,22.1,156.7,22.1L156.7,22.1z"/>
	</g>
</g>
<g>
	<g>
		<path class="st2" d="M177.9,22.5c0,0.4,0,0.8,0,1.2c0,0.2,0,0.4,0,0.6c0,0.2,0,0.4,0,0.6c0,0.2,0.3,0.2,0.3,0c0.1-0.2,0-0.4,0-0.6
			c0-0.2,0-0.4,0-0.6c0-0.4,0-0.8,0-1.2C178.3,22.2,177.9,22.2,177.9,22.5L177.9,22.5z"/>
	</g>
</g>
<g>
	<g>
		<path class="st2" d="M179.1,22.4c0.1,0.5,0.1,1,0.1,1.5c0,0.3,0,0.5-0.1,0.7c0,0.1,0,0.3-0.1,0.4c0,0.1-0.1,0.2,0,0.3
			c0,0.1,0.1,0.1,0.2,0.1c0.2-0.1,0.2-0.5,0.3-0.7c0-0.3,0.1-0.5,0.1-0.8c0-0.6,0-1.1-0.2-1.6C179.4,22,179,22.1,179.1,22.4
			L179.1,22.4z"/>
	</g>
</g>
<g>
	<g>
		<path class="st2" d="M180.7,23c0.1,0.4,0.3,0.8,0.3,1.2c0,0.2,0,0.4,0,0.6c0,0.1,0,0.2,0,0.3c0,0.1,0,0.2,0.1,0.3
			c0.1,0.1,0.2,0.1,0.3,0c0.1-0.1,0.1-0.2,0.1-0.3c0-0.1,0-0.2,0-0.3c0-0.2,0-0.4,0-0.6c-0.1-0.4-0.2-0.8-0.3-1.2
			c0-0.1-0.1-0.2-0.3-0.2C180.8,22.8,180.7,22.9,180.7,23L180.7,23z"/>
	</g>
</g>
<g>
	<g>
		<path class="st2" d="M183.2,23.4c0.1,0.4,0.1,0.7,0.2,1.1c0,0.2,0,0.4,0,0.6c0,0.2-0.1,0.4,0.1,0.6c0.1,0.1,0.1,0.1,0.2,0
			c0.1-0.1,0.1-0.2,0.1-0.3c0-0.1,0-0.2,0-0.3c0-0.2,0-0.4,0-0.6c0-0.4-0.1-0.8-0.2-1.2C183.6,23,183.2,23.1,183.2,23.4L183.2,23.4z
			"/>
	</g>
</g>
<g>
	<g>
		<path class="st2" d="M185.2,23.4c0,0.3,0.1,0.7,0.1,1c0,0.3,0.1,0.7,0.2,1c0,0.2,0.4,0.2,0.4-0.1c0-0.3-0.1-0.7-0.1-1
			c0-0.3-0.1-0.7-0.1-1c0-0.1-0.2-0.2-0.3-0.2C185.2,23.1,185.2,23.2,185.2,23.4L185.2,23.4z"/>
	</g>
</g>
<g>
	<g>
		<path class="st2" d="M188.2,22.6c0,0.4,0,0.8,0,1.2c0,0.2,0,0.4,0,0.6c0,0.2-0.1,0.5,0.1,0.6c0.1,0.1,0.2,0.1,0.2,0
			c0.1-0.1,0.1-0.4,0.1-0.6c0-0.2,0-0.4,0-0.6c0-0.4,0-0.8,0-1.2C188.6,22.4,188.2,22.4,188.2,22.6L188.2,22.6z"/>
	</g>
</g>
<g>
	<g>
		<path class="st2" d="M190.7,22.6c0,0.4-0.1,0.8,0,1.2c0,0.2,0,0.4,0.1,0.6c0,0.2,0,0.4,0.2,0.6c0.1,0.1,0.3,0,0.3-0.1
			c0-0.1,0-0.2,0-0.3c0-0.1,0-0.2-0.1-0.3c0-0.2,0-0.3-0.1-0.5c0-0.4,0-0.7,0-1.1c0-0.1-0.1-0.2-0.2-0.2
			C190.8,22.4,190.7,22.5,190.7,22.6L190.7,22.6z"/>
	</g>
</g>
<g>
	<g>
		<path class="st2" d="M193.1,22.1c0,0.4,0,0.8,0,1.1c0,0.2,0,0.4,0,0.6c0,0.1,0,0.2,0,0.3c0,0.1,0,0.2,0.1,0.3
			c0.1,0.1,0.2,0.1,0.2,0c0.1-0.1,0.1-0.2,0.1-0.3c0-0.1,0-0.2,0-0.3c0-0.2,0-0.4,0-0.6c0-0.4,0-0.8,0-1.1
			C193.5,21.9,193.1,21.9,193.1,22.1L193.1,22.1z"/>
	</g>
</g>
<g>
	<g>
		<path class="st2" d="M207.9,18.1c0,0.2,0.1,0.4,0.1,0.7c0,0.2,0,0.5,0.1,0.7c0,0.2,0.4,0.2,0.4-0.1c0-0.2,0-0.4-0.1-0.7
			c0-0.2-0.1-0.4-0.1-0.7c0-0.1-0.1-0.2-0.2-0.2C208,17.9,207.9,18,207.9,18.1L207.9,18.1z"/>
	</g>
</g>
<g>
	<g>
		<path class="st2" d="M209.6,18.1c0,0.6,0,1.2,0,1.8c0,0.1,0,0.1,0.1,0.2c0.1,0,0.1,0,0.2,0c0.1,0,0.1-0.1,0.1-0.2
			c0-0.6,0-1.2,0-1.8C210,17.9,209.6,17.9,209.6,18.1L209.6,18.1z"/>
	</g>
</g>
<g>
	<g>
		<path class="st2" d="M210.8,17.3c0,0.5,0.1,0.9,0.1,1.4c0,0.5,0,1,0.1,1.4c0,0.2,0.4,0.2,0.4-0.1c0-0.2,0-0.5,0-0.7
			c0-0.2,0-0.5,0-0.7c0-0.5-0.1-0.9-0.1-1.4C211.2,17,210.8,17,210.8,17.3L210.8,17.3z"/>
	</g>
</g>
<g>
	<g>
		<path class="st2" d="M212.9,17.1c0,0.4,0,0.9,0.1,1.3c0,0.2,0.1,0.4,0.1,0.6c0.1,0.2,0.1,0.4,0.3,0.6c0.1,0.1,0.2,0,0.2-0.1
			c0.1-0.2,0-0.4-0.1-0.6c-0.1-0.2-0.1-0.4-0.1-0.6c-0.1-0.4-0.1-0.8-0.1-1.2C213.4,16.9,213,16.9,212.9,17.1L212.9,17.1z"/>
	</g>
</g>
<g>
	<g>
		<path class="st2" d="M215.1,16.8c-0.1,0.4,0,0.8,0.1,1.2c0.1,0.2,0.1,0.4,0.3,0.6c0.1,0.1,0.1,0.2,0.2,0.3
			c0.1,0.1,0.1,0.2,0.3,0.2c0.1,0,0.2-0.1,0.2-0.2c0-0.1-0.1-0.2-0.1-0.3c-0.1-0.1-0.1-0.1-0.1-0.2c-0.1-0.2-0.2-0.3-0.2-0.5
			c-0.1-0.3-0.1-0.7-0.1-1.1c0-0.1-0.1-0.2-0.2-0.2C215.2,16.6,215.2,16.7,215.1,16.8L215.1,16.8z"/>
	</g>
</g>
<g>
	<g>
		<path class="st2" d="M217.9,17.6C217.9,17.6,217.9,17.6,217.9,17.6C217.9,17.6,217.9,17.6,217.9,17.6L217.9,17.6z"/>
	</g>
</g>
<g>
	<g>
		<path class="st2" d="M220.1,18.3C220.1,18.3,220.1,18.3,220.1,18.3C220.1,18.3,220.1,18.3,220.1,18.3L220.1,18.3z"/>
	</g>
</g>
<g>
	<g>
		<path class="st2" d="M211.6,15.5c0.1,0.3,0.1,0.6,0.2,0.9c0,0.1,0.1,0.3,0.1,0.4c0,0.1,0,0.1,0,0.2c0,0.1,0,0.2,0.1,0.2
			c0.1,0.1,0.3,0.1,0.3,0c0,0,0-0.1,0-0.1c0-0.1,0-0.1,0-0.2c0-0.1,0-0.1,0-0.2c0-0.1-0.1-0.3-0.1-0.4c-0.1-0.3-0.1-0.6-0.2-0.9
			c0-0.1-0.2-0.2-0.3-0.2C211.6,15.3,211.5,15.4,211.6,15.5L211.6,15.5z"/>
	</g>
</g>
<g>
	<g>
		<path class="st2" d="M213.6,15.5C213.6,15.5,213.6,15.5,213.6,15.5C213.6,15.5,213.6,15.5,213.6,15.5L213.6,15.5z"/>
	</g>
</g>
<g>
	<g>
		<path class="st2" d="M214.8,15.1C214.8,15.1,214.8,15.1,214.8,15.1C214.8,15.1,214.8,15.1,214.8,15.1L214.8,15.1z"/>
	</g>
</g>
<g>
	<g>
		<path class="st2" d="M177.1,27.4c0.1,0.1,0.2,0.2,0.3,0.4c0,0.1,0.1,0.1,0.1,0.2c0,0,0,0.1,0.1,0.1c0,0,0,0,0,0
			c0,0,0.1,0.1,0.2,0.1c0,0,0.1,0,0.1,0c0,0,0.1-0.1,0.1-0.1c0.1-0.1-0.1-0.3-0.2-0.3c0-0.1-0.1-0.1-0.1-0.2
			c-0.1-0.1-0.2-0.2-0.3-0.4c0,0-0.1-0.1-0.2-0.1c-0.1,0-0.1,0-0.2,0.1c0,0-0.1,0.1-0.1,0.2C177,27.3,177.1,27.4,177.1,27.4
			L177.1,27.4z"/>
	</g>
</g>
<g>
	<g>
		<path class="st2" d="M177.9,26.5c0,0.1,0.1,0.3,0.1,0.4c0,0.1,0.1,0.1,0.2,0.1c0,0,0.1,0,0.1,0c0,0,0.1-0.1,0.1-0.1
			c0-0.1,0-0.3-0.1-0.4c0,0,0-0.1,0-0.1c0,0,0,0,0,0c0,0-0.1-0.1-0.2-0.1C178,26.2,177.9,26.3,177.9,26.5L177.9,26.5z"/>
	</g>
</g>
<g>
	<g>
		<path class="st2" d="M197.5,26.8C197.5,26.8,197.5,26.9,197.5,26.8C197.5,26.9,197.5,26.9,197.5,26.8
			C197.5,26.9,197.5,26.9,197.5,26.8c0,0.1,0,0.1,0,0.1c0,0,0,0,0,0.1c0,0,0,0.1,0,0.1c0,0,0,0,0,0c0,0,0,0,0,0c0,0,0,0,0,0.1
			c0,0,0,0.1,0,0.1c0,0,0,0,0,0c0,0,0,0,0,0c0,0,0,0,0,0c0,0,0,0,0,0c0,0,0,0.1-0.1,0.1c0,0.1,0,0.1-0.1,0.2c0,0.1,0,0.1,0.1,0.2
			c0.1,0,0.1,0,0.2,0c0.1,0,0.1-0.1,0.2-0.1c0,0,0-0.1,0.1-0.1c0-0.1,0.1-0.2,0.1-0.3c0-0.2,0-0.4,0-0.6c0-0.1-0.2-0.2-0.3-0.1
			C197.5,26.6,197.5,26.7,197.5,26.8L197.5,26.8z"/>
	</g>
</g>
<g>
	<g>
		<path class="st2" d="M196.1,26c0,0.2-0.1,0.4-0.1,0.6c0,0.1,0.1,0.2,0.2,0.2c0,0,0,0,0.1,0c0.1,0,0.2-0.1,0.2-0.2
			c0-0.2,0.1-0.4,0.1-0.6c0,0,0-0.1,0-0.1c0,0,0,0,0-0.1c0-0.1-0.1-0.1-0.2-0.1c-0.1,0-0.1,0-0.2,0c0,0,0,0-0.1,0.1
			C196.1,25.9,196.1,25.9,196.1,26L196.1,26z"/>
	</g>
</g>
<g>
	<g>
		<path class="st2" d="M115.8,18.1c0.5,0.1,1,0.1,1.5,0.2c0.2,0,0.5,0.1,0.7,0.1c0.2,0,0.5,0.1,0.7,0c0.1,0,0.2-0.2,0-0.3
			c-0.2-0.1-0.5-0.1-0.7-0.1c-0.3,0-0.5-0.1-0.8-0.1c-0.5-0.1-1-0.1-1.5-0.2c-0.1,0-0.2,0.1-0.2,0.2C115.6,18,115.7,18,115.8,18.1
			L115.8,18.1z"/>
	</g>
</g>
<g>
	<g>
		<path class="st2" d="M117.1,17.4c0.7,0,1.4,0,2,0.2c0.3,0.1,0.6,0.1,1,0.2c0.3,0.1,0.7,0.2,1,0.3c0.2,0,0.2-0.2,0.1-0.3
			c-0.3-0.2-0.7-0.3-1-0.3c-0.3-0.1-0.7-0.2-1-0.2c-0.7-0.1-1.4-0.2-2.1-0.2C116.9,16.9,116.9,17.4,117.1,17.4L117.1,17.4z"/>
	</g>
</g>
<g>
	<g>
		<path class="st2" d="M118,16c1.1,0.2,2.2,0.4,3.4,0.6c0.6,0.1,1.1,0.2,1.7,0.3c0.5,0.1,1.1,0.3,1.6,0.2c0.1,0,0.1-0.2,0-0.3
			c-0.4-0.3-1.1-0.3-1.5-0.4c-0.6-0.1-1.1-0.2-1.7-0.3c-1.1-0.2-2.2-0.4-3.3-0.6C117.8,15.5,117.7,15.9,118,16L118,16z"/>
	</g>
</g>
<g>
	<g>
		<path class="st2" d="M120.7,15.3c1.1,0.2,2.2,0.3,3.2,0.5c0.5,0.1,1.1,0.2,1.6,0.2c0.3,0,0.5,0.1,0.8,0.1c0.2,0,0.5,0.1,0.7,0
			c0.1,0,0.2-0.2,0.1-0.3c-0.2-0.2-0.4-0.2-0.7-0.2c-0.2,0-0.5-0.1-0.7-0.1c-0.6-0.1-1.1-0.2-1.7-0.3c-1.1-0.2-2.2-0.3-3.3-0.5
			C120.6,14.8,120.4,15.3,120.7,15.3L120.7,15.3z"/>
	</g>
</g>
<g>
	<g>
		<path class="st2" d="M122,13.6c1.1,0.2,2.2,0.4,3.2,0.6c0.5,0.1,1,0.2,1.5,0.4c0.3,0.1,0.5,0.2,0.8,0.2c0.2,0.1,0.5,0.2,0.8,0.2
			c0.1,0,0.2-0.2,0.1-0.3c-0.4-0.3-1-0.4-1.4-0.5c-0.5-0.1-1.1-0.3-1.6-0.4c-1.1-0.3-2.2-0.5-3.3-0.6
			C121.8,13.1,121.7,13.6,122,13.6L122,13.6z"/>
	</g>
</g>
<g>
	<g>
		<path class="st2" d="M122.6,12.5C122.7,12.5,122.7,12.5,122.6,12.5C122.6,12.5,122.6,12.5,122.6,12.5L122.6,12.5z"/>
	</g>
</g>
<g>
	<g>
		<path class="st2" d="M92.5,50.7c0.9,0.1,1.7,0.2,2.6,0.3c0.4,0.1,0.9,0.1,1.3,0.2c0.2,0,0.4,0,0.6,0.1c0.2,0,0.4,0.1,0.7,0
			c0.1,0,0.2-0.3,0-0.3c-0.3-0.2-0.8-0.2-1.2-0.2c-0.5-0.1-0.9-0.1-1.4-0.2c-0.9-0.1-1.8-0.2-2.7-0.3C92.2,50.2,92.2,50.6,92.5,50.7
			L92.5,50.7z"/>
	</g>
</g>
<g>
	<g>
		<path class="st2" d="M92.5,49.3c0.8,0.2,1.7,0.3,2.5,0.4c0.4,0,0.8,0.1,1.3,0.1c0.4,0,0.9,0.1,1.2-0.1c0.2-0.1,0.1-0.3,0-0.3
			c-0.2-0.1-0.4,0-0.6,0c-0.2,0-0.4,0-0.6,0c-0.4,0-0.8,0-1.2,0c-0.8-0.1-1.6-0.2-2.5-0.3C92.3,48.9,92.2,49.3,92.5,49.3L92.5,49.3z
			"/>
	</g>
</g>
<g>
	<g>
		<path class="st2" d="M94.5,47.9c0.8,0,1.7,0,2.5,0c0.3,0,0.3-0.4,0-0.4c-0.8,0-1.7,0-2.5,0C94.2,47.4,94.2,47.9,94.5,47.9
			L94.5,47.9z"/>
	</g>
</g>
<g>
	<g>
		<path class="st2" d="M93.8,45.6c0.5,0,1,0.1,1.5,0.1c0.2,0,0.5,0,0.7,0.1c0.2,0,0.6,0.1,0.7-0.1c0-0.1,0.1-0.1,0-0.2
			c-0.1-0.2-0.5-0.2-0.7-0.2c-0.2,0-0.5,0-0.7-0.1c-0.5,0-1-0.1-1.5-0.1C93.5,45.2,93.5,45.6,93.8,45.6L93.8,45.6z"/>
	</g>
</g>
<g>
	<g>
		<path class="st2" d="M94.8,43.2c0.2,0,0.3,0,0.5,0c0.1,0,0.2,0,0.3,0c0.1,0,0.1,0,0.2,0c0,0,0.1,0,0.1,0c0.2,0,0.2-0.3,0-0.3
			c0,0-0.1,0-0.1,0c-0.1,0-0.1,0-0.2,0c-0.1,0-0.2,0-0.3,0c-0.2,0-0.3,0-0.5,0c-0.1,0-0.2,0.1-0.2,0.2
			C94.6,43.1,94.7,43.2,94.8,43.2L94.8,43.2z"/>
	</g>
</g>
<g>
	<g>
		<path class="st2" d="M96.3,39.1C96.3,39.1,96.3,39.1,96.3,39.1C96.3,39.1,96.3,39.1,96.3,39.1L96.3,39.1z"/>
	</g>
</g>
<g>
	<g>
		<path class="st2" d="M96.3,37.1C96.3,37.1,96.3,37.1,96.3,37.1C96.3,37.1,96.3,37.1,96.3,37.1L96.3,37.1z"/>
	</g>
</g>
<g>
	<g>
		<path class="st2" d="M139.5,36.5c-0.8,0.6-1.6,1.2-2.4,1.7c-0.9,0.5-1.8,0.8-2.7,1.2c-0.2,0.1-0.1,0.4,0.2,0.4
			c1-0.3,1.9-0.7,2.8-1.2c0.9-0.5,1.7-1.1,2.5-1.7C140,36.6,139.7,36.3,139.5,36.5L139.5,36.5z"/>
	</g>
</g>
<g>
	<g>
		<path class="st2" d="M139.4,38.4c-0.6,0.4-1.1,0.8-1.7,1.2c-0.3,0.2-0.6,0.4-0.9,0.6c-0.1,0.1-0.3,0.2-0.4,0.3
			c-0.1,0.1-0.3,0.2-0.3,0.3c0,0.1,0.1,0.2,0.2,0.2c0.2,0,0.3-0.1,0.4-0.2c0.1-0.1,0.3-0.2,0.4-0.3c0.3-0.2,0.6-0.4,0.8-0.6
			c0.6-0.4,1.1-0.8,1.7-1.1C139.9,38.7,139.6,38.3,139.4,38.4L139.4,38.4z"/>
	</g>
</g>
<g>
	<g>
		<path class="st2" d="M138.2,41.2c-0.3,0.2-0.6,0.5-0.9,0.7c-0.1,0.1-0.3,0.2-0.4,0.4c-0.1,0.1-0.3,0.3-0.4,0.4
			c-0.1,0.1-0.1,0.2,0,0.2c0,0.1,0.2,0.1,0.2,0c0.2-0.1,0.3-0.2,0.5-0.4c0.1-0.1,0.3-0.3,0.4-0.4c0.3-0.2,0.6-0.5,0.9-0.7
			c0.1-0.1,0.1-0.2,0.1-0.3C138.4,41.2,138.3,41.1,138.2,41.2L138.2,41.2z"/>
	</g>
</g>
<g>
	<g>
		<path class="st2" d="M137.8,43.4c-0.3,0.1-0.5,0.3-0.8,0.4c-0.1,0.1-0.3,0.1-0.4,0.2c-0.1,0-0.1,0.1-0.2,0.1
			c-0.1,0-0.2,0.1-0.2,0.2c-0.1,0.1,0,0.3,0.2,0.3c0.2,0,0.3-0.1,0.5-0.2c0.1-0.1,0.3-0.1,0.4-0.2c0.3-0.1,0.5-0.3,0.8-0.4
			c0.1-0.1,0.1-0.2,0.1-0.3C138,43.3,137.9,43.3,137.8,43.4L137.8,43.4z"/>
	</g>
</g>
<g>
	<g>
		<path class="st2" d="M137.2,45.3c0,0.1-0.1,0.2-0.1,0.3c0,0,0,0,0,0.1c0,0,0,0,0,0.1c0,0,0,0,0,0c0,0,0,0,0.1,0c0,0,0,0,0,0
			c0,0,0,0,0.1,0c0,0,0.1,0,0.1-0.1c0.1-0.1,0.1-0.2,0.2-0.2c0,0,0-0.1,0-0.2c0,0,0-0.1-0.1-0.1c0,0,0,0-0.1,0c0,0,0,0-0.1,0
			c0,0-0.1,0-0.1,0C137.3,45.2,137.3,45.2,137.2,45.3C137.2,45.3,137.2,45.3,137.2,45.3L137.2,45.3z"/>
	</g>
</g>
<g>
	<g>
		<path class="st2" d="M136.9,46.9C136.9,46.9,136.9,46.9,136.9,46.9C136.9,46.9,136.9,46.9,136.9,46.9L136.9,46.9z"/>
	</g>
</g>
<g>
	<g>
		<path class="st2" d="M168.8,41.5c2.4,0.5,4.8,1,7.2,1.5c1.2,0.3,2.3,0.5,3.5,0.8c1.1,0.2,2.3,0.6,3.4,0.7c0.2,0,0.2-0.3,0-0.3
			c-1.1-0.4-2.3-0.5-3.5-0.8c-1.2-0.3-2.3-0.5-3.5-0.8c-2.3-0.5-4.7-1-7-1.5C168.6,41,168.5,41.4,168.8,41.5L168.8,41.5z"/>
	</g>
</g>
<g>
	<g>
		<path class="st2" d="M168.3,43.8c2.7,0.7,5.4,1.5,8.1,2.2c1.3,0.4,2.7,0.7,4,1.1c1.3,0.4,2.7,0.9,4,1.1c0.2,0,0.3-0.3,0.1-0.3
			c-1.3-0.5-2.7-0.8-4-1.2c-1.3-0.4-2.7-0.7-4-1.1c-2.7-0.7-5.4-1.5-8.1-2.2C168.1,43.3,168,43.7,168.3,43.8L168.3,43.8z"/>
	</g>
</g>
<g>
	<g>
		<path class="st2" d="M171.1,47c4.1,1,8.2,2.2,12.3,3.3c0.3,0.1,0.4-0.3,0.1-0.4c-4.1-1.2-8.2-2.3-12.3-3.4
			C170.9,46.5,170.8,46.9,171.1,47L171.1,47z"/>
	</g>
</g>
<g>
	<g>
		<path class="st2" d="M173.1,50.1c1.8,0.4,3.5,0.9,5.3,1.3c0.9,0.2,1.7,0.4,2.6,0.6c0.8,0.2,1.7,0.5,2.6,0.6c0.2,0,0.2-0.3,0.1-0.3
			c-0.8-0.3-1.6-0.4-2.4-0.6c-0.9-0.2-1.8-0.4-2.7-0.7c-1.8-0.4-3.5-0.9-5.3-1.3C173,49.6,172.9,50,173.1,50.1L173.1,50.1z"/>
	</g>
</g>
<g>
	<g>
		<path class="st2" d="M173,52.3c1.5,0.2,2.9,0.5,4.4,0.8c0.7,0.2,1.4,0.4,2.1,0.6c0.7,0.2,1.4,0.5,2.1,0.6c0.2,0,0.2-0.2,0.1-0.3
			c-0.6-0.3-1.4-0.5-2-0.7c-0.7-0.2-1.4-0.4-2.1-0.6c-1.4-0.3-2.9-0.6-4.4-0.8C172.8,51.9,172.7,52.3,173,52.3L173,52.3z"/>
	</g>
</g>
<g>
	<g>
		<path class="st2" d="M174.2,55.1c0.8,0.2,1.6,0.5,2.4,0.8c0.4,0.1,0.8,0.3,1.2,0.5c0.4,0.2,0.8,0.4,1.2,0.5c0.2,0,0.3-0.2,0.1-0.3
			c-0.3-0.2-0.8-0.4-1.1-0.5c-0.4-0.2-0.8-0.3-1.2-0.5c-0.8-0.3-1.6-0.6-2.5-0.8C174.1,54.6,173.9,55,174.2,55.1L174.2,55.1z"/>
	</g>
</g>
<g>
	<g>
		<path class="st2" d="M171.3,56.7c0.5,0.3,1,0.5,1.6,0.8c0.3,0.1,0.5,0.3,0.8,0.4c0.1,0.1,0.3,0.1,0.4,0.2c0.1,0.1,0.3,0.2,0.4,0.2
			c0.1,0,0.2-0.1,0.2-0.3c-0.1-0.1-0.2-0.2-0.3-0.2c-0.1-0.1-0.3-0.1-0.4-0.2c-0.3-0.1-0.5-0.3-0.8-0.4c-0.5-0.3-1-0.5-1.6-0.8
			C171.3,56.2,171.1,56.6,171.3,56.7L171.3,56.7z"/>
	</g>
</g>
<g>
	<g>
		<path class="st2" d="M170.6,58.2C170.6,58.2,170.6,58.2,170.6,58.2C170.6,58.2,170.6,58.2,170.6,58.2L170.6,58.2z"/>
	</g>
</g>
<g>
	<g>
		<path class="st2" d="M164.1,50.2c0.4-0.1,0.9-0.2,1.3-0.2c0.2,0,0.4,0,0.7,0c0.2,0,0.5,0.1,0.7,0c0.1,0,0.1-0.2,0.1-0.3
			c-0.2-0.2-0.4-0.2-0.7-0.2c-0.2,0-0.5-0.1-0.7-0.1c-0.5,0-1,0.1-1.4,0.2C163.7,49.8,163.9,50.3,164.1,50.2L164.1,50.2z"/>
	</g>
</g>
<g>
	<g>
		<path class="st2" d="M164.3,46.5C164.3,46.5,164.3,46.5,164.3,46.5C164.2,46.5,164.2,46.5,164.3,46.5L164.3,46.5z"/>
	</g>
</g>
<g>
	<g>
		<path class="st2" d="M162.6,43.3c0.1,0,0.2,0.1,0.3,0.1c0,0,0.1,0,0.1,0c0,0,0.1,0,0.1,0c0,0,0,0,0.1,0c0.1,0,0.1,0,0.2-0.1
			c0,0,0-0.1,0-0.1c0,0,0-0.1,0-0.1c0,0,0,0-0.1,0c0,0,0,0-0.1,0c0,0,0,0-0.1,0c0,0-0.1,0-0.1,0c-0.1,0-0.2-0.1-0.3-0.1
			c-0.1,0-0.1,0-0.2,0c0,0-0.1,0.1-0.1,0.1C162.4,43.2,162.5,43.3,162.6,43.3L162.6,43.3z"/>
	</g>
</g>
<g>
	<g>
		<path class="st2" d="M248.2,33c-0.5,0.3-1.1,0.6-1.6,1c-0.2,0.2-0.5,0.4-0.7,0.5c-0.1,0.1-0.2,0.2-0.4,0.3
			c-0.1,0.1-0.3,0.2-0.2,0.4c0,0.1,0,0.1,0.1,0.1c0.2,0,0.3-0.1,0.4-0.2c0.1-0.1,0.2-0.2,0.3-0.3c0.2-0.2,0.5-0.4,0.7-0.6
			c0.5-0.4,1-0.7,1.6-1C248.6,33.2,248.4,32.8,248.2,33L248.2,33z"/>
	</g>
</g>
<g>
	<g>
		<path class="st2" d="M247.5,35.7c-0.4,0.2-0.7,0.4-1.1,0.7c-0.2,0.1-0.3,0.3-0.4,0.5c-0.1,0.1-0.1,0.2-0.2,0.3
			c-0.1,0.1-0.2,0.2-0.1,0.4c0,0.1,0.1,0.1,0.2,0.1c0.1,0,0.2-0.1,0.3-0.2c0.1-0.1,0.1-0.1,0.2-0.2c0.1-0.2,0.3-0.3,0.4-0.4
			c0.3-0.3,0.6-0.5,1-0.7c0.1-0.1,0.1-0.2,0.1-0.3C247.7,35.7,247.6,35.7,247.5,35.7L247.5,35.7z"/>
	</g>
</g>
<g>
	<g>
		<path class="st2" d="M246.9,37.7c-0.2,0.2-0.4,0.4-0.5,0.6c-0.1,0.1-0.2,0.2-0.3,0.3c0,0.1-0.1,0.1-0.1,0.2c0,0-0.1,0.1-0.1,0.1
			c0,0,0,0.1,0,0.1c0,0.1,0,0.1,0,0.2c0.1,0.1,0.1,0.1,0.2,0c0.1,0,0.1-0.1,0.2-0.1c0-0.1,0.1-0.1,0.1-0.2c0.1-0.1,0.2-0.2,0.3-0.3
			c0.2-0.2,0.4-0.4,0.5-0.6c0.1-0.1,0.1-0.2,0-0.3C247.1,37.6,246.9,37.6,246.9,37.7L246.9,37.7z"/>
	</g>
</g>
<g>
	<g>
		<path class="st2" d="M245.4,42.1C245.5,42.1,245.5,42.1,245.4,42.1C245.4,42.1,245.4,42.1,245.4,42.1L245.4,42.1z"/>
	</g>
</g>
<g>
	<g>
		<path class="st2" d="M243.7,45.8C243.7,45.8,243.7,45.7,243.7,45.8C243.7,45.7,243.7,45.8,243.7,45.8L243.7,45.8z"/>
	</g>
</g>
<g>
	<g>
		<path class="st2" d="M239.3,37.3c-1.2-0.2-2.4-0.2-3.5,0c-0.6,0.1-1.2,0.3-1.7,0.5c-0.3,0.1-0.5,0.2-0.8,0.3
			c-0.3,0.1-0.6,0.2-0.8,0.5c-0.1,0.1,0,0.3,0.2,0.3c0.3-0.1,0.5-0.2,0.8-0.4c0.3-0.1,0.5-0.2,0.8-0.3c0.5-0.2,1-0.3,1.6-0.4
			c1.1-0.2,2.3-0.2,3.4,0C239.5,37.8,239.6,37.4,239.3,37.3L239.3,37.3z"/>
	</g>
</g>
<g>
	<g>
		<path class="st2" d="M236.7,38.9c-0.7,0-1.4,0-2.1,0.1c-0.3,0-0.7,0.1-1,0.2c-0.3,0.1-0.7,0.1-1,0.3c-0.1,0.1-0.1,0.4,0.1,0.3
			c0.3,0,0.7-0.2,1-0.2c0.3-0.1,0.7-0.1,1-0.2c0.7-0.1,1.4-0.1,2-0.1C236.9,39.3,236.9,38.9,236.7,38.9L236.7,38.9z"/>
	</g>
</g>
<g>
	<g>
		<path class="st2" d="M235.6,40.9c-0.4,0-0.9,0-1.3,0.1c-0.2,0-0.4,0.1-0.6,0.1c-0.2,0.1-0.4,0.1-0.6,0.3c0,0.1,0,0.2,0.1,0.2
			c0.2,0.1,0.4,0,0.6-0.1c0.2-0.1,0.4-0.1,0.6-0.1c0.4-0.1,0.8-0.1,1.2-0.1C235.9,41.3,235.9,40.9,235.6,40.9L235.6,40.9z"/>
	</g>
</g>
<g>
	<g>
		<path class="st2" d="M235.5,43.5c-0.1,0.1-0.2,0.1-0.3,0.2c-0.1,0-0.1,0.1-0.1,0.2c0,0,0,0.1,0.1,0.1c0,0,0.1,0,0.1,0
			c0.1,0,0.2-0.1,0.4-0.1c0,0,0.1,0,0.1-0.1c0,0,0,0,0,0c0,0,0-0.1,0-0.1c0,0,0-0.1,0-0.1c0-0.1-0.1-0.1-0.1-0.1c0,0-0.1,0-0.1,0
			C235.6,43.4,235.5,43.4,235.5,43.5L235.5,43.5z"/>
	</g>
</g>
<g>
	<g>
		<path class="st2" d="M234.2,43.6C234.2,43.6,234.2,43.6,234.2,43.6C234.2,43.6,234.2,43.6,234.2,43.6L234.2,43.6z"/>
	</g>
</g>
<g>
	<g>
		<path class="st2" d="M245.6,20.4c-0.8,0.3-1.7,0.6-2.6,0.7c-0.5,0.1-0.9,0.1-1.4,0.1c-0.2,0-0.5,0-0.7,0c-0.2,0-0.4,0-0.6,0
			c-0.1,0-0.2,0.2,0,0.3c0.4,0.2,0.9,0.1,1.3,0.1c0.5,0,0.9,0,1.4-0.1c0.9-0.1,1.9-0.4,2.7-0.7C246,20.7,245.9,20.3,245.6,20.4
			L245.6,20.4z"/>
	</g>
</g>
<g>
	<g>
		<path class="st2" d="M246,21.2c-0.6,0-1.2,0.1-1.9,0.1c-0.3,0-0.6,0-0.9,0.1c-0.2,0-0.3,0-0.5,0c-0.1,0-0.3,0-0.4,0.1
			c-0.1,0.1,0,0.2,0,0.2c0.1,0.1,0.3,0.1,0.4,0.1c0.1,0,0.3,0,0.4,0c0.3,0,0.6,0,0.9-0.1c0.6,0,1.2-0.1,1.8-0.1
			C246.2,21.5,246.2,21.1,246,21.2L246,21.2z"/>
	</g>
</g>
<g>
	<g>
		<path class="st2" d="M244.7,22.7c-0.1,0-0.3,0-0.4,0c-0.1,0-0.3,0-0.4,0c-0.1,0-0.2,0.1-0.2,0.2c0,0.1,0.1,0.2,0.2,0.2
			c0.1,0,0.3,0,0.4,0c0.1,0,0.3,0,0.4,0c0.1,0,0.2-0.1,0.2-0.2C244.9,22.8,244.9,22.7,244.7,22.7L244.7,22.7z"/>
	</g>
</g>
<g>
	<g>
		<path class="st2" d="M213.5,15.4c0.6-0.1,1.2-0.1,1.8-0.1c0.3,0,0.6,0,0.9,0c0.3,0,0.6,0.1,0.9-0.1c0.1-0.1,0.1-0.2,0-0.3
			c-0.2-0.1-0.6-0.1-0.8-0.1c-0.3,0-0.6,0-0.9,0c-0.6,0-1.2,0.1-1.8,0.1C213.2,15,213.2,15.5,213.5,15.4L213.5,15.4z"/>
	</g>
</g>
<g>
	<g>
		<path class="st2" d="M214.7,13.5c0.7-0.1,1.4-0.1,2-0.2c0.3,0,0.7-0.1,1-0.1c0.3,0,0.7,0,0.9-0.2c0.1-0.1,0-0.2,0-0.2
			c-0.2-0.2-0.6,0-0.9,0c-0.3,0-0.7,0.1-1,0.1c-0.7,0.1-1.3,0.1-2,0.2C214.4,13.1,214.4,13.5,214.7,13.5L214.7,13.5z"/>
	</g>
</g>
<g>
	<g>
		<path class="st2" d="M215.6,11c1,0,1.9,0,2.9,0.1c0.5,0,0.9,0.1,1.4,0.1c0.3,0,0.5,0.1,0.7,0.1c0.2,0,0.4,0.1,0.6,0
			c0.2,0,0.2-0.3,0-0.3c-0.2-0.1-0.4-0.1-0.7-0.2c-0.2,0-0.5-0.1-0.7-0.1c-0.5-0.1-0.9-0.1-1.4-0.1c-1-0.1-2-0.1-2.9-0.1
			C215.3,10.6,215.3,11,215.6,11L215.6,11z"/>
	</g>
</g>
<g>
	<g>
		<path class="st2" d="M218.1,9.1c0.8,0.2,1.6,0.3,2.4,0.5c0.4,0.1,0.8,0.2,1.2,0.2c0.4,0.1,0.8,0.2,1.2,0.2c0.2,0,0.2-0.3,0-0.3
			c-0.4-0.1-0.8-0.2-1.2-0.3c-0.4-0.1-0.8-0.2-1.2-0.2c-0.8-0.2-1.6-0.3-2.4-0.5C218,8.6,217.9,9,218.1,9.1L218.1,9.1z"/>
	</g>
</g>
<g>
	<g>
		<path class="st2" d="M138.9,5c3,0.1,6,0.1,9-0.4c0.2,0,0.2-0.4-0.1-0.4c-3,0.3-6,0.5-9,0.4C138.7,4.6,138.7,5,138.9,5L138.9,5z"/>
	</g>
</g>
<g>
	<g>
		<path class="st2" d="M141.4,6.9c1-0.1,2.1-0.2,3.1-0.4c0.5-0.1,1-0.1,1.5-0.2c0.5-0.1,1,0,1.4-0.2c0.1-0.1,0.1-0.3,0-0.3
			c-0.5-0.1-1,0.1-1.5,0.1c-0.5,0.1-1,0.1-1.5,0.2c-1,0.1-2,0.2-3,0.4C141.1,6.5,141.1,7,141.4,6.9L141.4,6.9z"/>
	</g>
</g>
<g>
	<g>
		<path class="st2" d="M145.3,8.5c0.7,0,1.4-0.1,2.1-0.1c0.3,0,0.7,0,1-0.1c0.3,0,0.7,0,1-0.1c0.2-0.1,0.2-0.3,0-0.3
			c-0.3-0.1-0.7,0-1,0c-0.3,0-0.7,0-1,0.1c-0.7,0-1.4,0.1-2.1,0.1C145,8.1,145,8.6,145.3,8.5L145.3,8.5z"/>
	</g>
</g>
<g>
	<g>
		<path class="st2" d="M148.4,10.3C148.4,10.3,148.4,10.2,148.4,10.3C148.4,10.2,148.4,10.3,148.4,10.3L148.4,10.3z"/>
	</g>
</g>
<g>
	<g>
		<path class="st2" d="M149.3,11.3C149.3,11.3,149.3,11.3,149.3,11.3C149.3,11.3,149.3,11.3,149.3,11.3L149.3,11.3z"/>
	</g>
</g>
</svg>
