<svg xmlns="http://www.w3.org/2000/svg" version="1.1" xmlns:xlink="http://www.w3.org/1999/xlink" width="512" height="512" x="0" y="0" viewBox="0 0 512.002 512.002" style="enable-background:new 0 0 512 512" xml:space="preserve" class=""><g><path fill="#f5fcff" d="M445.599 66.402C371.056-8.141 167.162-11.919 79.468 55.047c-79.762 79.762-75.399 303.799-.856 378.342s294.013 83.473 378.342-.856c66.966-87.694 63.188-291.588-11.355-366.131z" opacity="1" data-original="#f5fcff" class=""></path><path fill="#d3effd" d="M90.823 421.177c-74.542-74.543-78.32-278.437-11.355-366.13-4.696 3.586-9.076 7.364-13.068 11.355-78.534 78.535-78.534 300.664 0 379.198 78.535 78.534 300.664 78.534 379.198 0 3.992-3.991 7.769-8.372 11.355-13.068-87.692 66.966-291.586 63.188-366.13-11.355z" opacity="1" data-original="#d3effd" class=""></path><path fill="#d3effd" d="M161.192 374.752V172.995c0-14.361 15.888-23.035 27.968-15.269l156.925 100.878c11.115 7.145 11.115 23.393 0 30.539L189.16 390.021c-12.08 7.766-27.968-.908-27.968-15.269z" opacity="1" data-original="#d3effd" class=""></path><path fill="#6cb9e7" d="M364.402 240.287 207.477 139.409c-3.078-1.979-6.404-2.885-9.651-2.907L182.258 362.11l24.785 5.653L372.35 259.175c1.394-6.945-1.236-14.574-7.948-18.888z" opacity="1" data-original="#ffe07d" class=""></path><path fill="#2c8bb8" d="M197.826 338.118V136.502c-9.495-.064-18.317 7.475-18.317 18.176v201.757c0 14.361 15.888 23.035 27.968 15.269l156.925-100.878c4.404-2.831 7.034-7.095 7.948-11.651l-146.556 94.213c-12.08 7.765-27.968-.909-27.968-15.27z" opacity="1" data-original="#ffc250" class=""></path><path d="M256 512.001c-39.061 0-77.234-5.199-110.395-15.035-35.758-10.606-64.98-26.535-84.509-46.063-19.527-19.528-35.456-48.751-46.063-84.508C5.198 333.236 0 295.062 0 256.001s5.198-77.234 15.034-110.395c10.606-35.758 26.535-64.98 46.063-84.509 19.528-19.527 48.751-35.456 84.509-46.063C178.766 5.199 216.939.001 256 .001s77.234 5.198 110.395 15.034c35.758 10.606 64.98 26.535 84.509 46.063a7.5 7.5 0 0 1-10.607 10.607C405.319 36.729 334.701 15.001 256 15.001S106.681 36.729 71.704 71.705 15 177.3 15 256.001 36.728 405.32 71.704 440.296c34.977 34.978 105.595 56.705 184.296 56.705s149.319-21.728 184.296-56.705c31.392-31.391 52.365-91.862 56.104-161.76 3.698-69.137-9.642-136.472-35.683-180.121a7.499 7.499 0 0 1 2.598-10.283 7.498 7.498 0 0 1 10.283 2.598c27.508 46.106 41.631 116.614 37.78 188.607-3.989 74.59-26.031 137.123-60.475 171.566-19.528 19.527-48.751 35.456-84.509 46.063-33.16 9.836-71.333 15.035-110.394 15.035zm-58.311-129.858c-4.201 0-8.415-1.061-12.321-3.193-8.365-4.567-13.359-12.983-13.359-22.515V154.678c0-9.531 4.994-17.947 13.359-22.515 8.364-4.567 18.146-4.22 26.165.937l68.646 44.13a7.5 7.5 0 1 1-8.111 12.617l-68.646-44.13c-3.329-2.14-7.391-2.284-10.865-.389-3.474 1.896-5.548 5.392-5.548 9.35v201.757c0 3.958 2.074 7.453 5.548 9.35 3.475 1.897 7.536 1.751 10.865-.389l156.925-100.879c3.109-1.999 4.892-5.264 4.893-8.96 0-3.696-1.783-6.962-4.893-8.961l-57.612-37.036a7.5 7.5 0 0 1-2.253-10.364 7.497 7.497 0 0 1 10.364-2.253l57.612 37.036a25.547 25.547 0 0 1 11.781 21.579 25.55 25.55 0 0 1-11.781 21.577L211.533 378.013c-4.273 2.747-9.05 4.13-13.844 4.13z" fill="#000000" opacity="1" data-original="#000000"></path></g></svg>