<?xml version="1.0" encoding="utf-8"?>
<!-- Generator: Adobe Illustrator 28.3.0, SVG Export Plug-In . SVG Version: 6.00 Build 0)  -->
<svg version="1.1" id="Layer_1" xmlns="http://www.w3.org/2000/svg" xmlns:xlink="http://www.w3.org/1999/xlink" x="0px" y="0px"
	 viewBox="0 0 1314.9 506.6" style="enable-background:new 0 0 1314.9 506.6;" xml:space="preserve">
<style type="text/css">
	.st0{fill:#FFFFFF;}
	.st1{fill:#DFF3FD;}
	.st2{fill:#B4DEF7;}
</style>
<g>
	<path class="st0" d="M1300.8,208.9c-6.7,8.3-18.2,10.7-28.8,11.2c-24,1.2-48.2-4.1-69.5-15.3c-13.7-7.2-27.1-17.1-42.6-17.2
		c-8.1-0.1-16.1,2.6-24.2,2.5c-16.1-0.2-29.7-11.1-44.1-18.2c-33.5-16.4-76.2-11.7-105.4,11.6c-14.8,11.8-25.9,27.6-40.1,40
		c-14.2,12.4-33.8,21.5-51.9,15.8c-27.7-8.7-36.2-45.5-61.4-59.9c-28.3-16.1-62.7,2.2-94.4,9.9c-47.2,11.6-96.4-1.3-144.2-10.2
		c-47.8-8.9-100.7-12.9-141.5,13.6c-19.7,12.8-30.2,33.7-56,36.3c-6.5,0.7-13.4,0.3-19.3,3.1c-12.2,5.9-14.6,22.5-24.5,31.7
		c-11.8,11.1-31.4,9.2-44.2,19.1c-11.5,8.9-14.6,25-14,39.5c0.6,14.5,4,29.1,2.1,43.5c-0.8,6.2-3.4,13.1-9.3,15.3
		c-5.8,2.1-12.2-1.3-16.5-5.7c-4.8-4.8-8.3-10.7-10.2-17.2c-1-3.2-1.5-6.6-1.6-10c-0.4-10.7,3.2-22.7-3.4-31.2
		c-2.9-3.8-7.5-6.1-11-9.4c-8.2-7.6-10.1-19.6-14-30.1c-8.1-21.6-41.8-28.5-56.1-8.3c-0.3,0.4-0.6,0.9-0.9,1.4
		c-4.1,6.5-5.9,14.2-10.1,20.6c-5.4,8.2-14.4,13.7-19.1,22.4c-4.8,8.9-4.4,19.6-7.5,29.2c-3.1,9.6-13.2,18.8-22.4,14.7
		c-6.6-3-12-12.1-18.5-9c-1.9,0.9-3.3,2.7-4.4,4.6c-10.2,16.8-10.8,37.8-19.5,55.4c-5.4,10.9-13.8,20.3-18.2,31.6
		c-3.8,9.8-4.4,20.5-6.7,30.7c-2.3,10.2-7.1,20.8-16.2,25.9c-1.7,0.9-3.6,1.7-5.5,1.2c-3.5-0.9-4.6-5.2-5.1-8.8
		c-0.9-7-1.6-14.2-2.2-21.5c-3.4-42.5-3-83.9-1.8-126.7c0.3-9.1,0.5-18.2,1.9-27.2c0.8-5.5,2.1-11,4-16.3
		c8.7-23.7,29.7-40.9,40.8-63.6c9-18.5,11.1-40,21.8-57.6c30-49.6,106.9-42.9,150.2-81.4c19.6-17.5,31.5-43.7,54.5-56.4
		c23.2-12.8,51.8-8.6,77.3-1.5c25.5,7.1,51.3,16.8,77.6,14c41.8-4.5,75.9-39.6,117.8-42.2c30.2-1.9,59.2,13.7,89.5,13.5
		c14.4-0.1,28.5-3.7,42.9-3.7c31.8,0,62.3,17.5,93.9,14.5c15.7-1.5,30.8-8.1,46.7-8.2c24.5-0.1,46.1,15.2,69.9,21.2
		c22.3,5.6,45.9,2.9,68.1,8.8c23.1,6.1,42,22.9,65.3,31.2c37.6,13.2,78.5,18,118.3,24.7c30.5,5.1,60.4,11.3,87.6,23.2
		c13.6,6,26.5,13.3,38.5,22.7C1299.4,169.5,1313.5,193,1300.8,208.9z"/>
	<path class="st1" d="M1300.8,208.9c-6.7,8.3-18.2,10.7-28.8,11.2c-24,1.2-48.2-4.1-69.5-15.3c-13.7-7.2-27.1-17.1-42.6-17.2
		c-8.1-0.1-16.1,2.6-24.2,2.5c-16.1-0.2-29.7-11.1-44.1-18.2c-33.5-16.4-76.2-11.7-105.4,11.6c-14.8,11.8-25.9,27.6-40.1,40
		c-14.2,12.4-33.8,21.5-51.9,15.8c-27.7-8.7-36.2-45.5-61.4-59.9c-28.3-16.1-62.7,2.2-94.4,9.9c-47.2,11.6-96.4-1.3-144.2-10.2
		c-47.8-8.9-100.7-12.9-141.5,13.6c-19.7,12.8-30.2,33.7-56,36.3c-6.5,0.7-13.4,0.3-19.3,3.1c-12.2,5.9-14.6,22.5-24.5,31.7
		c-11.8,11.1-31.4,9.2-44.2,19.1c-11.5,8.9-14.6,25-14,39.5c0.6,14.5,4,29.1,2.1,43.5c-0.8,6.2-3.4,13.1-9.3,15.3
		c-5.8,2.1-12.2-1.3-16.5-5.7c-4.8-4.8-8.3-10.7-10.2-17.2c-1-3.2-1.5-6.6-1.6-10c-0.4-10.7,3.2-22.7-3.4-31.2
		c-2.9-3.8-7.5-6.1-11-9.4c-8.2-7.6-10.1-19.6-14-30.1c-8.1-21.6-41.8-28.5-56.1-8.3c-0.3,0.4-0.6,0.9-0.9,1.4
		c-4.1,6.5-5.9,14.2-10.1,20.6c-5.4,8.2-14.4,13.7-19.1,22.4c-4.8,8.9-4.4,19.6-7.5,29.2c-3.1,9.6-13.2,18.8-22.4,14.7
		c-6.6-3-12-12.1-18.5-9c-1.9,0.9-3.3,2.7-4.4,4.6c-10.2,16.8-10.8,37.8-19.5,55.4c-5.4,10.9-13.8,20.3-18.2,31.6
		c-3.8,9.8-4.4,20.5-6.7,30.7c-2.3,10.2-7.1,20.8-16.2,25.9c-1.7,0.9-3.6,1.7-5.5,1.2c-3.5-0.9-4.6-5.2-5.1-8.8
		c-0.9-7-1.6-14.2-2.2-21.5c-3.4-42.5-3-83.9-1.8-126.7c0.3-9.1,0.5-18.2,1.9-27.2c16.4-7.8,26.1-24.9,34.1-41.3
		c8.1-16.5,16.3-34.1,31.6-44.2c27.8-18.2,65.6-3.9,97.4-13.1c23.7-6.8,41.8-26,56.2-46s26.7-41.9,44.7-58.8
		c18-16.8,44-28,67.5-20.5c7.9,2.5,15,6.9,22.6,10.1c20.1,8.5,43.8,8.3,63.7-0.8c10.9-5,21.3-12.8,33.3-12.8
		c14.3,0,25.9,10.9,38.3,18c47.4,27.3,73.2-4.6,114.6-20.1c46.1-17.2,93,31.7,142,27.8c38.8-3.1,71.4-39,110-34.5
		c23.1,2.7,42.3,19.5,65,24.6c30,6.8,61-7.7,91.5-4.5c36.6,3.8,71.1,32.6,106.5,22.6c7.1-2,13.5-5.4,19.6-9.5
		c30.5,5.1,60.4,11.3,87.6,23.2c13.6,6,26.5,13.3,38.5,22.7C1299.4,169.5,1313.5,193,1300.8,208.9z"/>
	<path class="st2" d="M174.7,269.6c-0.3,0.4-0.6,0.9-0.9,1.4c-4.1,6.5-5.9,14.2-10.1,20.6c-5.4,8.2-14.4,13.7-19.1,22.4
		c-4.8,8.9-4.4,19.6-7.5,29.2c-3.1,9.6-13.2,18.8-22.4,14.7c-6.6-3-12-12.1-18.5-9c-1.9,0.9-3.3,2.7-4.4,4.6
		c-10.2,16.8-10.8,37.8-19.5,55.4c-5.4,10.9-13.8,20.3-18.2,31.6c-3.8,9.8-4.4,20.5-6.7,30.7c-2.3,10.2-7.1,20.8-16.2,25.9
		c-1.7,0.9-3.6,1.7-5.5,1.2c-3.5-0.9-4.6-5.2-5.1-8.8c-0.9-7-1.6-14.2-2.2-21.5c2.4-0.5,4.8-1.4,7.3-2.7
		c20.6-11.3,35.7-57,38.2-78.5c1.3-11.1,0.4-22.8,5.2-32.8c1.9-4.1,4.8-7.7,6.5-11.9c3.6-8.6,2.4-18.3,1.5-27.6
		c-0.9-9.3-1.3-19.3,3.7-27.1c5-7.8,17.5-11.4,23.7-4.5c6.6,7.3,3.1,21.7,11.9,26.2c7.3,3.7,15.4-3.5,19.3-10.6
		c3.9-7.2,7.5-15.9,15.3-18.1c3.9-1.1,8.3-0.3,11.8-2.3c3.6-2.1,5.3-6.9,9.2-8.2C173,269.6,173.9,269.5,174.7,269.6z"/>
	<path class="st2" d="M1300.8,208.9c-6.7,8.3-18.2,10.7-28.8,11.2c-24,1.2-48.2-4.1-69.5-15.3c-13.7-7.2-27.1-17.1-42.6-17.2
		c-8.1-0.1-16.1,2.6-24.2,2.5c-16.1-0.2-29.7-11.1-44.1-18.2c-33.5-16.4-76.2-11.7-105.4,11.6c-14.8,11.8-25.9,27.6-40.1,40
		c-14.2,12.4-33.8,21.5-51.9,15.8c-27.7-8.7-36.2-45.5-61.4-59.9c-28.3-16.1-62.7,2.2-94.4,9.9c-47.2,11.6-96.4-1.3-144.2-10.2
		c-47.8-8.9-100.7-12.9-141.5,13.6c-19.7,12.8-30.2,33.7-56,36.3c-6.5,0.7-13.4,0.3-19.3,3.1c-12.2,5.9-14.6,22.5-24.5,31.8
		c-11.8,11.1-31.4,9.2-44.2,19.1c-11.5,8.9-14.6,25-14,39.5c0.6,14.5,4,29.1,2.1,43.5c-0.8,6.2-3.4,13.1-9.3,15.3
		c-5.8,2.1-12.2-1.3-16.5-5.7c-4.8-4.8-8.3-10.7-10.2-17.2c5.7-0.8,11.3-4.6,14.3-9.7c6.7-11.6,4.8-25,2.6-37.6
		c-2-11.2-7.1-26.5,3.4-35c4.1-3.3,9-5.4,13.1-8.8c11.1-9.3,12.1-25.6,14.2-39.9c2.4-17,7.5-33.7,15-49.2c2.8-5.7,7.6-12.2,13.8-11
		c3.7,0.7,6.4,4.2,7.6,7.8c2.3,6.6,1,14,2.4,20.9c1.4,6.9,7.9,13.9,14.5,11.5c2.7-1,5-3.5,7.9-3.1c2,0.2,3.6,1.9,5.6,2.5
		c4.4,1.5,8.8-2.1,12.4-5.1c8.1-6.9,16-1,22.6-11.5c7.2-11.5,9-25.5,15.1-37.6c6-12.1,19.6-22.8,32.3-18.1
		c5.6,2.1,9.8,6.8,14.7,10.4c9.3,6.8,21.1,9.2,32.5,10.2c25.2,2.1,50.8-1.9,75.7,2.6c17.2,3.2,36.5,10,50.9,0.2
		c8.3-5.6,12.5-15.3,18.6-23.3c6.1-7.9,16.5-14.7,25.6-10.5c10.1,4.6,11.2,18.7,19.2,26.3c10.4,9.7,27.1,5.1,41,8.4
		c6.8,1.6,13.3,5.3,20.2,4.8c13.2-0.8,23.1-16,36.3-14.5c6.1,0.7,11.4,5,17.5,5.8c12.4,1.7,21.7-10.6,28.8-21
		c7.1-10.4,19.1-21.4,30.5-16.3c7.7,3.5,10.8,12.8,11.8,21.3c3.5,27.1-2.2,70.3,35.7,73.8c16.3,1.5,32.2-6.7,44.1-18
		c11.9-11.2,20.6-25.3,29.9-38.8c3.6-5.2,7.7-10.6,13.6-12.8c2.7-1,5.7-1.3,8.3-2.5c9.2-4.1,12.5-17.6,22.4-19.3
		c7.9-1.4,14.6,5.9,18.5,13c3.9,7,7.4,15.3,14.9,18.3c8.1,3.3,17.9-0.9,25.7,3c4,2,6.7,5.8,9.5,9.3c6.8,8.5,15.4,16.1,26,18.5
		c10.6,2.4,23.2-1.8,27.7-11.6c3.4-7.4,1.8-16,2.7-24.1c0.8-8.1,6.4-17.3,14.5-16.5c7.5,0.7,11.3,9.1,14,16.1
		c7.2,19,17.4,37.8,33.9,49.8c13.5,9.8,34,13.6,46.2,2.1c9-8.5,10.2-23.1,5.5-34.6c-4.7-11.5-14.2-20.3-24.4-27.4
		c-1.6-1.1-3.2-2.1-4.8-3.2c13.6,6,26.5,13.3,38.5,22.7C1299.4,169.5,1313.5,193,1300.8,208.9z"/>
</g>
</svg>
