<?xml version="1.0" encoding="utf-8"?>
<!-- Generator: Adobe Illustrator 28.3.0, SVG Export Plug-In . SVG Version: 6.00 Build 0)  -->
<svg version="1.1" id="Layer_1" xmlns="http://www.w3.org/2000/svg" xmlns:xlink="http://www.w3.org/1999/xlink" x="0px" y="0px"
	 viewBox="0 0 931 410.1" style="enable-background:new 0 0 931 410.1;" xml:space="preserve">
<style type="text/css">
	.st0{opacity:0.47;fill:#5B77BA;}
	.st1{fill:#FFFFFF;}
	.st2{fill:#DFF3FD;}
	.st3{fill:#B4DEF7;}
</style>
<g>
	<path class="st0" d="M912.2,19.7c-1.7,14.6-3.6,29.1-5.7,43.3c-14.7,97.3-81.4,156.4-177.4,186.2c-72.8,22.6-150.7,25.7-227.4,28.5
		c-145,5.4-290,10.8-434.9,16.2c-16.5,0.6-37.5,0.4-48.6-1.7c-3.6-0.7-7.6-2.9-7.5-6.3c0-1.3,0.7-2.6,1.6-3.6
		c4.2-5.5,11.3-8.1,18.2-10.2c8.5-2.5,17.1-4.5,25.8-5.8c8.1-1.3,16.4-2.1,24.1-4.8c14.4-5.2,25.3-15.1,33.7-27
		c7.2-10.3,13.7-22.4,26-28.1c5.1-2.4,10.9-3.3,16.6-3.8c14.2-1.1,27.7,1.2,41.2,4.9c14.5,3.9,21.6-1.9,36.2-5.1
		c17.4-3.8,34.6,6.6,48,17.6c6.6,5.5,13.6,11.5,22.4,12.6c14,1.9,25.7-8.8,37.6-15.9c31.4-18.7,72-13.4,108.8-8
		c10.1,1.5,20.5,2.9,30.3,0.2c18.7-5.1,29.2-23.1,40.2-38.2c26.7-36.8,63.6-55.8,110-38.2c25.2,9.5,48.6,24.6,75.6,27.8
		c10.2,1.2,21.7,0.3,28.6-6.8c7.3-7.3,7-18.5,9.3-28.2c3.2-13.6,12.3-25.8,24.7-33.4c34-20.7,86.8-6.1,113.7-34.4
		c1.3-1.4,2.5-2.9,3.7-4.4c6.3-8.3,10.3-18.2,17-26.4C906.3,24.2,909.1,21.7,912.2,19.7z"/>
	<path class="st1" d="M926.3,59.7c-11.2,35.4-15.6,73.2-9.9,109.8c3.7,24.5,11.9,49.3,6.8,73.5c-4.3,20.6-17.7,38.5-20.9,59.2
		c-1.5,10-0.7,20.3-3.2,30c-2.6,9.7-10.2,19.3-20.3,19.5c-3,0-6.2-0.8-8.3-2.9c-4.2-4-3.6-10.7-2.9-16.4c1.8-15.7,1.8-32.2-4.7-46.6
		c-6.5-14.4-20.9-26.2-36.7-25.5c-3.8,0.2-7.8,1.2-10.4,3.9c-3.5,3.7-3.5,9.3-4.7,14.3c-3.3,13.3-17.5,22.8-31,20.7
		c-12-1.8-25.4-10.9-34.7-3.1c-3.2,2.7-4.7,6.8-7.3,10c-9.6,11.8-28.4,7.9-42.5,2c-14.1-5.9-31.2-12.4-43.5-3.4
		c-11.4,8.3-11.5,24.7-14,38.6c-3.5,20.2-14.4,39-30.1,52.2c-3.7,3.1-7.8,5.9-12.5,6.8c-12.2,2.2-22.4-9.8-26.6-21.5
		c-0.2-0.4-0.3-0.9-0.4-1.3c-3.9-11.4-5.5-24-13.3-33c-14.7-16.8-41.1-12.1-63.3-13.1c-22.6-1.1-44.4-9.5-66.2-17.2
		c-25.4-9-50.5-17-76.2-11.1c-34.1,7.8-65.3,39.4-98.5,28.3c-16.4-5.5-29.2-21.1-46.5-22c-11.6-0.6-22.4,5.6-33.1,10.1
		c-18,7.6-38,10.6-57.5,8.8c-4.7-0.4-9.4-1.2-14.1-2.2c-20.5-4.4-44.9-4.9-64.4-11.2c-10.5-3.4-20.2-11.1-24.8-20.9
		c-3.6-7.7,0.6-16.7,8.7-19.1c7.4-2.2,15.6-2.5,23.8-2.6c13.4-0.2,27.2,0.1,38.3-6.6c18.8-11.4,23.5-39,43.3-48.7
		c5.1-2.5,10.9-3.6,16.6-4c14.2-1.1,27.7,1.3,41.2,5.2c14.5,4.2,21.6-2,36.2-5.5c17.4-4.1,34.6,7.1,48,18.9
		c6.6,5.8,13.6,12.3,22.4,13.5c14,2,25.7-9.5,37.6-17.1c31.4-20,72-14.3,108.8-8.6c10.1,1.6,20.5,3.1,30.3,0.2
		c18.8-5.5,29.2-24.7,40.2-40.9c26.7-39.4,63.6-59.8,110-41c25.2,10.2,48.6,26.3,75.6,29.8c10.2,1.3,21.7,0.3,28.6-7.2
		c7.3-7.9,7-19.8,9.3-30.2c3.2-14.5,12.3-27.7,24.7-35.8c27.8-18.2,68.2-11,96.7-24.4c6.4-3,12.1-7,17-12.5c1.3-1.5,2.5-3.1,3.7-4.7
		c6.3-8.9,10.3-19.5,17.1-28.3c7.9-10.3,22.9-17.7,33.8-10.6C935.5,24.4,931,44.6,926.3,59.7z"/>
	<path class="st2" d="M926.3,59.7c-11.2,35.4-15.6,73.2-9.9,109.8c3.7,24.5,11.9,49.3,6.8,73.5c-4.3,20.6-17.7,38.5-20.9,59.2
		c-1.5,10-0.7,20.3-3.2,30c-2.6,9.7-10.2,19.3-20.3,19.5c-3,0-6.2-0.8-8.3-2.9c-4.2-4-3.6-10.7-2.9-16.4c1.8-15.7,1.8-32.2-4.7-46.6
		c-6.5-14.4-20.9-26.2-36.7-25.5c-3.8,0.2-7.8,1.2-10.4,3.9c-3.5,3.7-3.5,9.3-4.7,14.3c-3.3,13.3-17.5,22.8-31,20.7
		c-12-1.8-25.4-10.9-34.7-3.1c-3.2,2.7-4.7,6.8-7.3,10c-9.6,11.8-28.4,7.9-42.5,2c-14.1-5.9-31.2-12.4-43.5-3.4
		c-11.4,8.3-11.5,24.7-14,38.6c-3.5,20.2-14.4,39-30.1,52.2c-3.7,3.1-7.8,5.9-12.5,6.8c-12.2,2.2-22.4-9.8-26.6-21.5
		c-0.2-0.4-0.3-0.9-0.4-1.3c-3.9-11.4-5.5-24-13.3-33c-14.7-16.8-41.1-12.1-63.3-13.1c-22.6-1.1-44.4-9.5-66.2-17.2
		c-25.4-9-50.5-17-76.2-11.1c-34.1,7.8-65.3,39.4-98.5,28.3c-16.4-5.5-29.2-21.1-46.5-22c-11.6-0.6-22.4,5.6-33.1,10.1
		c-18,7.6-38,10.6-57.5,8.8c-4.7-0.4-9.4-1.2-14.1-2.2c-20.5-4.4-44.9-4.9-64.4-11.2c-10.5-3.4-20.2-11.1-24.8-20.9
		c-3.6-7.7,0.6-16.7,8.7-19.1c7.4-2.2,15.6-2.5,23.8-2.6c0.8,7.1,1.8,14.2,6.1,19.8c28,36.4,70.9-16.5,93.8-29.2
		c15.1-8.3,32.7-10.6,49.8-12.6c27.2-3.3,58.1-5.5,78.6,12.7c5.8,5.2,10.6,11.8,17.6,15.1c11.9,5.6,26.1-0.3,36.6-8.2
		c10.6-7.8,20-17.9,32.6-21.8c17.1-5.4,35.6,1.8,50.5,11.8c14.9,9.9,27.9,22.8,43.9,30.7c24.4,12,54.6,11,78.7-1.7
		c24.1-12.7,41.9-36.4,48.2-62.9c4.7-19.5,5.2-43,21.6-54.5c18.2-12.7,43.6-1.3,60,13.7c16.3,15,30.6,34.5,52,40.5
		c21.4,6,46.2-5,56.2-24.8c10.2-20.4,6-47.6,21.9-63.9c10.3-10.6,26-13.2,39.8-18.4c13.8-5.2,28.1-16.7,26.5-31.4
		c-0.7-6.1-4.1-11.5-6.7-17.2c6.4-3,12.1-7,17-12.5c1.3-1.5,2.5-3.1,3.7-4.7c6.3-8.9,10.3-19.5,17.1-28.3
		c7.9-10.3,22.9-17.7,33.8-10.6C935.5,24.4,931,44.6,926.3,59.7z"/>
	<path class="st3" d="M425.3,316.2c-25.4-9-50.5-17-76.2-11.1c-34.1,7.8-65.3,39.4-98.5,28.3c-16.4-5.5-29.2-21.1-46.5-22
		c-11.6-0.6-22.4,5.6-33.1,10.1c-18,7.6-38,10.6-57.5,8.8c14.3-6.4,26.9-15.5,42.2-20.6c5.6-1.9,11.6-2.9,17-5.3
		c10-4.6,17.1-13.8,25.8-20.5c8.7-6.7,21.7-10.8,30.5-4c3.8,2.9,6.1,7.4,8.4,11.6c7.4,13.2,17.8,25.9,32.3,30.2
		c28.5,8.4,54.7-18.3,83.7-24.6c18.8-4.1,38.7,0.7,55.8,9.5C414.8,309.4,420.2,312.6,425.3,316.2z"/>
	<path class="st3" d="M926.3,59.7c-11.2,35.4-15.6,73.2-9.9,109.8c3.7,24.5,11.9,49.3,6.8,73.5c-4.3,20.6-17.7,38.5-20.9,59.2
		c-1.5,10-0.7,20.3-3.2,30c-2.6,9.7-10.2,19.3-20.3,19.5c-3,0-6.2-0.8-8.3-2.9c-4.2-4-3.6-10.7-2.9-16.4c1.8-15.7,1.8-32.2-4.7-46.6
		c-6.5-14.4-20.9-26.2-36.7-25.5c-3.8,0.2-7.8,1.2-10.4,3.9c-3.5,3.7-3.5,9.3-4.7,14.3c-3.3,13.3-17.5,22.8-31,20.8
		c-12-1.8-25.4-10.9-34.7-3.1c-3.2,2.7-4.7,6.8-7.3,10c-9.6,11.8-28.4,7.9-42.5,2c-14.1-5.9-31.2-12.4-43.5-3.4
		c-11.4,8.3-11.5,24.7-14,38.6c-3.5,20.2-14.4,39-30.1,52.2c-3.7,3.1-7.8,5.9-12.5,6.8c-12.2,2.2-22.4-9.8-26.6-21.5
		c-0.2-0.4-0.3-0.9-0.4-1.3c6-0.1,12.1-1.8,17.2-4.9c12.4-7.6,19.5-21.7,22.7-35.9c3.1-14.2,2.9-28.9,3.9-43.4
		c0.4-5,0.9-10.2,3.3-14.7c1.8-3.4,4.5-6.1,6.5-9.4c6-10.3,2.8-23.2,1.2-35c-1.6-11.8,0-26.4,10.7-31.6c8.6-4.2,19.2,0.1,26.1,6.7
		c8.3,8,13.2,18.8,18.3,29.2c5.1,10.4,11.1,20.9,20.7,27.3c9.6,6.4,23.9,7.2,31.9-1.1c1.8-1.9,3.2-4.1,5.4-5.5
		c8.6-5.6,17.9,5.6,27.3,9.8c12,5.4,26.7-2.2,33.4-13.5c6.7-11.3,7.3-25.2,7-38.4c-0.3-13.2-1.3-26.7,2.8-39.2
		c2.7-8.2,8.4-16.3,16.8-18.3c8.9-2.2,17.9,3,27.1,3.4c18.9,0.8,32.5-17.9,39.1-35.6c4.5-12.1,7.5-25.6,3.2-37.8
		c-3.4-9.9-11.2-17.7-16.6-26.7c-1.9-3.2-3.5-6.6-4.6-10.2c6.3-8.9,10.3-19.5,17.1-28.3c7.9-10.3,22.9-17.7,33.8-10.6
		C935.5,24.4,931,44.6,926.3,59.7z"/>
</g>
</svg>
