<?xml version="1.0" encoding="UTF-8"?>
<svg id="Laag_1" data-name="Laag 1" xmlns="http://www.w3.org/2000/svg" viewBox="0 0 2309.44 2884.19">
  <defs>
    <style>
      .cls-1 {
        fill: #020202;
      }

      .cls-2 {
        fill: #fff;
      }

      .cls-3 {
        fill: #e4e5e4;
      }

      .cls-4 {
        fill: #305473;
      }

      .cls-5 {
        fill: #a4a5a5;
      }

      .cls-6 {
        fill: #b2b3b2;
      }

      .cls-7 {
        fill: #c4c6c5;
      }

      .cls-8 {
        fill: #09090a;
      }

      .cls-9 {
        fill: #5f5f5f;
      }

      .cls-10 {
        fill: #4b4b4b;
      }

      .cls-11 {
        fill: #7b7b7b;
      }
    </style>
  </defs>
  <path class="cls-1" d="m1851.38,299.69c12.47,1.39,24.98,2.52,37.42,4.22,22.3,3.04,44.67,5.28,67.06,7.44,14.49,1.4,28.99,2.71,43.48,4.06.99,2.88,2.36,2.96,4.09.57,14.27.64,28.57,1.03,42.82,1.99,29.92,2.01,59.86,3.16,89.83,3.71,25.65.47,51.3.79,76.95,1.38,17.57.41,32.78,8.04,48.01,15.86,15.22,7.82,25.93,20.1,34.37,34.3,8.32,14,12.1,29.75,13.73,45.92.43,4.29.26,8.66.26,12.99,0,354.92-.02,709.83.05,1064.75,0,33.33-1.07,66.62-2.52,99.9-.62,14.28-2.34,28.51-3.56,42.76-.52.22-1.39.33-1.5.68-.34,1.13.62,1.29,1.45,1.44-.08,6.68-.45,13.32-2.47,19.75-.92.08-1.65.46-1.37,1.48.1.37.85.56,1.3.84.34,14.34-2.39,28.42-4.13,42.54-2.53,20.45-5.69,40.85-9.31,61.14-4.86,27.24-9.12,54.67-16.68,81.28-2.25,7.91-2.67,15.99-5.17,23.75-8.87,27.55-14.25,56.09-23.98,83.42-7.32,20.55-13.31,41.58-20.86,62.04-7.6,20.61-15.93,40.99-24.85,61.07-4.14,9.32-8.78,18.59-13.12,27.78-5.46,11.56-10.32,23.55-15.97,35.09-5.16,10.54-10.82,20.82-17.01,30.84-4.85,7.85-7.8,16.9-12.77,24.66-6.49,10.14-10.38,21.85-19.61,30.45-3.73,3.48-5.04,9.55-7.49,14.41-5.42,10.75-12.92,20.12-19.79,29.93-5.46,7.8-9.54,16.66-15.56,23.95-5.17,6.26-8.94,13.42-14.47,19.48-5.9,6.47-9.51,15.01-15.33,21.58-13.57,15.33-24.86,32.46-38.68,47.6-9.22,10.1-17.65,20.94-26.93,31.03-16.99,18.46-33.46,37.41-50.66,55.67-9.07,9.62-19.38,18.03-29.37,26.74-12.38,10.79-23.31,23.26-35.82,33.89-23.63,20.08-47.5,39.83-72.17,58.73-33.68,25.8-68.03,50.49-103.51,73.64-26.71,17.43-54.12,33.71-81.78,49.6-27.37,15.72-55.86,29.26-83.85,43.76-16.93,8.77-33.8,17.84-51.39,25.11-10.84,4.48-21.78,8.95-32.79,13.13-9.08,3.45-17.88,7.88-26.83,11.82-15.04,6.63-30.75,11.36-46.09,17.11-16.84,6.31-33.5,13.27-50.66,18.56-18.34,5.64-36.94,10.73-55.08,16.77-18.62,6.2-37.81,9.63-56.49,15.25-8.55,2.57-17.5,3.8-26.15,6.06-18.71,4.9-37.12,2.09-55.22-2.64-9.13-2.39-18.39-3.67-27.57-5.52-4.75-.96-8.93-3.24-13.62-4.43-19.32-4.9-38.23-11.39-57.5-16.53-16.41-4.38-32.42-9.94-48.42-15.44-19.41-6.68-38-15.83-57.57-21.91-14.14-4.39-27.11-11.35-41.04-16.18-10.55-3.66-20.98-9.13-31.28-14.18-14.33-7.04-28.65-14.45-43.52-20.05-15.37-5.78-29.7-13.32-43.98-21.02-21.94-11.84-43.53-24.34-65.11-36.84-6.56-3.8-13.78-6.33-20.1-10.37-25.45-16.28-50.75-32.79-75.9-49.53-40.23-26.78-78.79-55.86-116.23-86.35-19.2-15.63-37.74-32.12-55.96-48.95-21.16-19.55-41.2-40.23-61.89-60.24-10.4-10.06-20.09-20.88-29.48-31.58-16.8-19.14-33.62-38.45-48.99-58.87-15.96-21.2-32.5-41.98-47.89-63.58-12.09-16.96-23.11-34.72-34-52.49-4.32-7.05-10.03-12.98-13.98-20.33-17.71-32.94-35.9-65.6-52.54-99.12-8.61-17.34-16.36-35.08-24.39-52.64-6.63-14.49-11.54-29.95-17.66-44.76-9.62-23.28-17.75-47.06-25.12-71.08-13.44-43.83-24.87-88.21-34.47-133.08-8.53-39.9-14.93-80.12-20.22-120.56-4.32-33.02-7.24-66.15-9.47-99.36-2.45-36.6-3.06-73.26-3.07-109.91C.06,1140.69.12,787.3,0,433.92c0-9.89.55-19.73,1.37-29.52.72-8.68,4.99-16.49,8.91-24.13,12.36-24.08,30.24-42.53,56.33-51.45,10.91-3.73,22.3-5.74,34.02-5.9,35.66-.46,71.34-.67,106.97-2.08,55.89-2.21,111.7-5.99,167.33-11.93,54.25-5.79,108.17-13.94,161.87-23.58,12.03-2.16,23.83-5.28,36.11-6.5,5.09-.51,10.52-3.42,15.98-4.48,30.99-6.01,61.33-14.65,91.6-23.43,12.91-3.75,25.74-8.5,38.64-11.91,14.05-3.72,26.56-11.31,40.87-13.92,8.09-1.47,15.32-5.71,22.99-8.53,12.32-4.53,24.76-8.87,36.69-14.53,15.95-7.57,32.63-13.38,48.37-21.64,8.77-4.6,18.54-7.87,27.46-12.53,12.17-6.36,23.78-13.81,36.09-19.85,15.3-7.5,29.03-17.6,43.86-25.89,9.84-5.5,19.61-12.33,28.52-19.64,15.58-12.77,31.97-24.58,46.52-38.56,9.25-8.88,18.87-17.36,26.96-27.43,16.35-20.36,38.16-31.06,63.58-35.45,16.57-2.86,31.94.5,47.66,5.71,8.58,2.84,15.47,7.44,22.67,12.18,12.38,8.15,22.44,18.31,30.92,30.62,5.73,8.32,13.2,15.71,22,21.32,1.39.89,2.72,1.91,3.92,3.04,22.43,20.97,47.66,38.22,73.2,55.07,14.02,9.25,28.85,17.14,43.18,25.86,15.62,9.52,32.86,16.05,48.32,25.49,10.96,6.69,24.41,7.61,33.93,16.65,10.34,1.22,18.96,7.16,28.53,10.52,13.15,4.62,25.29,12,38.8,15.63,12.61,3.39,23.65,11.35,37.03,12.26,8.89,6.94,21.25,4.29,30.37,11.18,3.11,2.35,8.09,1.18,12.28,2.5,12.85,4.05,26.33,6.19,38.99,10.68,11.14,3.94,22.52,6.62,33.89,9.39,13.41,3.27,27.23,4.86,40.57,8.36,10.58,2.78,21.19,6.19,31.91,7.39,18.7,2.09,37.14,5.6,55.57,8.94,10.03,1.81,19.94,3.55,30.1,3.87,1.19,3.83,3.25,4.85,6.49,1.98Zm433.78,685.78h.21c0-185.03-.05-370.06.06-555.08.01-24.15-7.02-44.75-24.82-62.04-13.42-13.04-28.86-20.29-46.99-20.97-33.28-1.25-66.6-1.42-99.9-2.17-5.9-.13-11.75,1.09-17.7-.04-11.84-2.24-23.89-1.46-35.86-2-13.62-.61-27.26-1.12-40.85-2.24-28.81-2.37-57.59-5.02-86.37-7.72-13.89-1.3-27.77-2.75-41.61-4.51-17.79-2.27-35.56-4.72-53.28-7.48-22.3-3.48-44.61-6.97-66.77-11.18-18.88-3.58-37.74-7.3-56.46-11.84-12.16-2.95-24.74-5.01-36.95-8-49.34-12.11-98.26-25.7-146.07-43.09-30.26-11.01-59.91-23.45-89.46-36.21-23.14-10-45.36-21.79-67.4-33.92-35.95-19.78-70.4-41.94-102.35-67.77-22.04-17.81-43.56-36.22-60.39-59.4-2.31-3.18-5.44-5.9-8.59-8.32-17.93-13.77-37.73-19.5-60.66-16.7-17.56,2.15-31.31,10.91-43.33,22-7.61,7.02-14.66,15.21-21.36,23.24-7.77,9.31-17.11,16.64-26.07,24.28-42.69,36.44-90.28,65.6-139.94,91.46-31.26,16.28-63.36,30.8-96.08,43.88-28.42,11.36-57.01,22.32-86.36,31.04-20.35,6.04-40.4,13.03-61.27,17.48-11.51,2.45-22.66,6.92-34.25,9.76-38.41,9.42-77.03,17.77-115.97,24.63-26.17,4.61-52.43,8.77-78.73,12.52-19.39,2.76-38.96,4.29-58.39,6.82-25.71,3.34-51.52,5.52-77.36,7.36-30.84,2.19-61.7,4.54-92.59,5.68-37.28,1.38-74.6,1.39-111.9,2.3-28.7.7-49.83,14.48-64.69,38.64-9.29,15.11-10.98,31.96-10.99,49.03-.09,208.03-.35,416.06.04,624.09.29,154.33-1.7,308.66,1.17,462.98.42,22.3.31,44.58,1.77,66.89,1.74,26.54,3.62,53.05,6.18,79.53,3.36,34.75,8.23,69.26,14.26,103.62,10.29,58.59,23.97,116.36,42.07,173.05,16.29,51.02,35.24,101.01,57.64,149.68,10.37,22.55,20.91,44.99,33.16,66.62,15.02,26.52,29.71,53.19,46.29,78.8,19.93,30.77,40.75,60.9,63.16,89.91,12.2,15.8,24.3,31.71,37.17,46.95,12.75,15.11,26.37,29.49,39.68,44.13,9.57,10.52,19.02,21.16,28.95,31.32,10.68,10.92,21.46,21.72,33.3,31.51,12.69,10.5,23.83,22.86,36.52,33.35,38.73,32.03,77.68,63.8,118.97,92.59,54.9,38.28,111.7,73.43,171.01,104.42,13.23,6.91,25.24,16.22,39.22,21.41,15.32,5.69,29.68,13.31,44.52,19.95,43.66,19.55,87.73,38.04,132.83,54.05,8.38,2.97,16.43,6.88,24.8,9.89,13.34,4.79,27.07,8.27,40.69,12.15,28.15,8.01,56.24,16.21,84.7,23.09,19.59,4.74,38.95,6.88,59.13,1.73,10.48-2.68,20.81-6.04,31.46-8.29,21.41-4.54,42.24-11.41,63.15-17.91,19.71-6.13,39.43-12.27,58.78-19.35,37.17-13.59,74.14-27.68,110.25-44.04,18.08-8.2,36.44-15.95,54.43-24.34,30.35-14.15,59.78-30.19,89.06-46.44,28.83-16,57.16-32.89,84.8-50.89,70.1-45.64,136.89-95.51,197.88-153.01,21.32-20.09,43.04-39.69,62.79-61.38,10.94-12.02,22.79-23.24,33.46-35.49,12.77-14.67,24.8-29.99,37.02-45.13,29.97-37.14,57.8-75.8,83.14-116.26,6.49-10.36,13.31-20.57,19.59-30.98,11.64-19.33,21.58-39.7,31.75-59.88,10.72-21.26,22.01-42.24,31.33-64.19,13.92-32.76,27.21-65.72,38.84-99.42,11.4-33.03,21.7-66.34,30.58-100.09,9.55-36.29,17.28-73,23.71-109.96,5.24-30.11,9.68-60.33,12.7-90.77,1.51-15.21,2.66-30.46,4.28-45.64,3.22-30.15,4.83-60.43,4.92-90.61.6-185.69.3-371.39.3-557.09Z"/>
  <path class="cls-6" d="m1851.38,299.69c-3.24,2.87-5.29,1.85-6.49-1.98,2.53-.56,5.02-.96,6.49,1.98Z"/>
  <path class="cls-6" d="m2003.42,315.98c-1.72,2.39-3.1,2.31-4.09-.57,1.73-2.47,3-1.6,4.09.57Z"/>
  <path class="cls-6" d="m2303.3,1641.66c-.83-.15-1.79-.31-1.45-1.44.1-.34.98-.46,1.5-.68l-.05,2.12Z"/>
  <path class="cls-10" d="m2300.76,1663.73c-.45-.27-1.2-.46-1.3-.84-.29-1.02.45-1.4,1.37-1.48-.55.76-.6,1.53-.06,2.32Z"/>
  <path class="cls-4" d="m2285.16,985.47c0,185.7.3,371.39-.3,557.09-.1,30.18-1.71,60.47-4.92,90.61-1.62,15.18-2.77,30.43-4.28,45.64-3.01,30.44-7.46,60.67-12.7,90.77-6.43,36.96-14.17,73.67-23.71,109.96-8.88,33.75-19.18,67.06-30.58,100.09-11.63,33.7-24.92,66.65-38.84,99.42-9.33,21.95-20.62,42.93-31.33,64.19-10.17,20.18-20.12,40.55-31.75,59.88-6.27,10.42-13.1,20.63-19.59,30.98-25.33,40.46-53.17,79.12-83.14,116.26-12.22,15.14-24.25,30.46-37.02,45.13-10.67,12.25-22.51,23.47-33.46,35.49-19.75,21.69-41.48,41.29-62.79,61.38-61,57.49-127.78,107.37-197.88,153.01-27.64,18-55.97,34.88-84.8,50.89-29.28,16.25-58.71,32.29-89.06,46.44-18,8.39-36.35,16.14-54.43,24.34-36.11,16.37-73.08,30.45-110.25,44.04-19.35,7.08-39.07,13.21-58.78,19.35-20.92,6.51-41.74,13.38-63.15,17.91-10.65,2.26-20.98,5.62-31.46,8.29-20.17,5.15-39.53,3.01-59.13-1.73-28.46-6.88-56.55-15.08-84.7-23.09-13.62-3.88-27.36-7.36-40.69-12.15-8.37-3.01-16.42-6.91-24.8-9.89-45.1-16-89.17-34.5-132.83-54.05-14.83-6.64-29.2-14.25-44.52-19.95-13.98-5.2-25.99-14.5-39.22-21.41-59.31-30.99-116.11-66.14-171.01-104.42-41.29-28.79-80.24-60.55-118.97-92.59-12.69-10.5-23.84-22.86-36.52-33.35-11.84-9.79-22.62-20.59-33.3-31.51-9.94-10.16-19.39-20.8-28.95-31.32-13.31-14.63-26.93-29.02-39.68-44.13-12.87-15.25-24.97-31.16-37.17-46.95-22.41-29.01-43.23-59.14-63.16-89.91-16.59-25.6-31.28-52.28-46.29-78.8-12.25-21.63-22.79-44.07-33.16-66.62-22.39-48.67-41.35-98.66-57.64-149.68-18.1-56.7-31.78-114.46-42.07-173.05-6.03-34.36-10.9-68.87-14.26-103.62-2.56-26.48-4.44-52.98-6.18-79.53-1.46-22.32-1.36-44.59-1.77-66.89-2.87-154.32-.88-308.65-1.17-462.98-.39-208.03-.13-416.06-.04-624.09,0-17.07,1.69-33.92,10.99-49.03,14.86-24.15,35.98-37.93,64.69-38.64,37.3-.91,74.62-.93,111.9-2.3,30.89-1.14,61.74-3.49,92.59-5.68,25.84-1.83,51.65-4.01,77.36-7.36,19.43-2.53,39-4.05,58.39-6.82,26.31-3.75,52.56-7.91,78.73-12.52,38.93-6.86,77.56-15.21,115.97-24.63,11.58-2.84,22.73-7.3,34.25-9.76,20.88-4.45,40.93-11.44,61.27-17.48,29.35-8.72,57.94-19.68,86.36-31.04,32.72-13.08,64.82-27.61,96.08-43.88,49.66-25.86,97.24-55.02,139.94-91.46,8.96-7.64,18.3-14.97,26.07-24.28,6.7-8.03,13.76-16.22,21.36-23.24,12.02-11.09,25.77-19.86,43.33-22,22.93-2.8,42.73,2.93,60.66,16.7,3.15,2.42,6.28,5.14,8.59,8.32,16.83,23.18,38.35,41.59,60.39,59.4,31.95,25.82,66.39,47.98,102.35,67.77,22.04,12.13,44.26,23.92,67.4,33.92,29.55,12.76,59.2,25.21,89.46,36.21,47.81,17.39,96.73,30.98,146.07,43.09,12.22,3,24.8,5.06,36.95,8,18.73,4.54,37.58,8.26,56.46,11.84,22.17,4.21,44.48,7.7,66.77,11.18,17.72,2.76,35.49,5.21,53.28,7.48,13.84,1.77,27.72,3.21,41.61,4.51,28.78,2.7,57.56,5.35,86.37,7.72,13.59,1.12,27.23,1.63,40.85,2.24,11.96.54,24.01-.24,35.86,2,5.95,1.12,11.8-.1,17.7.04,33.3.75,66.62.92,99.9,2.17,18.13.68,33.57,7.93,46.99,20.97,17.8,17.29,24.84,37.89,24.82,62.04-.11,185.03-.06,370.06-.06,555.08h-.21Zm-2104.27,52c0,160.68-.04,321.37.06,482.05.01,19.62.56,39.22,1.6,58.85,1.74,32.87,4.52,65.59,8.31,98.27,3.29,28.38,7.39,56.66,12.87,84.66,11.12,56.8,25.72,112.7,44.68,167.5,23.82,68.85,54.29,134.55,91.37,197.16,42.21,71.29,92.22,136.75,149.46,196.69,37.3,39.07,76.92,75.54,118.96,109.45,66.57,53.7,138.04,99.92,213.3,140.31,30.23,16.22,60.98,31.48,92.37,45.38,73.72,32.64,149.03,60.75,227.32,80.58,9.79,2.48,18.53,2.25,28.13-.17,34.83-8.77,69.02-19.6,102.88-31.4,56.14-19.57,111.3-41.57,164.11-69.15,30.15-15.74,61.21-29.7,90.66-46.8,22.76-13.21,45.35-26.68,67.32-41.18,70.93-46.8,138.22-98.11,197.59-159.28,8.32-8.57,17.33-16.55,25.79-24.94,14.96-14.83,28.26-31.31,42.47-46.9,23.02-25.26,42.2-53.49,62.64-80.72,14.14-18.84,26.62-38.84,39.02-58.87,42.34-68.41,75.29-141.2,101.59-217.11,5.7-16.47,9.42-33.52,14.54-50.15,4.12-13.36,8.34-26.68,11.89-40.21,1.94-7.4,2.11-15.42,4.55-22.29,3.32-9.38,3.98-19.15,6.9-28.52,4.09-13.15,3.33-27.57,7.02-40.61,3.26-11.52,4.37-23.25,6.21-34.71,5.37-33.4,8.66-67.14,10.96-100.95,1.81-26.53,3.47-53.12,3.5-79.65.34-336.7.23-673.41.23-1010.11,0-1.33.02-2.67,0-4q-.13-8.91-8.69-9.08c-16.29-.35-32.56-.88-48.84-1.61-26.57-1.19-53.09-2.85-79.62-4.5-11.6-.72-23.22-1.38-34.79-2.54-23.44-2.36-46.86-4.97-70.27-7.62-13.2-1.49-26.39-3.09-39.54-4.94-17.94-2.53-35.91-5.04-53.86-7.39-10.43-1.37-21.25-2.43-31.16-4.85-10.8-2.64-21.83-3.8-32.61-6.39-25.14-6.03-50.92-9.44-75.97-15.77-21.27-5.38-42.7-10.37-63.68-16.88-25.62-7.95-51.94-13.57-77.07-23.2-7.67-2.94-16.3-3.6-23.65-7.08-12.36-5.87-25.24-10.23-38.02-14.87-35.04-12.74-68.76-28.63-102.93-43.38-20.18-8.71-38.97-20.74-58.14-31.69-46.34-26.47-90.68-55.86-131.35-90.57-5.05-4.31-6.03-4.13-11.92.67-48.86,39.81-101.62,73.55-157.46,102.73-16.52,8.63-33.06,17.31-49.94,25.06-44.77,20.57-90.6,38.61-137.15,54.8-31.4,10.92-63.33,20.07-95.39,28.76-32.35,8.77-64.83,17.1-97.73,23.66-24.64,4.91-49.2,10.23-73.92,14.69-11.73,2.12-23.48,4.81-35.19,6.06-13.86,1.48-27.75,3.22-41.48,5.22-37.81,5.52-75.82,9.07-113.78,12.99-27.74,2.86-55.61,4.53-83.46,6.09-23.58,1.32-47.21,1.78-70.83,2.49-9.8.29-9.81.14-9.9,9.96-.02,2,0,4,0,6,0,173.35,0,346.7,0,520.05Z"/>
  <path class="cls-1" d="m180.88,1037.46v-520.05c0-2-.02-4,0-6,.09-9.82.1-9.67,9.9-9.96,23.61-.71,47.24-1.17,70.83-2.49,27.85-1.56,55.73-3.23,83.46-6.09,37.96-3.92,75.98-7.47,113.78-12.99,13.74-2,27.62-3.75,41.48-5.22,11.71-1.25,23.47-3.94,35.19-6.06,24.72-4.46,49.28-9.78,73.92-14.69,32.9-6.56,65.37-14.89,97.73-23.66,32.06-8.69,64-17.83,95.39-28.76,46.55-16.19,92.38-34.24,137.15-54.8,16.89-7.76,33.42-16.43,49.94-25.06,55.84-29.18,108.6-62.92,157.46-102.73,5.89-4.8,6.87-4.97,11.92-.67,40.67,34.71,85.01,64.1,131.35,90.57,19.17,10.95,37.96,22.98,58.14,31.69,34.17,14.75,67.89,30.64,102.93,43.38,12.77,4.64,25.65,9,38.02,14.87,7.35,3.49,15.98,4.14,23.65,7.08,25.13,9.64,51.44,15.26,77.07,23.2,20.98,6.51,42.41,11.5,63.68,16.88,25.05,6.33,50.83,9.74,75.97,15.77,10.78,2.59,21.81,3.75,32.61,6.39,9.91,2.42,20.73,3.49,31.16,4.85,17.95,2.36,35.91,4.86,53.86,7.39,13.15,1.86,26.34,3.45,39.54,4.94,23.41,2.65,46.83,5.26,70.27,7.62,11.56,1.16,23.18,1.82,34.79,2.54,26.53,1.64,53.06,3.3,79.62,4.5,16.28.73,32.55,1.27,48.84,1.61q8.56.18,8.69,9.08c.02,1.33,0,2.67,0,4,0,336.7.12,673.41-.23,1010.11-.03,26.53-1.69,53.12-3.5,79.65-2.3,33.81-5.59,67.55-10.96,100.95-1.84,11.46-2.95,23.2-6.21,34.71-3.69,13.04-2.93,27.46-7.02,40.61-2.92,9.38-3.58,19.15-6.9,28.52-2.44,6.88-2.61,14.89-4.55,22.29-3.55,13.53-7.77,26.85-11.89,40.21-5.12,16.62-8.84,33.68-14.54,50.15-26.3,75.91-59.25,148.7-101.59,217.11-12.4,20.03-24.87,40.03-39.02,58.87-20.45,27.24-39.62,55.47-62.64,80.72-14.21,15.59-27.52,32.08-42.47,46.9-8.46,8.39-17.47,16.37-25.79,24.94-59.37,61.17-126.66,112.48-197.59,159.28-21.97,14.5-44.57,27.97-67.32,41.18-29.45,17.1-60.51,31.06-90.66,46.8-52.81,27.57-107.97,49.57-164.11,69.15-33.86,11.8-68.05,22.64-102.88,31.4-9.61,2.42-18.34,2.65-28.13.17-78.29-19.83-153.6-47.93-227.32-80.58-31.39-13.9-62.15-29.16-92.37-45.38-75.27-40.39-146.74-86.61-213.3-140.31-42.04-33.92-81.66-70.39-118.96-109.45-57.24-59.95-107.24-125.4-149.46-196.69-37.07-62.61-67.55-128.31-91.37-197.16-18.95-54.8-33.56-110.69-44.68-167.5-5.48-28-9.58-56.28-12.87-84.66-3.79-32.68-6.57-65.4-8.31-98.27-1.04-19.63-1.59-39.23-1.6-58.85-.1-160.68-.06-321.37-.06-482.05ZM1903.26,511.99c-3.91-.79-7.79-1.9-11.74-2.31-32.36-3.33-64.57-7.67-96.7-12.75-36.78-5.81-73.65-11.43-109.88-19.92-26.85-6.29-53.9-11.81-80.56-19.12-25.66-7.03-51.34-14.05-76.84-21.54-24.99-7.34-49.61-16.08-74.03-25.17-21.38-7.96-42.1-17.7-63.43-25.81-15.27-5.81-29.67-13.37-44.53-19.99-25.4-11.32-49.85-24.67-73.75-38.77-39.26-23.16-77.48-48.02-112.81-76.98-4.72-3.87-7.24-3.19-11.67.21-20.24,15.53-40.91,30.41-62.77,43.74-16.85,10.28-33.83,20.28-50.85,30.26-12.18,7.14-24.51,14-36.79,20.93-18.59,10.48-37.94,19.44-57.61,27.75-17.46,7.37-35.01,14.55-52.23,22.45-16.01,7.35-32.47,13.51-49.13,18.99-33.3,10.93-66.2,23.04-100.07,32.32-17.99,4.93-35.89,10.31-53.99,14.79-30.78,7.62-61.7,14.71-92.84,20.87-43.32,8.58-86.8,15.92-130.56,21.87-48.43,6.58-97.01,11.57-145.72,15.37-33.48,2.62-67.01,4.23-100.56,5.64-11.01.46-9.4-1.11-9.56,9.72-.03,1.67,0,3.33,0,5,0,257.99-.23,515.98.13,773.97.13,89.62-2.24,179.26,1.9,268.85,1.1,23.91,3.47,47.72,5.65,71.55,2.03,22.26,6.09,44.3,7.09,66.66.07,1.6.15,3.66,1.11,4.67,3.13,3.31,2.82,7.5,2.93,11.28.19,6.87,1.95,13.49,2.35,20.36.76,13.17,8.3,25.22,7.65,38.84-.01.31.16.65.33.94,6.29,10.58,5.12,23.2,9.4,34.39,2.44,6.37,2.59,13.86,4.82,19.9,4.02,10.87,6.59,22.09,10.18,33.02,2.9,8.84,4.1,18.74,8.19,26.62,5.64,10.85,7.33,22.76,12.4,33.73,5.1,11.03,8.58,23.12,13.46,34.37,4.63,10.67,9.04,21.51,14.27,32,4.23,8.49,8.35,17.36,12.02,26.29,4.97,12.11,10.48,24.28,18.99,34.61,3.4,10.69,10.4,19.42,15.88,28.98,19.56,34.16,40.47,67.45,64.14,98.96,28.42,37.82,57.91,74.75,91.14,108.53,18.78,19.1,37.36,38.35,57.36,56.27,44.59,39.96,91.33,77.1,140.86,110.71,12.8,8.68,25.69,17.27,38.98,25.16,10.54,6.25,19.13,16.01,30.49,20.02,10.44,3.68,18.64,10.62,28.02,15.62,11.24,5.99,22.43,12.5,33.61,18.78,7.39,4.15,15.48,7.3,23.28,10.85,21.56,9.82,41.3,23.38,64.05,30.84,5.34,1.75,10.23,5.12,15.68,7.09,7.4,2.67,15.31,4.9,21.66,9.27,10.3,7.09,22.01,10.77,33.37,14.57,14.54,4.86,28.98,9.85,43.28,15.42,8.95,3.48,17.84,7.63,26.99,10.01,16.37,4.26,32.49,9.34,48.76,13.9,7.8,2.19,15.76,4.13,23.48,6.96,5.09,1.87,10.17,5.37,16.53,3.74,24.97-6.4,49.6-13.94,74.18-21.65,9.35-2.93,18.46-6.77,27.74-9.52,20.68-6.13,40.33-14.9,60.74-21.62,10.41-3.43,20.12-8.44,30.2-12.59,27.49-11.32,54.39-23.94,81.45-36.23,20.47-9.3,39.69-20.98,59.76-31.06,15.55-7.81,30.21-17.38,45.2-26.29,27.16-16.16,53.81-33.1,79.78-51.11,56.5-39.18,109.47-82.64,158.78-130.55,19.35-18.8,37.81-38.45,55.74-58.62,34.5-38.81,66.11-79.86,94.52-123.3,9.31-14.23,18.74-28.45,26.9-43.42,9.61-17.64,19.47-35.16,28.93-52.88,9.84-18.45,17.42-38.06,28.2-56.04-.3-8.67,5.39-15.35,8.49-22.64,8.51-20.05,15.75-40.56,22.99-61.01,11.27-31.84,20.54-64.36,28.82-97.15,11.86-46.99,20.36-94.55,26.51-142.62,7.18-56.15,10.99-112.51,11.04-169.05.25-323.63.12-647.27.12-970.9,0-2.67-.16-5.34.03-8,.27-3.77-1.25-5.54-5.09-5.51-2.32.02-4.64-.42-6.96-.51-20.91-.82-41.81-2.03-62.71-3.1-31.21-1.6-62.31-4.41-93.44-6.89-11.23-.9-22.35-3.07-33.66-3.02Z"/>
  <path class="cls-2" d="m337.48,2071.6c-8.5-10.33-14.01-22.5-18.99-34.61-3.67-8.93-7.8-17.79-12.02-26.29-5.22-10.49-9.63-21.33-14.27-32-4.88-11.24-8.36-23.33-13.46-34.37-5.07-10.97-6.76-22.88-12.4-33.73-4.09-7.88-5.29-17.78-8.19-26.62-3.59-10.93-6.15-22.15-10.18-33.02-2.24-6.04-2.38-13.53-4.82-19.9-4.28-11.19-3.11-23.81-9.4-34.39-.17-.28-.35-.63-.33-.94.64-13.62-6.89-25.66-7.65-38.84-.4-6.88-2.16-13.49-2.35-20.36-.1-3.78.2-7.98-2.93-11.28-.96-1.01-1.03-3.07-1.11-4.67-1-22.36-5.06-44.4-7.09-66.66-2.17-23.83-4.54-47.64-5.65-71.55-4.14-89.59-1.77-179.23-1.9-268.85-.36-257.99-.13-515.98-.13-773.97,0-1.67-.02-3.33,0-5,.17-10.84-1.45-9.26,9.56-9.72,33.55-1.4,67.08-3.02,100.56-5.64,48.71-3.81,97.29-8.79,145.72-15.37,43.76-5.95,87.24-13.3,130.56-21.87,31.14-6.17,62.06-13.25,92.84-20.87,18.09-4.48,36-9.87,53.99-14.79,33.87-9.28,66.78-21.38,100.07-32.32,16.66-5.47,33.12-11.64,49.13-18.99,17.22-7.9,34.77-15.08,52.23-22.45,19.66-8.3,39.02-17.26,57.61-27.75,12.29-6.93,24.62-13.79,36.79-20.93,17.02-9.98,34-19.98,50.85-30.26,21.86-13.33,42.53-28.21,62.77-43.74,4.43-3.4,6.95-4.08,11.67-.21,35.32,28.97,73.55,53.82,112.81,76.98,23.91,14.1,48.35,27.45,73.75,38.77,14.86,6.62,29.27,14.18,44.53,19.99,21.33,8.11,42.05,17.86,63.43,25.81,24.42,9.09,49.04,17.82,74.03,25.17,25.51,7.49,51.19,14.51,76.84,21.54,26.66,7.31,53.71,12.82,80.56,19.12,36.23,8.49,73.1,14.11,109.88,19.92,32.13,5.08,64.34,9.42,96.7,12.75,3.95.41,7.83,1.52,11.74,2.31.04,4.66.1,9.32.1,13.98,0,168.46,0,336.93,0,505.39,0,3-.02,5.99-.02,8.99,0,2.06-.33,3.98-2.24,5.22-10.49-9.17-19.78-19.68-31.42-27.58-20.02-13.58-40.98-24.99-63.79-33.59-19.83-7.48-39.41-15.55-59.84-21.26-25.76-7.2-52.24-11.07-78.44-16.21-24.85-4.88-50.17-6.5-75.43-7.3-60.93-1.93-121.53.59-181.47,13.55-24.86,5.38-49.41,11.52-73.64,19.18-15.5,4.9-29.95,12.35-45.17,17.92-1.43-.34-2.87-.68-4.3-1.02.77-8.37,5.01-15.82,8.54-22.86,9.93-19.85,21.02-39.17,34.42-57.04,34.82-46.45,77.98-83.51,127.3-113.67,5.36-3.28,10.36-7.33,16.74-8.65,3.85,2.49,8.18,2.43,12.53,2.44,6.65.02,13.61-1.05,19.9.51,18.12,4.48,36.71,4.88,55.04,7.01,26.65,3.11,52.82,8.45,79.1,13.41,16.62,3.14,32.74,8.26,49.05,12.64,24.7,6.64,48.76,14.84,72.32,24.74,5.62,2.36,10.96,6.7,17.82,5.13,4.04,1.66,7.58,4.15,10.95,6.85,17.94,14.35,35.98,28.57,51.48,45.68,4.5,4.97,9.58,5.32,12.96,1.6,2.84-3.13,2.23-8.27-1.72-12.26-22.28-22.46-45.96-43.12-72.54-60.58-24.48-16.08-48.98-31.71-76.52-42.32-15.91-6.13-31.38-13.39-47.7-18.58-14.97-4.76-30.11-8.81-45.48-11.93-32.7-6.63-65.65-6.15-98.46-1.56-15.89,2.22-32.03,4.23-46.61,12.22-51.36,28.15-96.48,63.98-134.42,108.68-19.27,22.71-35.18,47.67-48.25,74.42-6.14,12.56-12.13,25.22-15,39.06-1.48,7.12-5.22,12.01-11.84,15.97-20.48,12.24-38.29,27.78-52.29,47.27-11.88,16.54-20.12,34.3-19.8,55.49.3,19.81,5.01,37.76,16.31,54.26,16.37,23.91,37.96,41.87,62.58,56.39,19.3,11.39,39.75,20.44,60.39,29.21,17.23,7.33,35.23,11.74,53.12,16.45,18.85,4.96,37.95,9.16,57.41,11.62,25.12,3.17,50.19,7.11,75.47,8.2,75.02,3.24,149.42-.65,222.65-19.34,27.83-7.1,54.94-15.93,81.18-27.35,33.25-14.48,63.6-33.48,88.54-60.29.19,5.33.53,10.65.54,15.98.03,144.02-.03,288.04.08,432.05.02,21.94-1.33,43.71-3.73,65.54-2.47,22.44-6.2,44.63-11.05,66.57-12.04,54.41-30.89,106.55-55.94,156.31-16.3,32.37-35.17,63.26-55.94,93.04-20.73,29.73-42.92,58.35-67.65,84.7-25.7,27.38-52.08,54.22-81.26,78.17-19,15.6-38.25,30.8-58.29,44.98-51.26,36.25-106.22,65.88-164.09,90.1-35.58,14.89-72.08,27.12-109.43,36.84-37.21,9.68-74.85,16.87-113.04,21.7-17.08,2.16-34.24,3.29-51.32,5.3-14.78,1.74-29.78.55-44.76,1.91-23.84,2.18-47.81-1.37-71.7-2.24-17.03-.62-34.3-2.25-51.29-5.25-15.3-2.7-30.83-4.16-46.09-7.04-29.31-5.53-58.32-12.31-86.97-20.75-42.16-12.42-83.34-27.43-123.04-46.23-44.82-21.23-88.19-45.24-131.04-70.22-33.02-19.25-65.75-38.94-98.03-59.41-44.62-28.29-88.41-57.8-131.46-88.42-2.9-2.07-5.67-4.86-9.82-4.14Zm185.12-1234.82l.55.67-.53-.69c4.13,1.48,7.74.02,11.47-1.7,27.17-12.52,55.49-21.88,84.31-29.71,18.52-5.03,37.3-8.95,56.04-13.09,17.17-3.79,34.42-6.33,51.73-8.93,12.11-1.82,24.31-2.81,36.41-4.42,19.03-2.54,37.97-5.5,57.24-5.52,2.91,0,6.17.57,7.7-3.06,5.31,2.03,10.26,4.75,15.08,7.74,32.65,20.25,63.28,42.89,90.25,70.6,14.66,15.06,28.93,30.27,41.4,47.14,20.84,28.18,35.78,59.22,45.13,92.79-2.51,1.8-4.88,1.41-6.35.64-9.81-5.17-20.63-7.69-30.69-12.08-16.55-7.22-33.63-13.1-51.2-16.67-18.86-3.83-37.58-8.32-56.6-11.64-29.94-5.22-59.98-8.25-90.23-9.28-63.19-2.16-125.89,1.55-187.82,15.71-31.35,7.17-62.29,15.05-91.99,27.7-22.95,9.78-44.67,21.55-64.96,35.94-14.55,10.32-27.91,21.81-38.43,36.66-14.39,20.3-22.67,42.06-20.42,67.19.44,4.92-.33,9.99,1.38,14.75,8.51,23.77,21.59,44.5,41.13,60.79,31.07,25.89,66.39,44.45,104.15,58.12,16.8,6.08,34.31,10.41,51.68,14.99,29.9,7.88,60.38,12.18,90.91,15.64,24.43,2.77,49.11,4.18,73.79,4.21,47.98.06,95.61-3.3,142.89-12.09,19.11-3.55,38.04-7.71,56.72-12.81,15.23-4.16,30.06-9.84,44.89-15.33,11.91-4.41,23.91-8.82,35.24-14.48,24.86-12.4,47.65-27.89,67.68-47.38,18.15-17.65,29.49-39.1,33.3-63.69,4.07-26.26-5.32-49.67-21.01-70.44-13.18-17.46-29.57-31.68-48.25-42.98-10.33-6.25-19.09-12.87-18.69-26.46.06-1.89-.96-3.86-1.69-5.72-5.49-13.98-10.38-28.23-16.68-41.83-12.8-27.66-29.58-52.94-49.47-75.98-31.81-36.85-68.76-67.87-110.29-93.19-11.37-6.93-22.83-14.16-36.11-17.64-7.36-1.93-14.95-2.71-22.15-4.65-9.38-2.52-18.79-4.14-28.34-4.9-58.61-4.62-114.39,6.95-168.27,29.58-13.12,5.51-25.3,12.71-37.73,19.46-42.34,22.96-81.24,50.62-114.9,85.29-1.85,1.9-4.16,3.71-5.13,6.03-1.4,3.38-1.98,7.55,1.58,10.04,3.18,2.22,6.9,2.31,9.88-1.03.44-.5.91-.97,1.39-1.44,11.9-11.68,24.44-22.65,37.22-33.36,6.6-5.53,13.31-10.94,20.91-15.1,3.21.18,6.62.63,5.87-4.43Zm984.49,974.96c.04-.74.07-1.49.11-2.23,4.4-25.08,4-50.25,1.33-75.46-.1-1.02-.19-2.05-.29-3.07-.03-1.98.26-4.04-.15-5.94-4.85-22.55-9.67-45.05-16.14-67.27-8.19-28.12-19.97-54.46-34.75-79.48-14.51-24.56-30.8-47.93-51.47-67.9-12.17-11.76-24.02-23.67-37.76-33.9-25.94-19.31-52.23-37.57-82.71-49.19-17.21-6.56-34.11-13.95-51.88-18.88-8.99-2.49-17.81-6.23-27.49-5.11-10.56-6.37-22.85-4.73-34.27-6.89-11.34-2.15-23.27-2.29-34.88-1.77-39.94,1.8-79.4,6.17-117.26,20.65-19.02,7.28-38.81,13.33-56.23,23.54-46.29,27.12-87.64,60.47-120.68,103.36-15.91,20.66-28.96,43.17-40.42,66.33-9.04,18.26-16.49,37.57-20.87,57.8-2.15,9.92-6.67,19.48-7.69,29.45-2.14,20.84-5.26,41.6-5.76,62.63-.55,23.43,1.2,46.81,6.11,69.5,4.09,18.91,10.21,37.57,19.1,55.2,15.12,29.98,34.33,56.75,59.13,79.39,35.73,32.62,77.05,55.6,122.97,70.43,20.23,6.53,40.54,12.68,61.76,15.49,19.8,2.62,39.48,6.14,59.43,7.72,72.55,5.73,144.48,3.9,214.96-16.84,15.61-4.59,30.59-10.72,45.34-17.48,27.47-12.58,52.65-28.57,74.46-49.66,21.67-20.96,39.77-44.57,51.68-72.35,8.05-18.79,14.03-38.34,19.29-58.18,2.64-9.96,2.89-20.01,5.03-29.87Zm31.26-414.06c20.93-.02,37.24-.69,53.53-1.98,23.45-1.87,46.78-4.98,69.59-10.64,17.83-4.43,36.1-7.52,53.31-14.1,10.87-4.16,21.57-8.97,32.42-13.1,22.14-8.42,42.68-19.51,62.29-32.56,2.49-1.66,4.79-3.61,7.23-5.34,2.94-2.08,3.36-5.07,2.21-7.98-1.16-2.93-3.72-4.38-7.09-4.53-2.88-.12-5.1,1.03-7.37,2.51-30.7,20.01-63.35,35.56-98.49,46.47-17.16,5.33-34.28,10.56-51.83,14.12-33.65,6.84-67.72,10.18-102.07,10.82-28.05.52-55.93-1.54-83.8-4.35-18.76-1.89-37.75-3.44-55.87-8.25-24.73-6.57-49.75-12.09-74.15-20.01-23.06-7.49-46.4-14.06-68.47-24.37-9.99-4.67-20.45-8.33-30.52-12.83-10.16-4.54-20.69-8.48-29.06-16.3-4.87-4.55-8.3-4.69-11.99-.91-3.68,3.78-3.45,7.01,1.07,12.21,4.45,5.12,10.05,8.72,16.13,11.57,12.08,5.65,23.89,12.13,36.41,16.55,11.37,4.01,21.72,10.09,33.1,13.99,14.71,5.04,29.59,9.52,44.28,14.54,23.79,8.12,48.11,14.55,72.57,19.66,14.28,2.98,28.9,5.62,43.57,7.5,32.44,4.17,64.94,6.55,93,7.33Zm-778.76-15.98c12.32.27,24.63-.04,36.93-1.06,28.14-2.34,56.19-4.68,83.95-10.64,12.54-2.69,25.39-4.73,37.74-8.06,23.2-6.27,46.72-11.34,69.27-20.27,19.52-7.73,39.31-14.9,59.02-22.2,6.11-2.26,12.01-5.11,17.9-7.92,3.36-1.61,4.88-4.45,3.82-8.25-1.11-3.99-3.61-6.32-7.93-6.13-2.31.1-4.27,1.15-6.4,2.08-20.53,8.98-41.36,17.22-62.43,24.83-19.39,7.01-39.36,12.05-59.11,17.85-19.01,5.59-38.43,9.64-57.81,13.17-26.14,4.75-52.62,7.75-79.27,9.23-32.03,1.78-63.9,1.07-95.78-2.06-19.56-1.92-38.82-5.28-58.11-9.15-29.45-5.91-57.91-14.97-85.34-26.55-20.07-8.47-39.58-18.86-57.58-31.59-6.31-4.47-11.54-4.32-14.23-.51-2.73,3.87-1.11,8.55,5.43,13.15,19.29,13.55,40.03,24.55,61.62,33.93,8.02,3.48,16.38,6.2,24.38,9.72,17.43,7.69,36.1,11.14,54.34,15.92,5.71,1.5,11.35,3.66,17.25,4.48,37.28,5.19,74.52,10.8,112.34,10.04Z"/>
  <path class="cls-3" d="m1901.1,1045.58c1.91-1.24,2.24-3.16,2.24-5.22,0-3,.02-5.99.02-8.99,0-168.46,0-336.93,0-505.39,0-4.66-.07-9.32-.1-13.98,11.31-.05,22.43,2.12,33.66,3.02,31.13,2.48,62.23,5.29,93.44,6.89,20.9,1.07,41.79,2.28,62.71,3.1,2.33.09,4.65.53,6.96.51,3.85-.04,5.36,1.73,5.09,5.51-.19,2.65-.03,5.33-.03,8,0,323.63.13,647.27-.12,970.9-.04,56.54-3.86,112.9-11.04,169.05-6.15,48.07-14.64,95.63-26.51,142.62-8.28,32.79-17.55,65.31-28.82,97.15-7.24,20.45-14.47,40.97-22.99,61.01-3.1,7.29-8.79,13.97-8.49,22.64-10.79,17.98-18.36,37.59-28.2,56.04-9.45,17.73-19.31,35.24-28.93,52.88-8.16,14.98-17.59,29.19-26.9,43.42-28.41,43.44-60.02,84.49-94.52,123.3-17.93,20.16-36.39,39.81-55.74,58.62-49.31,47.92-102.28,91.38-158.78,130.55-25.97,18.01-52.62,34.96-79.78,51.11-14.98,8.91-29.65,18.48-45.2,26.29-20.07,10.08-39.28,21.76-59.76,31.06-27.06,12.29-53.96,24.91-81.45,36.23-10.08,4.15-19.79,9.16-30.2,12.59-20.41,6.73-40.06,15.5-60.74,21.62-9.28,2.75-18.4,6.59-27.74,9.52-24.59,7.71-49.21,15.25-74.18,21.65-6.36,1.63-11.44-1.87-16.53-3.74-7.72-2.83-15.68-4.77-23.48-6.96-16.27-4.56-32.39-9.65-48.76-13.9-9.15-2.38-18.04-6.52-26.99-10.01-14.29-5.57-28.73-10.56-43.28-15.42-11.35-3.79-23.06-7.48-33.37-14.57-6.35-4.37-14.26-6.6-21.66-9.27-5.46-1.97-10.34-5.34-15.68-7.09-22.75-7.46-42.48-21.02-64.05-30.84-7.8-3.55-15.89-6.7-23.28-10.85-11.18-6.28-22.37-12.79-33.61-18.78-9.38-5-17.57-11.94-28.02-15.62-11.36-4.01-19.95-13.77-30.49-20.02-13.29-7.88-26.19-16.47-38.98-25.16-49.53-33.61-96.27-70.75-140.86-110.71-20-17.92-38.57-37.17-57.36-56.27-33.23-33.78-62.72-70.71-91.14-108.53-23.68-31.5-44.59-64.79-64.14-98.96-5.47-9.56-12.47-18.29-15.88-28.98,4.15-.72,6.92,2.08,9.82,4.14,43.05,30.62,86.84,60.12,131.46,88.42,32.28,20.47,65.01,40.16,98.03,59.41,42.85,24.98,86.21,48.99,131.04,70.22,39.7,18.8,80.88,33.81,123.04,46.23,28.65,8.44,57.67,15.22,86.97,20.75,15.26,2.88,30.79,4.34,46.09,7.04,16.99,3,34.26,4.62,51.29,5.25,23.9.87,47.86,4.42,71.7,2.24,14.98-1.37,29.98-.17,44.76-1.91,17.08-2.01,34.24-3.14,51.32-5.3,38.19-4.83,75.83-12.01,113.04-21.7,37.34-9.72,73.84-21.95,109.43-36.84,57.87-24.22,112.83-53.84,164.09-90.1,20.04-14.17,39.29-29.38,58.29-44.98,29.17-23.95,55.55-50.79,81.26-78.17,24.73-26.34,46.91-54.97,67.65-84.7,20.77-29.78,39.65-60.67,55.94-93.04,25.05-49.76,43.9-101.89,55.94-156.31,4.85-21.94,8.58-44.13,11.05-66.57,2.4-21.83,3.75-43.6,3.73-65.54-.11-144.02-.05-288.04-.08-432.05,0-5.33-.35-10.65-.54-15.98.6-2.24,1.69-4.15,3.05-6.09,5.39-7.7,11.03-15.18,14.55-24.15,3.61-9.21,6.36-18.7,8.79-28.17,2.37-9.25-.55-18.49-3.04-27.87-3.3-12.45-6.73-24.39-14.58-34.83-3.72-4.95-7.98-9.61-10.48-15.42Z"/>
  <path class="cls-8" d="m516.74,841.21c-7.6,4.16-14.31,9.57-20.91,15.1-12.77,10.71-25.31,21.68-37.22,33.36-.48.47-.95.94-1.39,1.44-2.98,3.34-6.7,3.25-9.88,1.03-3.56-2.48-2.98-6.66-1.58-10.04.96-2.32,3.28-4.13,5.13-6.03,33.66-34.68,72.56-62.33,114.9-85.29,12.43-6.74,24.61-13.94,37.73-19.46,53.87-22.63,109.66-34.2,168.27-29.58,9.54.75,18.96,2.38,28.34,4.9,7.2,1.93,14.79,2.72,22.15,4.65,13.28,3.48,24.74,10.71,36.11,17.64,41.54,25.31,78.48,56.34,110.29,93.19,19.89,23.04,36.67,48.32,49.47,75.98,6.29,13.6,11.19,27.85,16.68,41.83.73,1.85,1.74,3.83,1.69,5.72-.4,13.6,8.36,20.22,18.69,26.46,18.68,11.3,35.07,25.52,48.25,42.98,15.69,20.78,25.08,44.18,21.01,70.44-3.81,24.59-15.14,46.04-33.3,63.69-20.03,19.48-42.82,34.98-67.68,47.38-11.34,5.66-23.33,10.07-35.24,14.48-14.83,5.49-29.67,11.17-44.89,15.33-18.68,5.1-37.61,9.25-56.72,12.81-47.28,8.79-94.91,12.15-142.89,12.09-24.68-.03-49.36-1.44-73.79-4.21-30.52-3.46-61.01-7.76-90.91-15.64-17.37-4.58-34.88-8.91-51.68-14.99-37.76-13.68-73.08-32.24-104.15-58.12-19.55-16.29-32.62-37.02-41.13-60.79-1.71-4.77-.94-9.83-1.38-14.75-2.25-25.13,6.03-46.89,20.42-67.19,10.52-14.85,23.88-26.34,38.43-36.66,20.29-14.39,42.01-26.17,64.96-35.94,29.7-12.65,60.64-20.53,91.99-27.7,61.93-14.16,124.63-17.87,187.82-15.71,30.25,1.03,60.29,4.06,90.23,9.28,19.01,3.31,37.74,7.8,56.6,11.64,17.57,3.57,34.65,9.45,51.2,16.67,10.07,4.39,20.89,6.91,30.69,12.08,1.47.78,3.84,1.16,6.35-.64-9.35-33.58-24.29-64.61-45.13-92.79-12.47-16.87-26.74-32.08-41.4-47.14-26.97-27.71-57.6-50.35-90.25-70.6-4.82-2.99-9.77-5.71-15.08-7.74-2.87-3.18-6.92-3.83-10.76-4.73-8.01-1.88-16.03-3.86-24.15-5.18-45.01-7.3-89.53-4.12-133.32,7.93-31.95,8.79-62.14,22.22-91.25,37.98-16.07,8.7-31.54,18.4-45.42,30.42l.53.69s-.55-.67-.55-.67c-2.52.73-4.52,2.15-5.87,4.43Zm286.75,114.89c-2.6-.99-5.15-1.55-8.02.25,2.49,2.64,4.86,3.41,7.53,3.47,8.22,4.91,17.86,6.46,26.23,11.05,33.74,18.51,59.26,44.2,73.51,80.76,5.38,13.8,10.33,27.52,12.58,42.1,2.6,16.83,1.53,33.33-1.41,50.33-3.21,18.55-10.51,35.17-18,51.79-7.04,15.62-18.89,28.06-31.28,39.85-15.59,14.85-33.87,25.28-53.55,33.53-4.02.91-8.53.83-10.95,5.56,3.76-1.26,7.63-.51,11.28-1.63,1.66-.03,3.34.03,4.99-.12,54.87-5.06,108.8-14.42,160.5-34.39,23.24-8.98,46.3-18.26,67.35-31.84,18.04-11.64,34.41-25.16,47.37-42.47,10.73-14.34,17.42-30.44,17.63-48.33.24-20.46-7.77-38.37-20.61-54.1-10.17-12.46-22.01-23.11-35.08-32.52-20.54-14.78-43.28-25.08-66.81-33.89-11.88-4.45-23.46-9.95-35.63-13.29-15.52-4.26-30.76-9.51-47.04-11.41-17.77-2.07-35.17-7.16-52.89-9.85-15.78-2.39-31.79-3.3-47.69-4.86Zm-406.35,145.51c-1.59,8.6-1.13,17.21-.17,25.83-4.54,2.51.61,4.05.62,6.1-.34.6-.38,1.23-.12,1.87-.4,1.99-.68,3.91,2.29,3.95,1.18,4.05,1.05,8.63,3.88,12.03,7.58,9.13,13.97,19.18,22.37,27.7,26.8,27.2,60.11,44.06,94.74,58.07,20.84,8.43,42.55,15.12,64.73,19.79,15.39,3.24,30.55,7.92,46.07,10.2,19.69,2.89,39.64,4,59.47,5.88,4.71,1.21,9.42,1.25,14.15,1.04.1-.65.2-1.29.3-1.94-4.71-.92-9.41-1.84-14.12-2.76-6.42-3.52-12.9-6.94-19.25-10.58-22.94-13.16-41.74-30.82-56.51-52.72-7.38-10.94-13.77-22.5-18.26-34.94-4.29-11.86-5.99-24.31-7.11-36.82-2.83-31.69-.38-62.57,14.87-91.28,21.33-40.15,53.05-68.44,96.09-83.7,3.64.68,6.5-.96,9.93-3-3.79-1.67-6.81-1.46-9.8.06-6.32.37-12.66.53-18.96,1.15-27.66,2.71-55.19,6.27-82.38,12.25-19.22,4.23-38.33,8.99-57.02,15-28.94,9.32-56.23,22.56-82,38.7-21.1,13.21-39.73,29.2-52.92,50.74-2.15,3.52-5.91,5.86-6.8,10.36-1.01,5.05-2.62,9.97-3.96,14.95-.52.19-1.39.26-1.49.58-.36,1.1.59,1.28,1.38,1.48Zm416.26,41.85c29.91-1.25,40.39-13.25,41.25-37.89.76-21.88-11.41-35.22-37.11-37.71-18.71-1.81-37.89,16.96-37.98,36.06-.11,23.56,18.74,39.91,33.85,39.54Zm-125.55-83.56c-11.34,0-20.12,8.95-19.91,20.31.21,11.64,9.49,20.43,21.25,20.15,9.5-.23,18.58-9.83,18.65-19.72.08-10.78-9.52-20.73-19.99-20.73Zm17.9,90.79c6.6,0,12.53-6.03,12.64-12.87.11-6.9-6.36-12.62-14.02-12.38-6.33.2-11.36,5.81-11.33,12.65.03,6.92,5.75,12.59,12.7,12.59Z"/>
  <path class="cls-8" d="m1901.1,1045.58c2.5,5.81,6.75,10.47,10.48,15.42,7.85,10.44,11.28,22.38,14.58,34.83,2.49,9.38,5.41,18.62,3.04,27.87-2.43,9.47-5.18,18.96-8.79,28.17-3.51,8.97-9.16,16.44-14.55,24.15-1.36,1.94-2.45,3.85-3.05,6.09-24.94,26.81-55.29,45.81-88.54,60.29-26.24,11.43-53.35,20.25-81.18,27.35-73.23,18.7-147.64,22.58-222.65,19.34-25.28-1.09-50.35-5.03-75.47-8.2-19.46-2.46-38.56-6.66-57.41-11.62-17.89-4.7-35.88-9.12-53.12-16.45-20.64-8.77-41.09-17.83-60.39-29.21-24.62-14.53-46.21-32.48-62.58-56.39-11.3-16.5-16.01-34.45-16.31-54.26-.32-21.19,7.92-38.94,19.8-55.49,14-19.49,31.81-35.03,52.29-47.27,6.62-3.96,10.36-8.84,11.84-15.97,2.87-13.84,8.86-26.49,15-39.06,13.07-26.74,28.98-51.71,48.25-74.42,37.93-44.7,83.06-80.53,134.42-108.68,14.58-7.99,30.72-10,46.61-12.22,32.82-4.6,65.77-5.07,98.46,1.56,15.37,3.11,30.51,7.17,45.48,11.93,16.32,5.19,31.79,12.45,47.7,18.58,27.54,10.61,52.04,26.24,76.52,42.32,26.58,17.46,50.25,38.12,72.54,60.58,3.96,3.99,4.57,9.13,1.72,12.26-3.38,3.72-8.46,3.37-12.96-1.6-15.5-17.12-33.54-31.34-51.48-45.68-3.38-2.7-6.91-5.19-10.95-6.85-.68-.7-1.27-1.54-2.05-2.09-34.9-24.83-72.21-44.78-112.96-58.58-21.22-7.18-42.55-13.38-64.65-16.5-37.91-5.36-75.6-3.79-112.86,5.47-4.74,1.18-9.62,2.07-13.24,5.81-6.38,1.33-11.38,5.38-16.74,8.65-49.33,30.16-92.48,67.22-127.3,113.67-13.4,17.87-24.49,37.19-34.42,57.04-3.52,7.04-7.77,14.49-8.54,22.86.56,3.15.65,3.17,4.3,1.02,15.21-5.58,29.67-13.02,45.17-17.92,24.22-7.66,48.77-13.81,73.64-19.18,59.94-12.96,120.53-15.48,181.47-13.55,25.26.8,50.58,2.42,75.43,7.3,26.2,5.14,52.68,9.01,78.44,16.21,20.43,5.71,40.01,13.78,59.84,21.26,22.81,8.6,43.77,20,63.79,33.59,11.64,7.9,20.93,18.41,31.42,27.58Zm-281.77,226.46c.64-.08,1.28-.12,1.91-.24,1.72-.33,4.71.33,4.3-2.28-.43-2.75-2.9-1.34-4.64-.71-.6.22-1.24.33-1.86.5-1.24-.04-2.49-.23-3.71-.09-1.66.2-3.41,1.1-3.13,2.84.29,1.86,2.28,1.68,3.87,1.55,1.29-.11,2.46-.45,3.26-1.57Zm-5.94-310.65c11.96.59,22.09,6.79,31.84,12.32,35.04,19.89,59.52,48.8,72.42,87.56,6.55,19.68,10.56,39.44,9.58,60.12-.53,11.24-2.51,22.2-5.64,33.15-4.39,15.36-9.42,30.41-17.26,44.25-16.28,28.71-40.32,49.25-69.69,63.83-2.39,1.18-4.83,2.25-7.24,3.39-1.6.76-2.75,1.85-2.18,3.8.46,1.58,1.85,1.63,3.18,1.58,1.66-.06,3.33-.13,4.99-.28,23.72-2.2,47.2-5.91,70.51-10.79,28.04-5.87,55.4-13.71,82.2-24.12,24.29-9.43,47.99-19.61,69.62-34.24,15.56-10.53,30.2-22.36,40.72-37.99,23.63-35.11,24.48-64.25-.79-99.41-10.96-15.25-25.45-27.16-40.95-37.8-26.28-18.05-55.46-29.74-85.64-39.15-17.04-5.31-33.55-12.28-51.43-15.03-10.25-1.58-20.66-3.18-30.64-5.61-24.31-5.94-49.02-7.9-73.73-10.3-2.31-1.8-4.74-1.78-7.71-.32,2.14,2.73,4.51,4.57,7.84,5.05Zm-98.22-2.15c3.6-.87,7.2-1.74,10.8-2.61-4.96-2.21-9.87-1.67-14.79-.61-36.47,2.34-72.65,6.69-108.38,14.67-20.39,4.55-40.82,9.21-60.66,15.55-19.91,6.36-38.68,15.92-57.22,25.68-17.75,9.35-34.4,20.3-49.04,34.09-11.95,11.26-22.72,23.5-28.88,39.02-8.54,21.53-9.34,42.77,2,63.9,9.98,18.61,23.76,33.7,40.57,46.07,33.37,24.55,70.44,41.48,110.06,53.32,17.94,5.36,36.18,9.26,54.4,13.25,29.32,6.42,59.17,9.15,89.07,11.27,5.41,1.43,10.79,1.32,16.2.03-4.07-1.35-7.64-4.07-12.05-3.29-6.51-.65-11.24-5.14-16.67-8.01-19.26-10.2-36.44-23.16-50.71-39.77-13.68-15.93-25.09-33.65-31.72-53.3-7.99-23.66-9.16-48.71-6.68-73.67,1.54-15.57,4.75-30.63,11.8-44.97,21.71-44.16,53.83-76.27,101.9-90.62Zm-47.82,162.9c0,19.58,16.97,38.36,34.57,38.51,27.12.25,41.96-19.66,40.9-37.93-1.47-25.4-14.25-34.55-38.26-37.39-19.65-2.32-39.43,18.49-37.22,36.8Zm166.72-45c-10.48-.01-19.01,8.74-19.11,19.6-.1,11.17,7.76,19.89,17.93,19.88,13.37-.01,21.14-7.57,21.26-20.68.1-10.83-8.4-18.79-20.09-18.8Zm-17.95,64.61c-5.82-.1-11.81,5.79-12.33,12.13-.48,5.84,6.91,13.49,13.27,13.74,6.72.26,12.33-5.9,12.44-13.66.09-5.86-6.75-12.09-13.39-12.21Z"/>
  <path class="cls-8" d="m1508.53,1734.05c2.67,25.21,3.07,50.38-1.33,75.46-.52.22-1.39.33-1.51.68-.38,1.12.51,1.4,1.4,1.54-2.14,9.86-2.39,19.9-5.03,29.87-5.26,19.85-11.23,39.4-19.29,58.18-11.91,27.78-30.01,51.4-51.68,72.35-21.81,21.09-46.99,37.08-74.46,49.66-14.75,6.76-29.73,12.88-45.34,17.48-70.48,20.75-142.41,22.57-214.96,16.84-19.95-1.57-39.63-5.1-59.43-7.72-21.23-2.81-41.53-8.96-61.76-15.49-45.92-14.83-87.24-37.81-122.97-70.43-24.8-22.64-44.01-49.41-59.13-79.39-8.89-17.62-15.01-36.29-19.1-55.2-4.91-22.68-6.66-46.07-6.11-69.5.5-21.03,3.62-41.79,5.76-62.63,1.03-9.97,5.55-19.54,7.69-29.45,4.38-20.23,11.83-39.55,20.87-57.8,11.47-23.16,24.51-45.67,40.42-66.33,33.04-42.89,74.39-76.24,120.68-103.36,17.42-10.21,37.21-16.26,56.23-23.54,37.86-14.49,77.32-18.86,117.26-20.65,11.6-.52,23.53-.38,34.88,1.77,11.42,2.16,23.71.53,34.27,6.89,9.69-1.13,18.51,2.61,27.49,5.11,17.78,4.93,34.68,12.32,51.88,18.88,30.49,11.62,56.77,29.88,82.71,49.19,13.74,10.23,25.59,22.14,37.76,33.9,20.68,19.97,36.96,43.35,51.47,67.9,14.78,25.02,26.56,51.36,34.75,79.48,6.47,22.22,11.29,44.72,16.14,67.27.41,1.9.11,3.96.15,5.94-1.29,0-2.77.49-2.65,1.74.11,1.18,1.66,1.48,2.94,1.34Zm-345.13-325.83c-19.28-1.85-38.57-1.41-57.81.34-28.16,2.56-55.43,9.11-82.34,17.79-16.2,5.22-31.85,11.53-46.93,19.2-39.9,20.27-74.38,47.46-104.59,80.57-47.65,52.23-75.28,113.87-88.48,182.63-.3,1.55.19,3.26.31,4.89-.8,14.3-2.89,28.49-3.12,42.84-.66,40.29,3.67,79.79,20.31,116.95,22.88,51.11,60.8,88.7,108.77,116.21,31.2,17.89,64.66,30.82,99.63,39.59,31.09,7.79,62.84,12.46,94.58,15.14,40.78,3.44,81.85,3.17,122.72-1.1,22.57-2.36,44.89-6.22,66.98-11.5,9.94-2.38,19.34-6.2,29.04-9.19,23.01-7.09,44.47-17.91,64.79-30.63,16.49-10.32,30.66-23.71,44.36-37.61,21.86-22.17,36.3-48.8,47.49-77.29,8.97-22.84,14.28-46.73,16.92-71.2,4.59-42.36,1.89-84.2-8.78-125.45-3.78-14.6-8.72-28.85-13.83-43.07-16.05-44.69-41.97-83.09-73.75-117.78-21.86-23.86-47.69-42.9-75.03-60.08-19.38-12.18-40.11-21.7-61.39-29.35-13.75-4.94-27.74-10.42-42.47-12.42-8.15-1.11-15.65-4.48-23.63-5.93-11.15-2.02-22.44-2.97-33.75-3.55Z"/>
  <path class="cls-8" d="m1538.35,1397.68c-28.06-.78-60.55-3.16-93-7.33-14.67-1.89-29.29-4.52-43.57-7.5-24.46-5.11-48.78-11.54-72.57-19.66-14.69-5.02-29.58-9.5-44.28-14.54-11.38-3.9-21.74-9.98-33.1-13.99-12.52-4.42-24.33-10.9-36.41-16.55-6.08-2.84-11.68-6.45-16.13-11.57-4.52-5.2-4.75-8.43-1.07-12.21,3.69-3.78,7.12-3.64,11.99.91,8.37,7.82,18.9,11.76,29.06,16.3,10.08,4.5,20.53,8.16,30.52,12.83,22.07,10.31,45.41,16.88,68.47,24.37,24.39,7.92,49.42,13.44,74.15,20.01,18.12,4.81,37.11,6.36,55.87,8.25,27.86,2.81,55.75,4.87,83.8,4.35,34.35-.63,68.42-3.98,102.07-10.82,17.55-3.56,34.67-8.79,51.83-14.12,35.15-10.91,67.8-26.46,98.49-46.47,2.27-1.48,4.48-2.63,7.37-2.51,3.38.14,5.94,1.6,7.09,4.53,1.15,2.91.73,5.9-2.21,7.98-2.44,1.73-4.74,3.68-7.23,5.34-19.61,13.05-40.15,24.14-62.29,32.56-10.85,4.13-21.55,8.94-32.42,13.1-17.21,6.58-35.48,9.67-53.31,14.1-22.8,5.67-46.13,8.77-69.59,10.64-16.28,1.3-32.6,1.96-53.53,1.98Z"/>
  <path class="cls-8" d="m759.59,1381.71c-37.82.77-75.06-4.84-112.34-10.04-5.9-.82-11.54-2.98-17.25-4.48-18.24-4.78-36.92-8.23-54.34-15.92-8-3.53-16.36-6.24-24.38-9.72-21.59-9.38-42.33-20.37-61.62-33.93-6.54-4.6-8.16-9.29-5.43-13.15,2.69-3.81,7.92-3.95,14.23.51,18,12.74,37.51,23.12,57.58,31.59,27.43,11.58,55.88,20.64,85.34,26.55,19.29,3.87,38.54,7.23,58.11,9.15,31.89,3.13,63.76,3.84,95.78,2.06,26.65-1.48,53.14-4.48,79.27-9.23,19.37-3.52,38.79-7.58,57.81-13.17,19.75-5.8,39.72-10.84,59.11-17.85,21.07-7.62,41.9-15.85,62.43-24.83,2.13-.93,4.09-1.98,6.4-2.08,4.32-.19,6.83,2.13,7.93,6.13,1.05,3.8-.46,6.64-3.82,8.25-5.89,2.81-11.79,5.66-17.9,7.92-19.71,7.3-39.51,14.47-59.02,22.2-22.55,8.93-46.07,14-69.27,20.27-12.35,3.34-25.2,5.37-37.74,8.06-27.77,5.96-55.82,8.3-83.95,10.64-12.31,1.02-24.61,1.33-36.93,1.06Z"/>
  <path class="cls-3" d="m522.63,836.77c13.88-12.02,29.35-21.72,45.42-30.42,29.11-15.76,59.3-29.19,91.25-37.98,43.79-12.05,88.31-15.23,133.32-7.93,8.12,1.32,16.13,3.3,24.15,5.18,3.83.9,7.88,1.55,10.76,4.73-1.53,3.62-4.78,3.05-7.7,3.06-19.26.02-38.2,2.98-57.24,5.52-12.1,1.62-24.31,2.61-36.41,4.42-17.31,2.6-34.57,5.13-51.73,8.93-18.74,4.14-37.53,8.06-56.04,13.09-28.82,7.83-57.13,17.19-84.31,29.71-3.73,1.72-7.34,3.17-11.47,1.7Z"/>
  <path class="cls-3" d="m1474.61,787.06c3.62-3.74,8.5-4.63,13.24-5.81,37.26-9.27,74.95-10.83,112.86-5.47,22.1,3.12,43.43,9.32,64.65,16.5,40.75,13.79,78.06,33.75,112.96,58.58.78.56,1.37,1.39,2.05,2.09-6.86,1.57-12.19-2.77-17.82-5.13-23.56-9.91-47.61-18.11-72.32-24.74-16.31-4.38-32.43-9.5-49.05-12.64-26.28-4.96-52.45-10.3-79.1-13.41-18.33-2.14-36.92-2.53-55.04-7.01-6.29-1.56-13.25-.49-19.9-.51-4.35,0-8.68.05-12.53-2.44Z"/>
  <path class="cls-3" d="m516.74,841.21c1.35-2.28,3.35-3.7,5.87-4.43.75,5.06-2.66,4.61-5.87,4.43Z"/>
  <path class="cls-5" d="m1291.92,990.31c-3.64,2.15-3.74,2.13-4.3-1.02,1.43.34,2.87.68,4.3,1.02Z"/>
  <path class="cls-11" d="m1508.53,1734.05c-1.28.15-2.83-.16-2.94-1.34-.12-1.24,1.36-1.73,2.65-1.74.1,1.02.19,2.05.29,3.07Z"/>
  <path class="cls-11" d="m1507.09,1811.74c-.89-.15-1.79-.42-1.4-1.54.12-.36.99-.46,1.51-.68-.04.74-.07,1.48-.11,2.23Z"/>
  <path class="cls-2" d="m396.97,1127.44c-.95-8.62-1.42-17.23.17-25.83.04-.69.07-1.38.11-2.06,1.35-4.98,2.96-9.9,3.96-14.95.9-4.49,4.65-6.84,6.8-10.36,13.19-21.54,31.82-37.53,52.92-50.74,25.77-16.14,53.06-29.38,82-38.7,18.69-6.02,37.8-10.77,57.02-15,27.19-5.99,54.72-9.54,82.38-12.25,6.3-.62,12.64-.78,18.96-1.15-.04.98-.09,1.96-.13,2.94-43.04,15.26-74.76,43.56-96.09,83.7-15.26,28.72-17.71,59.59-14.87,91.28,1.12,12.51,2.82,24.96,7.11,36.82,4.49,12.44,10.88,23.99,18.26,34.94,14.77,21.9,33.57,39.56,56.51,52.72,6.35,3.64,12.83,7.06,19.25,10.58-.11,1.22-.22,2.43-.33,3.65-19.84-1.88-39.79-2.99-59.47-5.88-15.52-2.28-30.67-6.96-46.07-10.2-22.18-4.67-43.89-11.36-64.73-19.79-34.63-14.01-67.93-30.87-94.74-58.07-8.4-8.52-14.78-18.57-22.37-27.7-2.83-3.4-2.7-7.98-3.88-12.03,2.32-3.1-.54-3.21-2.29-3.95-.26-.64-.22-1.27.12-1.87,2.4-2.3,2-4.31-.62-6.1Z"/>
  <path class="cls-2" d="m811.07,1269.23c19.68-8.25,37.96-18.68,53.55-33.53,12.38-11.79,24.24-24.23,31.28-39.85,7.49-16.63,14.79-33.24,18-51.79,2.95-17,4.01-33.5,1.41-50.33-2.25-14.58-7.2-28.3-12.58-42.1-14.25-36.56-39.77-62.25-73.51-80.76-8.36-4.59-18-6.13-26.23-11.05.16-1.24.33-2.48.49-3.72,15.91,1.56,31.91,2.47,47.69,4.86,17.72,2.69,35.12,7.78,52.89,9.85,16.28,1.89,31.52,7.14,47.04,11.41,12.18,3.34,23.75,8.84,35.63,13.29,23.53,8.81,46.27,19.1,66.81,33.89,13.07,9.41,24.91,20.06,35.08,32.52,12.84,15.73,20.85,33.65,20.61,54.1-.21,17.88-6.9,33.99-17.63,48.33-12.96,17.31-29.33,30.83-47.37,42.47-21.05,13.58-44.1,22.86-67.35,31.84-51.7,19.97-105.63,29.33-160.5,34.39-1.65.15-3.33.08-4.99.12-.11-1.31-.22-2.62-.34-3.93Z"/>
  <path class="cls-2" d="m813.4,1143.46c-15.1.38-33.95-15.98-33.85-39.54.09-19.1,19.27-37.87,37.98-36.06,25.71,2.49,37.88,15.83,37.11,37.71-.86,24.64-11.34,36.63-41.25,37.89Z"/>
  <path class="cls-2" d="m687.85,1059.9c10.47,0,20.06,9.96,19.99,20.73-.07,9.89-9.15,19.49-18.65,19.72-11.76.29-21.04-8.51-21.25-20.15-.21-11.36,8.57-20.31,19.91-20.31Z"/>
  <path class="cls-2" d="m705.75,1150.69c-6.96,0-12.67-5.67-12.7-12.59-.03-6.84,5-12.45,11.33-12.65,7.65-.24,14.13,5.48,14.02,12.38-.11,6.83-6.05,12.87-12.64,12.87Z"/>
  <path class="cls-5" d="m691.01,1273.03c.11-1.22.22-2.43.33-3.65,4.71.92,9.41,1.84,14.12,2.76-.1.65-.2,1.29-.3,1.94-4.72.21-9.44.17-14.15-1.04Z"/>
  <path class="cls-6" d="m811.07,1269.23c.11,1.31.22,2.62.34,3.93-3.65,1.12-7.52.37-11.28,1.63,2.42-4.73,6.92-4.64,10.95-5.56Z"/>
  <path class="cls-5" d="m701.16,959.33c.04-.98.09-1.96.13-2.94,2.99-1.52,6.01-1.73,9.8-.06-3.43,2.04-6.29,3.68-9.93,3Z"/>
  <path class="cls-6" d="m803.49,956.1c-.16,1.24-.33,2.48-.49,3.72-2.66-.06-5.03-.83-7.53-3.47,2.87-1.8,5.42-1.24,8.02-.25Z"/>
  <path class="cls-7" d="m396.97,1127.44c2.61,1.79,3.02,3.8.62,6.1-.01-2.05-5.16-3.59-.62-6.1Z"/>
  <path class="cls-7" d="m397.46,1135.41c1.75.74,4.61.85,2.29,3.95-2.97-.04-2.68-1.97-2.29-3.95Z"/>
  <path class="cls-7" d="m397.25,1099.55c-.04.69-.07,1.38-.11,2.06-.8-.2-1.74-.38-1.38-1.48.11-.32.97-.39,1.49-.58Z"/>
  <path class="cls-2" d="m1503.1,1272.85c-29.9-2.12-59.75-4.85-89.07-11.27-18.22-3.99-36.46-7.89-54.4-13.25-39.62-11.84-76.69-28.77-110.06-53.32-16.81-12.37-30.6-27.46-40.57-46.07-11.33-21.13-10.54-42.37-2-63.9,6.15-15.51,16.93-27.76,28.88-39.02,14.64-13.79,31.3-24.74,49.04-34.09,18.54-9.76,37.32-19.32,57.22-25.68,19.84-6.34,40.27-11,60.66-15.55,35.73-7.97,71.91-12.33,108.38-14.67.9,1.61,3.46,1.15,3.99,3.22-48.07,14.34-80.19,46.45-101.9,90.62-7.05,14.35-10.26,29.41-11.8,44.97-2.48,24.96-1.3,50,6.68,73.67,6.63,19.65,18.04,37.38,31.72,53.3,14.27,16.61,31.45,29.58,50.71,39.77,5.43,2.87,10.16,7.36,16.67,8.01-.04,2.8-3.25,1.56-4.15,3.26Z"/>
  <path class="cls-2" d="m1613.26,956.66c24.71,2.41,49.42,4.37,73.73,10.3,9.98,2.44,20.39,4.04,30.64,5.61,17.88,2.75,34.39,9.72,51.43,15.03,30.18,9.4,59.36,21.1,85.64,39.15,15.5,10.64,29.99,22.55,40.95,37.8,25.27,35.17,24.42,64.31.79,99.41-10.52,15.62-25.16,27.46-40.72,37.99-21.63,14.63-45.33,24.81-69.62,34.24-26.8,10.41-54.16,18.25-82.2,24.12-23.31,4.88-46.79,8.59-70.51,10.79-1.66.15-3.33.22-4.99.28-1.33.05-2.72,0-3.18-1.58-.56-1.95.59-3.04,2.18-3.8,2.41-1.14,4.85-2.21,7.24-3.39,29.36-14.58,53.41-35.12,69.69-63.83,7.84-13.83,12.87-28.89,17.26-44.25,3.13-10.95,5.11-21.9,5.64-33.15.97-20.67-3.03-40.43-9.58-60.12-12.9-38.76-37.38-67.67-72.42-87.56-9.75-5.54-19.89-11.73-31.84-12.32-1.37-1.54-.92-3.13-.13-4.72Z"/>
  <path class="cls-2" d="m1467.35,1122.14c-2.21-18.32,17.57-39.13,37.22-36.8,24.01,2.84,36.79,11.99,38.26,37.39,1.06,18.27-13.79,38.17-40.9,37.93-17.6-.16-34.57-18.94-34.57-38.51Z"/>
  <path class="cls-2" d="m1634.07,1077.15c11.68.01,20.19,7.97,20.09,18.8-.12,13.11-7.89,20.67-21.26,20.68-10.17,0-18.04-8.71-17.93-19.88.1-10.86,8.63-19.61,19.11-19.6Z"/>
  <path class="cls-2" d="m1616.12,1141.75c6.64.12,13.47,6.35,13.39,12.21-.12,7.76-5.73,13.92-12.44,13.66-6.37-.25-13.75-7.89-13.27-13.74.52-6.35,6.51-12.24,12.33-12.13Z"/>
  <path class="cls-5" d="m1503.1,1272.85c.9-1.7,4.11-.46,4.15-3.26,4.41-.78,7.97,1.94,12.05,3.29-5.41,1.3-10.79,1.4-16.2-.03Z"/>
  <path class="cls-6" d="m1515.17,959.24c-.53-2.07-3.09-1.61-3.99-3.22,4.92-1.06,9.83-1.6,14.79.61-3.6.87-7.2,1.74-10.8,2.61Z"/>
  <path class="cls-11" d="m1613.26,956.66c-.79,1.6-1.24,3.19.13,4.72-3.33-.47-5.71-2.32-7.84-5.05,2.98-1.46,5.4-1.48,7.71.32Z"/>
  <path class="cls-11" d="m1619.33,1272.04c-.8,1.12-1.96,1.47-3.26,1.57-1.58.13-3.57.31-3.87-1.55-.28-1.75,1.47-2.65,3.13-2.84,1.22-.14,2.47.05,3.71.09.09.91.19,1.82.28,2.73Z"/>
  <path class="cls-2" d="m1619.33,1272.04c-.09-.91-.19-1.82-.28-2.73.62-.16,1.26-.28,1.86-.5,1.74-.63,4.21-2.04,4.64.71.4,2.61-2.59,1.94-4.3,2.28-.63.12-1.27.16-1.91.24Z"/>
  <path class="cls-7" d="m1163.4,1408.22c11.31.58,22.6,1.53,33.75,3.55,7.98,1.45,15.48,4.82,23.63,5.93,14.73,2,28.72,7.48,42.47,12.42,21.29,7.65,42.01,17.17,61.39,29.35,27.35,17.18,53.17,36.22,75.03,60.08,31.78,34.69,57.7,73.09,73.75,117.78,5.11,14.23,10.05,28.47,13.83,43.07,10.67,41.25,13.37,83.08,8.78,125.45-2.65,24.47-7.96,48.36-16.92,71.2-11.19,28.5-25.63,55.13-47.49,77.29-13.71,13.9-27.87,27.29-44.36,37.61-20.32,12.72-41.78,23.54-64.79,30.63-9.7,2.99-19.1,6.82-29.04,9.19-22.1,5.28-44.41,9.14-66.98,11.5-40.86,4.27-81.93,4.54-122.72,1.1-31.74-2.68-63.49-7.34-94.58-15.14-34.97-8.77-68.44-21.7-99.63-39.59-47.97-27.51-85.89-65.1-108.77-116.21-16.63-37.16-20.96-76.66-20.31-116.95.23-14.35,2.32-28.54,3.12-42.84,6.31-1.14,7.61-7.02,10.13-11.36,14.7-25.26,29.11-50.72,45.28-75.06,17.62-26.52,36.36-52.23,57.45-76.24,17.83-20.29,36.43-39.76,57.57-56.45,25.35-20.01,53.02-36.38,82.92-49.04,39.29-16.64,79.59-29.24,122.13-34,2.21-.25,3.84-.93,4.35-3.27Zm-141.8,442.1c-.84-.15-1.68-.3-2.52-.46-4.02-1.83-8.35-2.7-12.65-2.4-7.21.51-13.79-2.21-20.26-4.19-14.3-4.37-28.65-9.15-39.83-20.05-2.72-2.65-6.07-2.3-9.19-.21-3.09,2.08-4.22,5.07-3.74,8.63.46,3.47,2.4,6.19,5.08,8.32,8.31,6.64,17.11,12.56,27.37,15.68,20.56,6.25,41.39,11.53,62.77,13.96,35.1,3.99,70.31,6.73,105.69,6.38,29.64-.29,59.25,2.13,88.93-.09,24.17-1.8,47.71-6.53,70.41-14.44,21.61-7.53,41.24-19.3,59.31-33.47,2.61-2.04,4.69-4.58,6.22-7.68,2.97-6.03,2.81-8.37-2.17-12.98-3.93-3.64-6.87-1.2-10.34,1.33-2.36,1.72-4.92,3.19-6.91,5.37-13,14.22-29.53,22.78-47.33,29.05-15.43,5.43-31.15,9.47-47.55,11.43-22.22,2.66-44.42,4.3-66.77,3.76-8.11-.2-8.27-.37-8.28-8.57-.06-44.33.08-88.66-.15-132.98-.03-6.17,2.33-8.34,8.05-9.96,16.46-4.66,30.01-13.68,39.74-28.25,3.67-5.49,6.23-11.44,9.43-17.11,9.43-16.73,19.38-33.2,28.06-50.31,4.05-7.97,6.64-16.93,7.84-25.98.43-3.24.39-6.82-.55-9.91-3.39-11.12-7.87-21.87-13.84-31.85-2.82-4.72-6.45-8.97-11-12.41-7.85-5.93-17.08-9.32-25.7-13.71-4.17-2.13-9.47-3.55-14.94-3.57-23.66-.09-47.32.02-70.98.05-43.93.06-85,47.71-59.95,100.87,10.19,21.62,23.2,41.96,35.77,62.37,9.77,15.85,23.66,27.1,42.61,30.38,6.11,1.06,7.12,4.28,7.1,9.68-.16,43.99-.07,87.99-.11,131.98,0,8.41-.12,8.54-8.09,8.59-27,.15-53.97-.68-80.86-3.36-13.55-1.36-27.12-2.6-40.67-3.89Z"/>
  <path class="cls-5" d="m1163.4,1408.22c-.51,2.35-2.14,3.03-4.35,3.27-42.54,4.76-82.84,17.36-122.13,34-29.91,12.67-57.57,29.03-82.92,49.04-21.14,16.69-39.74,36.17-57.57,56.45-21.1,24-39.84,49.72-57.45,76.24-16.17,24.33-30.58,49.8-45.28,75.06-2.53,4.34-3.82,10.22-10.13,11.36-.12-1.63-.6-3.34-.31-4.89,13.19-68.76,40.83-130.4,88.48-182.63,30.21-33.11,64.69-60.31,104.59-80.57,15.09-7.66,30.74-13.97,46.93-19.2,26.91-8.68,54.18-15.23,82.34-17.79,19.24-1.75,38.53-2.2,57.81-.34Z"/>
  <path class="cls-8" d="m1021.61,1850.32c13.56,1.29,27.12,2.54,40.67,3.89,26.89,2.69,53.85,3.51,80.86,3.36,7.97-.04,8.08-.18,8.09-8.59.04-43.99-.05-87.99.11-131.98.02-5.41-.99-8.63-7.1-9.68-18.95-3.28-32.84-14.52-42.61-30.38-12.57-20.4-25.59-40.75-35.77-62.37-25.05-53.16,16.02-100.81,59.95-100.87,23.66-.03,47.32-.14,70.98-.05,5.47.02,10.77,1.44,14.94,3.57,8.61,4.39,17.84,7.78,25.7,13.71,4.55,3.44,8.19,7.7,11,12.41,5.97,9.98,10.45,20.73,13.84,31.85.94,3.09.98,6.67.55,9.91-1.2,9.05-3.8,18.01-7.84,25.98-8.68,17.11-18.63,33.58-28.06,50.31-3.2,5.67-5.76,11.62-9.43,17.11-9.73,14.57-23.28,23.59-39.74,28.25-5.72,1.62-8.08,3.8-8.05,9.96.22,44.33.09,88.65.15,132.98.01,8.2.17,8.37,8.28,8.57,22.35.54,44.55-1.1,66.77-3.76,16.4-1.96,32.12-6,47.55-11.43,17.81-6.27,34.33-14.83,47.33-29.05,1.99-2.18,4.55-3.65,6.91-5.37,3.48-2.53,6.42-4.97,10.34-1.33,4.98,4.61,5.14,6.95,2.17,12.98-1.53,3.1-3.61,5.63-6.22,7.68-18.07,14.16-37.7,25.94-59.31,33.47-22.7,7.91-46.24,12.64-70.41,14.44-29.68,2.21-59.29-.2-88.93.09-35.38.35-70.59-2.39-105.69-6.38-21.37-2.43-42.21-7.71-62.77-13.96-10.26-3.12-19.07-9.03-27.37-15.68-2.67-2.14-4.61-4.85-5.08-8.32-.47-3.56.65-6.56,3.74-8.63,3.11-2.09,6.47-2.44,9.19.21,11.18,10.9,25.53,15.68,39.83,20.05,6.47,1.98,13.06,4.7,20.26,4.19,4.3-.3,8.63.56,12.65,2.4.53,1.85,1.31,2.34,2.52.46Z"/>
  <path class="cls-9" d="m1021.61,1850.32c-1.21,1.89-1.99,1.4-2.52-.46.84.15,1.68.3,2.52.46Z"/>
</svg>