<?xml version="1.0" encoding="utf-8"?>
<!-- Generator: Adobe Illustrator 28.3.0, SVG Export Plug-In . SVG Version: 6.00 Build 0)  -->
<svg version="1.1" id="Layer_2" xmlns="http://www.w3.org/2000/svg" xmlns:xlink="http://www.w3.org/1999/xlink" x="0px" y="0px"
	 viewBox="0 0 844.6 271.1" style="enable-background:new 0 0 844.6 271.1;" xml:space="preserve">
<style type="text/css">
	.st0{fill:#FFFFFF;}
</style>
<g>
	<path class="st0" d="M108.5,63.1c11.8,1.9,23.5,6.6,33.8,13.7l0,0l0.7,0.5L147,80l-0.2,0c3.8,3,7.3,6.3,10.6,9.9l0-0.2l3,3.7
		l0.5,0.6l0,0c4.6,5.8,8.3,12,11.1,18.5c5.4,12.8,7.5,26.5,9.4,39.9l0.3,1.9c0.3,1.8,0.5,3.8,0.8,6c0.8,7.3,1.8,15.5,4.9,21.7l0,0
		c0.6,1.1,1.2,2.1,1.8,2.9c0.8,1.1,1.8,2.1,2.8,2.9c2.6,2.1,6.1,3.3,10.7,3.8c4.7,0.5,9.8,0.1,14.7-0.2c2.4-0.2,4.8-0.3,6.9-0.4
		c11.5-0.2,27.8,1,35.8,14.7c2.7,4.6,3.7,9.6,3.7,14.8c0,7.6-2.2,15.5-4.4,22.8c-0.9,3-2.1,6.7-5,9.2c-4.5,3.9-10.7,4.2-16.3,4.5
		c-1.2,0.1-2.4,0.1-3.6,0.2c-8.2,0.7-16.7,1.2-25.9,1.6c-18.9,0.7-37.6,0.5-51.8,0.3c-6.4-0.1-12.7-0.3-19.1-0.4l-0.3,0
		c-0.2,0-0.4,0-0.6,0l-3.9-0.1c-9.6-0.2-19.2-0.4-28.8-0.6c-20.4-0.3-36.1-0.1-50.8,0.5l-0.8,0c-6.4,0.3-13,0.6-19.3-1.2
		c-9.7-2.7-16.4-11.1-20.5-25.4l-0.1,0.1l-0.8-3.5l-0.3-1.1l0,0c-1.1-4.6-1.8-9.1-2.5-13.3c-1-6.7-1.6-13.7-1.8-21.5l0,0l0-1.1
		l-0.1-3.7l0,0c-0.1-8.8,0.3-18.4,1.2-29.9c2.2-28.1,10.4-50.7,24.6-67.1C51.3,69.7,80.9,58.8,108.5,63.1z M128.4,158
		c-1.4-7.1-4.7-16.7-12.3-22.3c-4.5-3.3-10.4-5.3-17.6-5.8c-7.5-0.5-14.9,1-20.8,4.2c-3.1,1.7-5.6,3.7-7.6,6
		c-1.5,1.8-2.8,3.9-3.9,6.3l0,0c-3.2,7-4,15.3-4.3,22.4c0,0.8,0,1.5,0,2.3c0,9.4,2.8,15,8.6,17.6c3.2,1.4,6.8,1.9,10,2.3
		c10.8,1.2,20.1,1,28.4-0.6c6.2-1.2,13.3-2.6,17.9-6.6c2.5-2.2,3.7-6.6,3.3-13.1C130,165.9,129,161,128.4,158z"/>
</g>
<g>
	<path class="st0" d="M449.8,152.2c-0.4,3.7-1,7.3-2,10.8c-3.5,13.2-9.6,25.9-18,37.9l0,0l-1.2,1.7l-1.1,1.6l0,0
		c-5,6.7-10.7,13-16.9,18.7l0,0l-1.4,1.3l-1.5,1.4l0,0c-22.3,19.2-48.2,29.4-73.6,29.4c-10.6,0-21.1-1.8-31.1-5.4
		c-10.3-3.7-19.8-9.2-28.3-16.3c-0.9-0.8-1.8-1.5-2.7-2.3c-28-25.4-36.7-69.3-21.6-109c12.4-32.5,38.1-58.1,69.1-68.7l0,0l1.5-0.5
		l2.5-0.8l0,0.1c7.8-2.3,15.8-3.6,23.8-4l0-0.1l2.6,0l1.5,0l0,0.1c16.5,0,32.7,4.2,47.9,12.5c7.4,4.1,14.2,9,20.1,14.6
		c1.4,1.4,3,3,4.6,4.8l0,0l0.9,1l2,2.3l-0.1,0c8.7,10.6,15.6,23.3,19.6,36.3l0.1-0.1l0.8,2.9c0,0,0,0,0,0l0.3,1.3l0,0
		C449.8,133.5,450.6,143.1,449.8,152.2z M342.1,192.4c9.3,1.2,17.6-2.5,23.7-10.4c12.2-16,21.6-46.7,4.4-64.9
		c-5.8-6.1-13.2-8.8-21.3-7.6c-11.5,1.6-23.6,10.7-30,22.6l0,0c-1.6,2.9-2.7,5.8-3.4,8.5c-2.4,9.6-2.6,18.4-0.7,26.2
		c0.4,1.6,1,3.3,1.8,5.2l0,0C321.1,183.1,331.2,191,342.1,192.4z"/>
</g>
<g>
	<path class="st0" d="M632.5,253.4c-6.4,6.6-15.7,7.9-25.3,7.9c-1.8,0-3.6,0-5.4-0.1c-29-1-58.3-1.2-87.3-0.6
		c-8.6,0.2-24.4-0.9-34.8-10c-4-3.5-6.7-7.8-8.2-12.8c-2.9-10-2.4-21.2-2-32c0.2-3.9,0.3-7.7,0.3-11.3l-0.3-74.6l-0.1-19.5
		l-0.1-33.3c0-2.8-0.1-5.8-0.3-8.9c-0.8-16.6-1.7-37.3,14.9-46.1c4.8-2.6,10.4-3.8,17.2-4l0,0l1.6,0c0.4,0,0.8,0,1.2,0l3,0l-0.2,0.2
		c7,0.6,13,2.3,17.8,5.4c9.9,6.3,11.7,16.7,11.9,25.5l0,0v1.5c0,0.1,0,0.1,0,0.2l0,3.9c0,36.6,0,73.2-0.1,109.8l0,25v1.7
		c0,5.2,0,11.1,2.7,15.7c6,10.2,19.3,9.5,31,8.8c1.7-0.1,3.4-0.2,5-0.2c2.9-0.1,5.8-0.1,8.8-0.1l0,0l0.9,0l4.7,0l-0.1,0.1
		c4.1,0.1,8.2,0.2,12.5,0.5l-0.1-0.1l5.8,0.4c1.3,0.1,2.9,0.1,4.7,0.2c7.9,0.2,18.6,0.4,22.7,6.2c2.1,2.9,2.8,6.3,3.3,9.6
		C639.6,231.6,640.7,244.9,632.5,253.4z"/>
</g>
<g>
	<path class="st0" d="M836.9,202L836.9,202l0,1.4l-0.1,3l-0.1,0c-0.5,8.9-1.9,16.5-4.3,22.8l0.2,0l-1.3,2.9l-0.5,1.1l-0.1,0
		c-2.7,5.8-6.2,10.5-10.7,14.3c-9.8,8.2-23.2,10.2-35,11.9c-14.8,2.1-29.9,3.9-45,3.9c-15.2,0-30.4-1.8-45-6.7
		c-17.7-5.9-31-16.4-38.4-30.4l-0.1,0l-0.7-1.4l-1.2-2.3l0.2,0c-3.4-7.7-5.2-16.2-5.2-25.3c0-11.2,2.1-20.9,6.1-29.1l-0.1,0l1.3-2.3
		l0.7-1.3l0.1,0c2.5-4.1,5.5-7.7,9-10.8c15.6-13.7,36.3-16.3,52.5-16.9c1.3-0.1,2.7-0.1,4.1-0.1c13-0.4,30.8-1,37.8-12.4
		c2.3-3.7,3-6.9,2.3-9.6c-0.7-2.5-2.9-4.7-6.4-6.4l0,0c-3.8-1.9-8.9-3.1-14.5-3.5c-4.2-0.3-8.5,0-13.3,0.7
		c-6.7,1.1-13.3,3.2-19.7,5.3c-7.8,2.5-15.8,5-24.4,6c-7.6,0.9-14.4-1.5-19.2-6.6c-5.3-5.7-7.5-14.2-5.9-22.9
		c4.1-21.9,24.7-35,55.3-35c0.1,0,0.2,0,0.3,0c8.4,0,16.5,0.4,24.1,1.1c30.6,2.7,53,10.7,68.4,24.5l0.1,0l1.1,1l2,1.8l-0.1,0.1
		c4.7,4.7,8.6,9.8,11.7,15.5c5.4,9.9,9.1,21.2,11.3,34.3l0.1,0l0.4,2.4l0.2,1.6l0,0c1.4,9.7,1.9,20.2,1.6,31.3
		c-0.1,5.1,0,10.7,0.2,16.6C836.9,188.8,837,195.4,836.9,202z M712.9,195.3c0,5.8,2.1,10.3,6.4,13.6c3.8,3,10.1,4.7,18.5,5.1
		c1.2,0.1,2.5,0.1,3.8,0.1h0.2l0.2,0c6.6,1.4,13.7-0.4,19.4-5c5.6-4.5,8.9-11,8.9-17.3c0-1-0.1-1.9-0.3-2.8
		c-4.5-10.8-14.7-11.2-24.6-11.6l-1.1,0l-5,0.4c-8.2,0.8-14.8,2.6-19.7,5.5C715.1,185.9,712.9,189.8,712.9,195.3z"/>
</g>
</svg>
