<?xml version="1.0" encoding="UTF-8"?>
<svg xmlns="http://www.w3.org/2000/svg" xmlns:xlink="http://www.w3.org/1999/xlink" width="36px" height="33px" viewBox="0 0 36 33" version="1.1">
<g id="surface1">
<path style=" stroke:none;fill-rule:nonzero;fill:rgb(0%,32.156863%,100%);fill-opacity:1;" d="M 36 16.5 C 36 25.613281 27.941406 33 18 33 C 8.058594 33 0 25.613281 0 16.5 C 0 7.386719 8.058594 0 18 0 C 27.941406 0 36 7.386719 36 16.5 Z M 36 16.5 "/>
<path style=" stroke:none;fill-rule:evenodd;fill:rgb(100%,100%,100%);fill-opacity:1;" d="M 5.398438 16.5 C 5.398438 22.878906 11.042969 28.050781 18 28.050781 C 24.957031 28.050781 30.601562 22.878906 30.601562 16.5 C 30.601562 10.121094 24.957031 4.949219 18 4.949219 C 11.042969 4.949219 5.398438 10.121094 5.398438 16.5 Z M 14.78125 12.777344 C 14.316406 12.777344 13.941406 13.125 13.941406 13.546875 L 13.941406 19.453125 C 13.941406 19.875 14.316406 20.222656 14.78125 20.222656 L 21.21875 20.222656 C 21.683594 20.222656 22.058594 19.875 22.058594 19.453125 L 22.058594 13.546875 C 22.058594 13.125 21.683594 12.777344 21.21875 12.777344 Z M 14.78125 12.777344 "/>
</g>
</svg>
